# MagicaVoxel @ Ephtracy

# group
o locker

# material
mtllib SchoolPack-56-locker.mtl
usemtl palette

# normals
vn -1 0 0
vn 1 0 0
vn 0 0 1
vn 0 0 -1
vn 0 -1 0
vn 0 1 0

# texcoords
vt 0.896484 0.5
vt 0.974609 0.5
vt 0.986328 0.5
vt 0.990234 0.5

# verts
v 13.9 0.1 23
v 13.9 0.1 20.1
v 13.9 8.9 23
v 13.9 8.9 20.1
v 14 0 23
v 14 0 20.1
v 14 0.1 23
v 14 0.1 20.1
v 14 0.1 20
v 14 8.9 23
v 14 8.9 20.1
v 14 9 23
v 14 9 20
v 15.8 0.3 22.9
v 15.8 0.3 22.6
v 15.8 0.3 20.4
v 15.8 1.6 22.6
v 15.8 1.6 20.4
v 15.8 1.7 22.6
v 15.8 1.7 20.4
v 15.8 4.9 22.3
v 15.8 4.9 22.2
v 15.8 5.1 22.4
v 15.8 5.1 22.3
v 15.8 5.1 22.2
v 15.8 5.1 22.1
v 15.8 5.4 22.4
v 15.8 5.4 22.1
v 15.8 5.7 22.3
v 15.8 5.7 22.2
v 15.8 6.7 22.3
v 15.8 6.7 22.2
v 15.8 7.7 22
v 15.8 7.7 20.9
v 15.8 7.8 22
v 15.8 7.8 20.9
v 15.8 7.9 22
v 15.8 7.9 20.9
v 15.8 8 22
v 15.8 8 20.9
v 15.8 8.1 22
v 15.8 8.1 20.9
v 15.8 8.2 22
v 15.8 8.2 20.9
v 15.8 8.7 22.6
v 15.8 8.7 20.4
v 15.8 8.8 22.9
v 15.8 8.8 20.4
v 14 0.3 22.9
v 14 0.3 20.4
v 14 8.8 22.9
v 14 8.8 20.4
v 15.8 0 23
v 15.8 0 20.1
v 15.8 0.1 23
v 15.8 0.1 20.1
v 15.8 0.1 20
v 15.8 8.9 23
v 15.8 8.9 20.1
v 15.8 9 23
v 15.8 9 20
v 15.9 0.1 23
v 15.9 0.1 20.1
v 15.9 0.3 22.6
v 15.9 0.3 20.4
v 15.9 1.6 22.6
v 15.9 1.6 20.4
v 15.9 1.7 22.6
v 15.9 1.7 20.4
v 15.9 4.9 22.3
v 15.9 4.9 22.2
v 15.9 5.1 22.4
v 15.9 5.1 22.3
v 15.9 5.1 22.2
v 15.9 5.1 22.1
v 15.9 5.4 22.4
v 15.9 5.4 22.1
v 15.9 5.7 22.3
v 15.9 5.7 22.2
v 15.9 6.7 22.3
v 15.9 6.7 22.2
v 15.9 7.7 22
v 15.9 7.7 20.9
v 15.9 7.8 22
v 15.9 7.8 20.9
v 15.9 7.9 22
v 15.9 7.9 20.9
v 15.9 8 22
v 15.9 8 20.9
v 15.9 8.1 22
v 15.9 8.1 20.9
v 15.9 8.2 22
v 15.9 8.2 20.9
v 15.9 8.7 22.6
v 15.9 8.7 20.4
v 15.9 8.9 23
v 15.9 8.9 20.1
v 13.9 0.1 23
v 13.9 8.9 23
v 14 0 23
v 14 0.1 23
v 14 8.9 23
v 14 9 23
v 15.8 0 23
v 15.8 0.1 23
v 15.8 8.9 23
v 15.8 9 23
v 15.9 0.1 23
v 15.9 8.9 23
v 14 0.3 20.4
v 14 8.8 20.4
v 14.1 0.3 20.4
v 14.1 8.8 20.4
v 14.2 8.8 20.4
v 14.9 0.3 20.4
v 14.9 8.8 20.4
v 15.6 0.3 20.4
v 15.8 0.3 20.4
v 15.8 1.6 20.4
v 15.8 1.7 20.4
v 15.8 8.7 20.4
v 15.8 8.8 20.4
v 14 0.3 22.9
v 14 8.8 22.9
v 14.1 0.3 22.9
v 14.1 8.8 22.9
v 14.2 8.8 22.9
v 15.6 0.3 22.9
v 15.8 0.3 22.9
v 15.8 8.8 22.9
v 13.9 0.1 20.1
v 13.9 8.9 20.1
v 14 0 20.1
v 14 0.1 20.1
v 14 8.9 20.1
v 15.8 0 20.1
v 15.8 0.1 20.1
v 15.8 8.9 20.1
v 15.9 0.1 20.1
v 15.9 8.9 20.1
v 14 0.1 20
v 14 9 20
v 15.8 0.1 20
v 15.8 9 20
v 14 0 23
v 15.8 0 23
v 14 0 20.1
v 15.8 0 20.1
v 13.9 0.1 23
v 14 0.1 23
v 15.8 0.1 23
v 15.9 0.1 23
v 13.9 0.1 20.1
v 14 0.1 20.1
v 15.8 0.1 20.1
v 15.9 0.1 20.1
v 14 0.1 20
v 15.8 0.1 20
v 14 8.8 22.9
v 14.1 8.8 22.9
v 14.2 8.8 22.9
v 15.8 8.8 22.9
v 14 8.8 20.4
v 14.1 8.8 20.4
v 14.2 8.8 20.4
v 14.9 8.8 20.4
v 15.8 8.8 20.4
v 14 0.3 22.9
v 14.1 0.3 22.9
v 15.6 0.3 22.9
v 15.8 0.3 22.9
v 15.8 0.3 22.6
v 14 0.3 20.4
v 14.1 0.3 20.4
v 14.9 0.3 20.4
v 15.6 0.3 20.4
v 15.8 0.3 20.4
v 13.9 8.9 23
v 14 8.9 23
v 15.8 8.9 23
v 15.9 8.9 23
v 13.9 8.9 20.1
v 14 8.9 20.1
v 15.8 8.9 20.1
v 15.9 8.9 20.1
v 14 9 23
v 15.8 9 23
v 14 9 20
v 15.8 9 20

# faces
f 3/2/1 2/2/1 1/2/1
f 4/2/1 2/2/1 3/2/1
f 7/2/1 6/2/1 5/2/1
f 8/2/1 6/2/1 7/2/1
f 11/2/1 9/2/1 8/2/1
f 12/2/1 11/2/1 10/2/1
f 13/2/1 9/2/1 11/2/1
f 13/2/1 11/2/1 12/2/1
f 17/2/1 15/2/1 14/2/1
f 17/3/1 16/3/1 15/3/1
f 18/3/1 16/3/1 17/3/1
f 19/2/1 17/2/1 14/2/1
f 19/2/1 18/2/1 17/2/1
f 20/2/1 18/2/1 19/2/1
f 21/3/1 20/3/1 19/3/1
f 22/3/1 20/3/1 21/3/1
f 23/3/1 21/3/1 19/3/1
f 24/2/1 22/2/1 21/2/1
f 24/3/1 21/3/1 23/3/1
f 25/3/1 20/3/1 22/3/1
f 25/2/1 22/2/1 24/2/1
f 26/3/1 20/3/1 25/3/1
f 27/2/1 24/2/1 23/2/1
f 27/3/1 23/3/1 19/3/1
f 27/2/1 26/2/1 25/2/1
f 27/2/1 25/2/1 24/2/1
f 28/3/1 20/3/1 26/3/1
f 28/2/1 26/2/1 27/2/1
f 29/3/1 28/3/1 27/3/1
f 30/3/1 28/3/1 29/3/1
f 31/3/1 29/3/1 27/3/1
f 31/2/1 30/2/1 29/2/1
f 32/3/1 28/3/1 30/3/1
f 32/2/1 30/2/1 31/2/1
f 33/3/1 20/3/1 28/3/1
f 33/3/1 28/3/1 32/3/1
f 33/3/1 32/3/1 31/3/1
f 34/3/1 20/3/1 33/3/1
f 35/3/1 33/3/1 31/3/1
f 35/4/1 34/4/1 33/4/1
f 36/3/1 20/3/1 34/3/1
f 36/4/1 34/4/1 35/4/1
f 37/3/1 35/3/1 31/3/1
f 37/3/1 36/3/1 35/3/1
f 38/3/1 20/3/1 36/3/1
f 38/3/1 36/3/1 37/3/1
f 39/3/1 37/3/1 31/3/1
f 39/4/1 38/4/1 37/4/1
f 40/3/1 20/3/1 38/3/1
f 40/4/1 38/4/1 39/4/1
f 41/3/1 39/3/1 31/3/1
f 41/3/1 40/3/1 39/3/1
f 42/3/1 20/3/1 40/3/1
f 42/3/1 40/3/1 41/3/1
f 43/3/1 41/3/1 31/3/1
f 43/4/1 42/4/1 41/4/1
f 44/3/1 20/3/1 42/3/1
f 44/4/1 42/4/1 43/4/1
f 45/2/1 19/2/1 14/2/1
f 45/3/1 27/3/1 19/3/1
f 45/3/1 44/3/1 43/3/1
f 45/3/1 43/3/1 31/3/1
f 45/3/1 31/3/1 27/3/1
f 46/3/1 20/3/1 44/3/1
f 46/3/1 44/3/1 45/3/1
f 47/2/1 45/2/1 14/2/1
f 47/2/1 46/2/1 45/2/1
f 48/2/1 46/2/1 47/2/1
f 49/2/2 50/2/2 51/2/2
f 51/2/2 50/2/2 52/2/2
f 53/2/2 54/2/2 55/2/2
f 55/2/2 54/2/2 56/2/2
f 56/2/2 57/2/2 59/2/2
f 58/2/2 59/2/2 60/2/2
f 59/2/2 57/2/2 61/2/2
f 60/2/2 59/2/2 61/2/2
f 62/2/2 63/2/2 64/2/2
f 64/2/2 63/2/2 65/2/2
f 62/2/2 64/2/2 66/2/2
f 64/3/2 65/3/2 66/3/2
f 65/2/2 63/2/2 67/2/2
f 66/3/2 65/3/2 67/3/2
f 62/2/2 66/2/2 68/2/2
f 66/2/2 67/2/2 68/2/2
f 67/2/2 63/2/2 69/2/2
f 68/2/2 67/2/2 69/2/2
f 68/3/2 69/3/2 70/3/2
f 70/3/2 69/3/2 71/3/2
f 68/3/2 70/3/2 72/3/2
f 70/2/2 71/2/2 73/2/2
f 72/3/2 70/3/2 73/3/2
f 71/3/2 69/3/2 74/3/2
f 73/2/2 71/2/2 74/2/2
f 74/3/2 69/3/2 75/3/2
f 72/2/2 73/2/2 76/2/2
f 68/3/2 72/3/2 76/3/2
f 74/2/2 75/2/2 76/2/2
f 73/2/2 74/2/2 76/2/2
f 75/3/2 69/3/2 77/3/2
f 76/2/2 75/2/2 77/2/2
f 76/3/2 77/3/2 78/3/2
f 78/3/2 77/3/2 79/3/2
f 76/3/2 78/3/2 80/3/2
f 78/2/2 79/2/2 80/2/2
f 79/3/2 77/3/2 81/3/2
f 80/2/2 79/2/2 81/2/2
f 77/3/2 69/3/2 82/3/2
f 81/3/2 77/3/2 82/3/2
f 80/3/2 81/3/2 82/3/2
f 82/3/2 69/3/2 83/3/2
f 80/3/2 82/3/2 84/3/2
f 82/4/2 83/4/2 84/4/2
f 83/3/2 69/3/2 85/3/2
f 84/4/2 83/4/2 85/4/2
f 80/3/2 84/3/2 86/3/2
f 84/3/2 85/3/2 86/3/2
f 85/3/2 69/3/2 87/3/2
f 86/3/2 85/3/2 87/3/2
f 80/3/2 86/3/2 88/3/2
f 86/4/2 87/4/2 88/4/2
f 87/3/2 69/3/2 89/3/2
f 88/4/2 87/4/2 89/4/2
f 80/3/2 88/3/2 90/3/2
f 88/3/2 89/3/2 90/3/2
f 89/3/2 69/3/2 91/3/2
f 90/3/2 89/3/2 91/3/2
f 80/3/2 90/3/2 92/3/2
f 90/4/2 91/4/2 92/4/2
f 91/3/2 69/3/2 93/3/2
f 92/4/2 91/4/2 93/4/2
f 62/2/2 68/2/2 94/2/2
f 68/3/2 76/3/2 94/3/2
f 92/3/2 93/3/2 94/3/2
f 80/3/2 92/3/2 94/3/2
f 76/3/2 80/3/2 94/3/2
f 93/3/2 69/3/2 95/3/2
f 94/3/2 93/3/2 95/3/2
f 69/2/2 63/2/2 95/2/2
f 62/2/2 94/2/2 96/2/2
f 94/2/2 95/2/2 96/2/2
f 95/2/2 63/2/2 97/2/2
f 96/2/2 95/2/2 97/2/2
f 101/2/3 99/2/3 98/2/3
f 102/2/3 99/2/3 101/2/3
f 104/2/3 101/2/3 100/2/3
f 104/2/3 103/2/3 102/2/3
f 104/2/3 102/2/3 101/2/3
f 105/2/3 103/2/3 104/2/3
f 106/2/3 103/2/3 105/2/3
f 107/2/3 103/2/3 106/2/3
f 108/2/3 106/2/3 105/2/3
f 109/2/3 106/2/3 108/2/3
f 112/2/3 111/2/3 110/2/3
f 113/2/3 111/2/3 112/2/3
f 114/1/3 113/1/3 112/1/3
f 115/1/3 114/1/3 112/1/3
f 116/1/3 114/1/3 115/1/3
f 117/2/3 116/2/3 115/2/3
f 118/2/3 116/2/3 117/2/3
f 119/2/3 116/2/3 118/2/3
f 120/2/3 116/2/3 119/2/3
f 121/2/3 116/2/3 120/2/3
f 122/2/3 116/2/3 121/2/3
f 123/2/4 124/2/4 125/2/4
f 125/2/4 124/2/4 126/2/4
f 125/2/4 126/2/4 127/2/4
f 125/2/4 127/2/4 128/2/4
f 128/2/4 127/2/4 129/2/4
f 129/2/4 127/2/4 130/2/4
f 131/2/4 132/2/4 134/2/4
f 134/2/4 132/2/4 135/2/4
f 133/2/4 134/2/4 136/2/4
f 136/2/4 134/2/4 137/2/4
f 137/2/4 138/2/4 139/2/4
f 139/2/4 138/2/4 140/2/4
f 141/2/4 142/2/4 143/2/4
f 143/2/4 142/2/4 144/2/4
f 147/2/5 146/2/5 145/2/5
f 148/2/5 146/2/5 147/2/5
f 153/2/5 150/2/5 149/2/5
f 154/2/5 150/2/5 153/2/5
f 155/2/5 152/2/5 151/2/5
f 156/2/5 152/2/5 155/2/5
f 157/2/5 155/2/5 154/2/5
f 158/2/5 155/2/5 157/2/5
f 163/2/5 160/2/5 159/2/5
f 164/1/5 161/1/5 160/1/5
f 164/2/5 160/2/5 163/2/5
f 165/2/5 162/2/5 161/2/5
f 165/1/5 161/1/5 164/1/5
f 166/2/5 162/2/5 165/2/5
f 167/2/5 162/2/5 166/2/5
f 170/2/6 171/2/6 172/2/6
f 168/2/6 169/2/6 173/2/6
f 169/1/6 170/1/6 174/1/6
f 173/2/6 169/2/6 174/2/6
f 174/1/6 170/1/6 175/1/6
f 170/2/6 172/2/6 176/2/6
f 175/1/6 170/1/6 176/1/6
f 176/2/6 172/2/6 177/2/6
f 178/2/6 179/2/6 182/2/6
f 182/2/6 179/2/6 183/2/6
f 180/2/6 181/2/6 184/2/6
f 184/2/6 181/2/6 185/2/6
f 186/2/6 187/2/6 188/2/6
f 188/2/6 187/2/6 189/2/6
