# MagicaVoxel @ Ephtracy

# group
o book

# material
mtllib SchoolPack-65-book.mtl
usemtl palette

# normals
vn -1 0 0
vn 1 0 0
vn 0 0 1
vn 0 0 -1
vn 0 -1 0
vn 0 1 0

# texcoords
vt 0.0175781 0.5
vt 0.869141 0.5
vt 0.931641 0.5
vt 0.958984 0.5

# verts
v 6.7 0.3 -4.5
v 6.7 0.3 -5.3
v 6.7 0.6 -4.5
v 6.7 0.6 -5.3
v 6.7 1.4 -4.5
v 6.7 1.4 -5.3
v 6.7 1.7 -4.5
v 6.7 1.7 -5.3
v 6.8 0 -4.6
v 6.8 0 -5.2
v 6.8 0.3 -4.6
v 6.8 0.3 -5.2
v 6.8 0.6 -4.6
v 6.8 0.6 -5.2
v 6.8 1.4 -4.6
v 6.8 1.4 -5.2
v 6.8 1.7 -4.6
v 6.8 1.7 -5.2
v 6.8 2 -4.6
v 6.8 2 -5.2
v 6.9 0.3 -4.5
v 6.9 0.3 -4.6
v 6.9 0.3 -5.2
v 6.9 0.3 -5.3
v 6.9 0.6 -4.5
v 6.9 0.6 -4.6
v 6.9 0.6 -5.2
v 6.9 0.6 -5.3
v 6.9 1.4 -4.5
v 6.9 1.4 -4.6
v 6.9 1.4 -5.2
v 6.9 1.4 -5.3
v 6.9 1.7 -4.5
v 6.9 1.7 -4.6
v 6.9 1.7 -5.2
v 6.9 1.7 -5.3
v 8.7 0 -4.6
v 8.7 0 -4.7
v 8.7 0 -5.1
v 8.7 0 -5.2
v 8.7 2 -4.6
v 8.7 2 -4.7
v 8.7 2 -5.1
v 8.7 2 -5.2
v 6.7 0.3 -4.5
v 6.7 0.6 -4.5
v 6.7 1.4 -4.5
v 6.7 1.7 -4.5
v 6.9 0.3 -4.5
v 6.9 0.6 -4.5
v 6.9 1.4 -4.5
v 6.9 1.7 -4.5
v 6.8 0 -4.6
v 6.8 0.3 -4.6
v 6.8 0.6 -4.6
v 6.8 1.4 -4.6
v 6.8 1.7 -4.6
v 6.8 2 -4.6
v 6.9 0.3 -4.6
v 6.9 0.6 -4.6
v 6.9 1.4 -4.6
v 6.9 1.7 -4.6
v 8.7 0 -4.6
v 8.7 2 -4.6
v 6.8 0 -5.2
v 6.8 0.3 -5.2
v 6.8 0.6 -5.2
v 6.8 1.4 -5.2
v 6.8 1.7 -5.2
v 6.8 2 -5.2
v 6.9 0.3 -5.2
v 6.9 0.6 -5.2
v 6.9 1.4 -5.2
v 6.9 1.7 -5.2
v 8.7 0 -5.2
v 8.7 2 -5.2
v 6.7 0.3 -5.3
v 6.7 0.6 -5.3
v 6.7 1.4 -5.3
v 6.7 1.7 -5.3
v 6.9 0.3 -5.3
v 6.9 0.6 -5.3
v 6.9 1.4 -5.3
v 6.9 1.7 -5.3
v 6.8 0 -4.6
v 8.7 0 -4.6
v 7 0 -4.7
v 8.7 0 -4.7
v 7 0 -5.1
v 8.7 0 -5.1
v 6.8 0 -5.2
v 8.7 0 -5.2
v 6.7 0.3 -4.5
v 6.9 0.3 -4.5
v 6.8 0.3 -4.6
v 6.9 0.3 -4.6
v 6.8 0.3 -5.2
v 6.9 0.3 -5.2
v 6.7 0.3 -5.3
v 6.9 0.3 -5.3
v 6.7 1.4 -4.5
v 6.9 1.4 -4.5
v 6.8 1.4 -4.6
v 6.9 1.4 -4.6
v 6.8 1.4 -5.2
v 6.9 1.4 -5.2
v 6.7 1.4 -5.3
v 6.9 1.4 -5.3
v 6.7 0.6 -4.5
v 6.9 0.6 -4.5
v 6.8 0.6 -4.6
v 6.9 0.6 -4.6
v 6.8 0.6 -5.2
v 6.9 0.6 -5.2
v 6.7 0.6 -5.3
v 6.9 0.6 -5.3
v 6.7 1.7 -4.5
v 6.9 1.7 -4.5
v 6.8 1.7 -4.6
v 6.9 1.7 -4.6
v 6.8 1.7 -5.2
v 6.9 1.7 -5.2
v 6.7 1.7 -5.3
v 6.9 1.7 -5.3
v 6.8 2 -4.6
v 8.7 2 -4.6
v 7 2 -4.7
v 8.7 2 -4.7
v 7 2 -5.1
v 8.7 2 -5.1
v 6.8 2 -5.2
v 8.7 2 -5.2

# faces
f 3/1/1 2/1/1 1/1/1
f 4/1/1 2/1/1 3/1/1
f 7/1/1 6/1/1 5/1/1
f 8/1/1 6/1/1 7/1/1
f 11/3/1 10/3/1 9/3/1
f 12/3/1 10/3/1 11/3/1
f 15/3/1 14/3/1 13/3/1
f 16/3/1 14/3/1 15/3/1
f 19/3/1 18/3/1 17/3/1
f 20/3/1 18/3/1 19/3/1
f 21/1/2 22/1/2 25/1/2
f 25/1/2 22/1/2 26/1/2
f 23/1/2 24/1/2 27/1/2
f 27/1/2 24/1/2 28/1/2
f 29/1/2 30/1/2 33/1/2
f 33/1/2 30/1/2 34/1/2
f 31/1/2 32/1/2 35/1/2
f 35/1/2 32/1/2 36/1/2
f 37/3/2 38/3/2 41/3/2
f 38/4/2 39/4/2 42/4/2
f 41/3/2 38/3/2 42/3/2
f 39/3/2 40/3/2 43/3/2
f 42/4/2 39/4/2 43/4/2
f 43/3/2 40/3/2 44/3/2
f 49/1/3 46/1/3 45/1/3
f 50/1/3 46/1/3 49/1/3
f 51/1/3 48/1/3 47/1/3
f 52/1/3 48/1/3 51/1/3
f 59/3/3 54/3/3 53/3/3
f 60/3/3 56/3/3 55/3/3
f 61/3/3 56/3/3 60/3/3
f 62/3/3 58/3/3 57/3/3
f 63/3/3 61/3/3 60/3/3
f 63/3/3 62/3/3 61/3/3
f 63/3/3 59/3/3 53/3/3
f 63/3/3 60/3/3 59/3/3
f 64/3/3 58/3/3 62/3/3
f 64/3/3 62/3/3 63/3/3
f 65/3/4 66/3/4 71/3/4
f 67/3/4 68/3/4 72/3/4
f 72/3/4 68/3/4 73/3/4
f 69/3/4 70/3/4 74/3/4
f 72/3/4 73/3/4 75/3/4
f 73/3/4 74/3/4 75/3/4
f 65/3/4 71/3/4 75/3/4
f 71/3/4 72/3/4 75/3/4
f 74/3/4 70/3/4 76/3/4
f 75/3/4 74/3/4 76/3/4
f 77/1/4 78/1/4 81/1/4
f 81/1/4 78/1/4 82/1/4
f 79/1/4 80/1/4 83/1/4
f 83/1/4 80/1/4 84/1/4
f 87/3/5 86/3/5 85/3/5
f 88/3/5 86/3/5 87/3/5
f 89/3/5 87/3/5 85/3/5
f 89/4/5 88/4/5 87/4/5
f 90/4/5 88/4/5 89/4/5
f 91/3/5 89/3/5 85/3/5
f 91/3/5 90/3/5 89/3/5
f 92/3/5 90/3/5 91/3/5
f 95/1/5 94/1/5 93/1/5
f 96/1/5 94/1/5 95/1/5
f 97/1/5 95/1/5 93/1/5
f 99/1/5 97/1/5 93/1/5
f 99/1/5 98/1/5 97/1/5
f 100/1/5 98/1/5 99/1/5
f 103/1/5 102/1/5 101/1/5
f 104/1/5 102/1/5 103/1/5
f 105/1/5 103/1/5 101/1/5
f 107/1/5 105/1/5 101/1/5
f 107/1/5 106/1/5 105/1/5
f 108/1/5 106/1/5 107/1/5
f 109/1/6 110/1/6 111/1/6
f 111/1/6 110/1/6 112/1/6
f 109/1/6 111/1/6 113/1/6
f 109/1/6 113/1/6 115/1/6
f 113/1/6 114/1/6 115/1/6
f 115/1/6 114/1/6 116/1/6
f 117/1/6 118/1/6 119/1/6
f 119/1/6 118/1/6 120/1/6
f 117/1/6 119/1/6 121/1/6
f 117/1/6 121/1/6 123/1/6
f 121/1/6 122/1/6 123/1/6
f 123/1/6 122/1/6 124/1/6
f 125/3/6 126/3/6 127/3/6
f 127/3/6 126/3/6 128/3/6
f 125/3/6 127/3/6 129/3/6
f 127/4/6 128/4/6 129/4/6
f 129/4/6 128/4/6 130/4/6
f 125/3/6 129/3/6 131/3/6
f 129/3/6 130/3/6 131/3/6
f 131/3/6 130/3/6 132/3/6
