# MagicaVoxel @ Ephtracy

# group
o dispenser

# material
mtllib SchoolPack-42-dispenser.mtl
usemtl palette

# normals
vn -1 0 0
vn 1 0 0
vn 0 0 1
vn 0 0 -1
vn 0 -1 0
vn 0 1 0

# texcoords
vt 0.853516 0.5
vt 0.927734 0.5
vt 0.931641 0.5
vt 0.958984 0.5
vt 0.978516 0.5

# verts
v -18.2 0.1 7.1
v -18.2 0.1 4.7
v -18.2 4.1 7.1
v -18.2 4.1 4.7
v -18.1 0 7.1
v -18.1 0 4.7
v -18.1 0.1 7.2
v -18.1 0.1 7.1
v -18.1 0.1 4.7
v -18.1 0.1 4.6
v -18.1 4.1 7.2
v -18.1 4.1 7.1
v -18.1 4.1 4.7
v -18.1 4.1 4.6
v -18.1 4.2 7.1
v -18.1 4.2 4.7
v -18 4.7 6.9
v -18 4.7 4.9
v -18 6.4 6.9
v -18 6.4 4.9
v -18 7.9 6.9
v -18 7.9 4.9
v -17.9 4.6 6.9
v -17.9 4.6 4.9
v -17.9 4.7 7
v -17.9 4.7 6.9
v -17.9 4.7 4.9
v -17.9 4.7 4.8
v -17.9 6.4 7
v -17.9 6.4 6.9
v -17.9 6.4 4.9
v -17.9 6.4 4.8
v -17.9 7.9 7
v -17.9 7.9 6.9
v -17.9 7.9 4.9
v -17.9 7.9 4.8
v -17.9 8 6.9
v -17.9 8 4.9
v -17.6 3 7.1
v -17.6 3 6.8
v -17.6 3.1 7.1
v -17.6 3.1 6.8
v -17.6 3.2 7.3
v -17.6 3.2 7.2
v -17.6 3.5 7.3
v -17.6 3.5 7.2
v -17.5 2.8 7
v -17.5 2.8 6.9
v -17.5 3 7
v -17.5 3 6.9
v -17.5 3.3 7.4
v -17.5 3.3 7.3
v -17.5 3.4 7.4
v -17.5 3.4 7.3
v -17.2 4.2 6
v -17.2 4.2 5.6
v -17.2 4.6 6
v -17.2 4.6 5.6
v -17.1 4.2 6.1
v -17.1 4.2 6
v -17.1 4.6 6.1
v -17.1 4.6 6
v -16.6 3.2 7.3
v -16.6 3.2 7.2
v -16.6 3.5 7.3
v -16.6 3.5 7.2
v -16.5 3 7.1
v -16.5 3 6.8
v -16.5 3.1 7.1
v -16.5 3.1 6.8
v -16.5 3.3 7.4
v -16.5 3.3 7.3
v -16.5 3.4 7.4
v -16.5 3.4 7.3
v -16.4 2.8 7
v -16.4 2.8 6.9
v -16.4 3 7
v -16.4 3 6.9
v -16 1.2 7.2
v -16 1.2 6.6
v -16 3.1 7.2
v -16 3.1 6.6
v -17.8 1.2 7.2
v -17.8 1.2 6.6
v -17.8 3.1 7.2
v -17.8 3.1 6.6
v -17.4 2.8 7
v -17.4 2.8 6.9
v -17.4 3 7
v -17.4 3 6.9
v -17.3 3 7.1
v -17.3 3 6.8
v -17.3 3.1 7.1
v -17.3 3.1 6.8
v -17.3 3.3 7.4
v -17.3 3.3 7.3
v -17.3 3.4 7.4
v -17.3 3.4 7.3
v -17.2 3.2 7.3
v -17.2 3.2 7.2
v -17.2 3.5 7.3
v -17.2 3.5 7.2
v -16.7 4.2 6.1
v -16.7 4.2 6
v -16.7 4.2 5.7
v -16.7 4.2 5.6
v -16.7 4.6 6.1
v -16.7 4.6 6
v -16.7 4.6 5.7
v -16.7 4.6 5.6
v -16.6 4.2 6
v -16.6 4.2 5.7
v -16.6 4.6 6
v -16.6 4.6 5.7
v -16.3 2.8 7
v -16.3 2.8 6.9
v -16.3 3 7
v -16.3 3 6.9
v -16.3 3.3 7.4
v -16.3 3.3 7.3
v -16.3 3.4 7.4
v -16.3 3.4 7.3
v -16.2 3 7.1
v -16.2 3 6.8
v -16.2 3.1 7.1
v -16.2 3.1 6.8
v -16.2 3.2 7.3
v -16.2 3.2 7.2
v -16.2 3.5 7.3
v -16.2 3.5 7.2
v -15.9 4.6 6.9
v -15.9 4.6 4.9
v -15.9 4.7 7
v -15.9 4.7 6.9
v -15.9 4.7 4.9
v -15.9 4.7 4.8
v -15.9 6.4 7
v -15.9 6.4 6.9
v -15.9 6.4 4.9
v -15.9 6.4 4.8
v -15.9 7.9 7
v -15.9 7.9 6.9
v -15.9 7.9 4.9
v -15.9 7.9 4.8
v -15.9 8 6.9
v -15.9 8 4.9
v -15.8 4.7 6.9
v -15.8 4.7 4.9
v -15.8 6.4 6.9
v -15.8 6.4 4.9
v -15.8 7.9 6.9
v -15.8 7.9 4.9
v -15.7 0 7.1
v -15.7 0 4.7
v -15.7 0.1 7.2
v -15.7 0.1 7.1
v -15.7 0.1 4.7
v -15.7 0.1 4.6
v -15.7 4.1 7.2
v -15.7 4.1 7.1
v -15.7 4.1 4.7
v -15.7 4.1 4.6
v -15.7 4.2 7.1
v -15.7 4.2 4.7
v -15.6 0.1 7.1
v -15.6 0.1 4.7
v -15.6 4.1 7.1
v -15.6 4.1 4.7
v -17.5 3.3 7.4
v -17.5 3.4 7.4
v -17.3 3.3 7.4
v -17.3 3.4 7.4
v -16.5 3.3 7.4
v -16.5 3.4 7.4
v -16.3 3.3 7.4
v -16.3 3.4 7.4
v -17.6 3.2 7.3
v -17.6 3.5 7.3
v -17.5 3.3 7.3
v -17.5 3.4 7.3
v -17.3 3.3 7.3
v -17.3 3.4 7.3
v -17.2 3.2 7.3
v -17.2 3.5 7.3
v -16.6 3.2 7.3
v -16.6 3.5 7.3
v -16.5 3.3 7.3
v -16.5 3.4 7.3
v -16.3 3.3 7.3
v -16.3 3.4 7.3
v -16.2 3.2 7.3
v -16.2 3.5 7.3
v -18.1 0.1 7.2
v -18.1 4.1 7.2
v -17.8 1.2 7.2
v -17.8 3.1 7.2
v -17.6 3.2 7.2
v -17.6 3.5 7.2
v -17.2 3.2 7.2
v -17.2 3.5 7.2
v -16.6 3.2 7.2
v -16.6 3.5 7.2
v -16.2 3.2 7.2
v -16.2 3.5 7.2
v -16 1.2 7.2
v -16 3.1 7.2
v -15.7 0.1 7.2
v -15.7 4.1 7.2
v -18.2 0.1 7.1
v -18.2 4.1 7.1
v -18.1 0 7.1
v -18.1 0.1 7.1
v -18.1 4.1 7.1
v -18.1 4.2 7.1
v -17.6 3 7.1
v -17.6 3.1 7.1
v -17.3 3 7.1
v -17.3 3.1 7.1
v -16.5 3 7.1
v -16.5 3.1 7.1
v -16.2 3 7.1
v -16.2 3.1 7.1
v -15.7 0 7.1
v -15.7 0.1 7.1
v -15.7 4.1 7.1
v -15.7 4.2 7.1
v -15.6 0.1 7.1
v -15.6 4.1 7.1
v -17.9 4.7 7
v -17.9 6.4 7
v -17.9 7.9 7
v -17.5 2.8 7
v -17.5 3 7
v -17.4 2.8 7
v -17.4 3 7
v -16.4 2.8 7
v -16.4 3 7
v -16.3 2.8 7
v -16.3 3 7
v -15.9 4.7 7
v -15.9 6.4 7
v -15.9 7.9 7
v -18 4.7 6.9
v -18 6.4 6.9
v -18 7.9 6.9
v -17.9 4.6 6.9
v -17.9 4.7 6.9
v -17.9 6.4 6.9
v -17.9 7.9 6.9
v -17.9 8 6.9
v -15.9 4.6 6.9
v -15.9 4.7 6.9
v -15.9 6.4 6.9
v -15.9 7.9 6.9
v -15.9 8 6.9
v -15.8 4.7 6.9
v -15.8 6.4 6.9
v -15.8 7.9 6.9
v -17.8 1.2 6.6
v -17.8 3.1 6.6
v -16 1.2 6.6
v -16 3.1 6.6
v -17.1 4.2 6.1
v -17.1 4.6 6.1
v -16.7 4.2 6.1
v -16.7 4.6 6.1
v -17.2 4.2 6
v -17.2 4.6 6
v -17.1 4.2 6
v -17.1 4.6 6
v -16.7 4.2 6
v -16.7 4.6 6
v -16.6 4.2 6
v -16.6 4.6 6
v -17.5 2.8 6.9
v -17.5 3 6.9
v -17.4 2.8 6.9
v -17.4 3 6.9
v -16.4 2.8 6.9
v -16.4 3 6.9
v -16.3 2.8 6.9
v -16.3 3 6.9
v -17.6 3 6.8
v -17.6 3.1 6.8
v -17.3 3 6.8
v -17.3 3.1 6.8
v -16.5 3 6.8
v -16.5 3.1 6.8
v -16.2 3 6.8
v -16.2 3.1 6.8
v -16.7 4.2 5.7
v -16.7 4.6 5.7
v -16.6 4.2 5.7
v -16.6 4.6 5.7
v -17.2 4.2 5.6
v -17.2 4.6 5.6
v -16.7 4.2 5.6
v -16.7 4.6 5.6
v -18 4.7 4.9
v -18 6.4 4.9
v -18 7.9 4.9
v -17.9 4.6 4.9
v -17.9 4.7 4.9
v -17.9 6.4 4.9
v -17.9 7.9 4.9
v -17.9 8 4.9
v -15.9 4.6 4.9
v -15.9 4.7 4.9
v -15.9 6.4 4.9
v -15.9 7.9 4.9
v -15.9 8 4.9
v -15.8 4.7 4.9
v -15.8 6.4 4.9
v -15.8 7.9 4.9
v -17.9 4.7 4.8
v -17.9 6.4 4.8
v -17.9 7.9 4.8
v -15.9 4.7 4.8
v -15.9 6.4 4.8
v -15.9 7.9 4.8
v -18.2 0.1 4.7
v -18.2 4.1 4.7
v -18.1 0 4.7
v -18.1 0.1 4.7
v -18.1 4.1 4.7
v -18.1 4.2 4.7
v -15.7 0 4.7
v -15.7 0.1 4.7
v -15.7 4.1 4.7
v -15.7 4.2 4.7
v -15.6 0.1 4.7
v -15.6 4.1 4.7
v -18.1 0.1 4.6
v -18.1 4.1 4.6
v -15.7 0.1 4.6
v -15.7 4.1 4.6
v -18.1 0 7.1
v -15.7 0 7.1
v -18.1 0 4.7
v -15.7 0 4.7
v -18.1 0.1 7.2
v -15.7 0.1 7.2
v -18.2 0.1 7.1
v -18.1 0.1 7.1
v -15.7 0.1 7.1
v -15.6 0.1 7.1
v -18.2 0.1 4.7
v -18.1 0.1 4.7
v -15.7 0.1 4.7
v -15.6 0.1 4.7
v -18.1 0.1 4.6
v -15.7 0.1 4.6
v -17.5 2.8 7
v -17.4 2.8 7
v -16.4 2.8 7
v -16.3 2.8 7
v -17.5 2.8 6.9
v -17.4 2.8 6.9
v -16.4 2.8 6.9
v -16.3 2.8 6.9
v -17.6 3 7.1
v -17.3 3 7.1
v -16.5 3 7.1
v -16.2 3 7.1
v -17.5 3 7
v -17.4 3 7
v -16.4 3 7
v -16.3 3 7
v -17.5 3 6.9
v -17.4 3 6.9
v -16.4 3 6.9
v -16.3 3 6.9
v -17.6 3 6.8
v -17.3 3 6.8
v -16.5 3 6.8
v -16.2 3 6.8
v -17.8 3.1 7.2
v -16 3.1 7.2
v -17.6 3.1 7.1
v -17.3 3.1 7.1
v -16.5 3.1 7.1
v -16.2 3.1 7.1
v -17.6 3.1 6.8
v -17.3 3.1 6.8
v -16.5 3.1 6.8
v -16.2 3.1 6.8
v -17.8 3.1 6.6
v -16 3.1 6.6
v -17.6 3.2 7.3
v -17.2 3.2 7.3
v -16.6 3.2 7.3
v -16.2 3.2 7.3
v -17.6 3.2 7.2
v -17.2 3.2 7.2
v -16.6 3.2 7.2
v -16.2 3.2 7.2
v -17.5 3.3 7.4
v -17.3 3.3 7.4
v -16.5 3.3 7.4
v -16.3 3.3 7.4
v -17.5 3.3 7.3
v -17.3 3.3 7.3
v -16.5 3.3 7.3
v -16.3 3.3 7.3
v -17.9 4.6 6.9
v -15.9 4.6 6.9
v -17.1 4.6 6.1
v -16.7 4.6 6.1
v -17.2 4.6 6
v -17.1 4.6 6
v -16.7 4.6 6
v -16.6 4.6 6
v -16.7 4.6 5.7
v -16.6 4.6 5.7
v -17.2 4.6 5.6
v -16.7 4.6 5.6
v -17.9 4.6 4.9
v -15.9 4.6 4.9
v -17.9 4.7 7
v -15.9 4.7 7
v -18 4.7 6.9
v -17.9 4.7 6.9
v -15.9 4.7 6.9
v -15.8 4.7 6.9
v -18 4.7 4.9
v -17.9 4.7 4.9
v -15.9 4.7 4.9
v -15.8 4.7 4.9
v -17.9 4.7 4.8
v -15.9 4.7 4.8
v -17.8 1.2 7.2
v -16 1.2 7.2
v -17.8 1.2 6.6
v -16 1.2 6.6
v -17.5 3.4 7.4
v -17.3 3.4 7.4
v -16.5 3.4 7.4
v -16.3 3.4 7.4
v -17.5 3.4 7.3
v -17.3 3.4 7.3
v -16.5 3.4 7.3
v -16.3 3.4 7.3
v -17.6 3.5 7.3
v -17.2 3.5 7.3
v -16.6 3.5 7.3
v -16.2 3.5 7.3
v -17.6 3.5 7.2
v -17.2 3.5 7.2
v -16.6 3.5 7.2
v -16.2 3.5 7.2
v -18.1 4.1 7.2
v -15.7 4.1 7.2
v -18.2 4.1 7.1
v -18.1 4.1 7.1
v -15.7 4.1 7.1
v -15.6 4.1 7.1
v -18.2 4.1 4.7
v -18.1 4.1 4.7
v -15.7 4.1 4.7
v -15.6 4.1 4.7
v -18.1 4.1 4.6
v -15.7 4.1 4.6
v -18.1 4.2 7.1
v -15.7 4.2 7.1
v -17.1 4.2 6.1
v -16.7 4.2 6.1
v -17.2 4.2 6
v -17.1 4.2 6
v -16.7 4.2 6
v -16.6 4.2 6
v -16.7 4.2 5.7
v -16.6 4.2 5.7
v -17.2 4.2 5.6
v -16.7 4.2 5.6
v -18.1 4.2 4.7
v -15.7 4.2 4.7
v -17.9 7.9 7
v -15.9 7.9 7
v -18 7.9 6.9
v -17.9 7.9 6.9
v -15.9 7.9 6.9
v -15.8 7.9 6.9
v -18 7.9 4.9
v -17.9 7.9 4.9
v -15.9 7.9 4.9
v -15.8 7.9 4.9
v -17.9 7.9 4.8
v -15.9 7.9 4.8
v -17.9 8 6.9
v -15.9 8 6.9
v -17.9 8 4.9
v -15.9 8 4.9

# faces
f 3/4/1 2/4/1 1/4/1
f 4/4/1 2/4/1 3/4/1
f 8/4/1 6/4/1 5/4/1
f 9/4/1 6/4/1 8/4/1
f 11/4/1 8/4/1 7/4/1
f 12/4/1 8/4/1 11/4/1
f 13/4/1 10/4/1 9/4/1
f 14/4/1 10/4/1 13/4/1
f 15/4/1 13/4/1 12/4/1
f 16/4/1 13/4/1 15/4/1
f 19/3/1 18/3/1 17/3/1
f 20/3/1 18/3/1 19/3/1
f 21/2/1 20/2/1 19/2/1
f 22/2/1 20/2/1 21/2/1
f 26/3/1 24/3/1 23/3/1
f 27/3/1 24/3/1 26/3/1
f 29/3/1 26/3/1 25/3/1
f 30/3/1 26/3/1 29/3/1
f 31/3/1 28/3/1 27/3/1
f 32/3/1 28/3/1 31/3/1
f 33/2/1 30/2/1 29/2/1
f 34/2/1 30/2/1 33/2/1
f 35/2/1 32/2/1 31/2/1
f 36/2/1 32/2/1 35/2/1
f 37/2/1 35/2/1 34/2/1
f 38/2/1 35/2/1 37/2/1
f 41/5/1 40/5/1 39/5/1
f 42/5/1 40/5/1 41/5/1
f 45/5/1 44/5/1 43/5/1
f 46/5/1 44/5/1 45/5/1
f 49/5/1 48/5/1 47/5/1
f 50/5/1 48/5/1 49/5/1
f 53/1/1 52/1/1 51/1/1
f 54/1/1 52/1/1 53/1/1
f 57/3/1 56/3/1 55/3/1
f 58/3/1 56/3/1 57/3/1
f 61/3/1 60/3/1 59/3/1
f 62/3/1 60/3/1 61/3/1
f 65/5/1 64/5/1 63/5/1
f 66/5/1 64/5/1 65/5/1
f 69/5/1 68/5/1 67/5/1
f 70/5/1 68/5/1 69/5/1
f 73/3/1 72/3/1 71/3/1
f 74/3/1 72/3/1 73/3/1
f 77/5/1 76/5/1 75/5/1
f 78/5/1 76/5/1 77/5/1
f 81/4/1 80/4/1 79/4/1
f 82/4/1 80/4/1 81/4/1
f 83/4/2 84/4/2 85/4/2
f 85/4/2 84/4/2 86/4/2
f 87/5/2 88/5/2 89/5/2
f 89/5/2 88/5/2 90/5/2
f 91/5/2 92/5/2 93/5/2
f 93/5/2 92/5/2 94/5/2
f 95/1/2 96/1/2 97/1/2
f 97/1/2 96/1/2 98/1/2
f 99/5/2 100/5/2 101/5/2
f 101/5/2 100/5/2 102/5/2
f 103/3/2 104/3/2 107/3/2
f 107/3/2 104/3/2 108/3/2
f 105/3/2 106/3/2 109/3/2
f 109/3/2 106/3/2 110/3/2
f 111/3/2 112/3/2 113/3/2
f 113/3/2 112/3/2 114/3/2
f 115/5/2 116/5/2 117/5/2
f 117/5/2 116/5/2 118/5/2
f 119/3/2 120/3/2 121/3/2
f 121/3/2 120/3/2 122/3/2
f 123/5/2 124/5/2 125/5/2
f 125/5/2 124/5/2 126/5/2
f 127/5/2 128/5/2 129/5/2
f 129/5/2 128/5/2 130/5/2
f 131/3/2 132/3/2 134/3/2
f 134/3/2 132/3/2 135/3/2
f 133/3/2 134/3/2 137/3/2
f 137/3/2 134/3/2 138/3/2
f 135/3/2 136/3/2 139/3/2
f 139/3/2 136/3/2 140/3/2
f 137/2/2 138/2/2 141/2/2
f 141/2/2 138/2/2 142/2/2
f 139/2/2 140/2/2 143/2/2
f 143/2/2 140/2/2 144/2/2
f 142/2/2 143/2/2 145/2/2
f 145/2/2 143/2/2 146/2/2
f 147/3/2 148/3/2 149/3/2
f 149/3/2 148/3/2 150/3/2
f 149/2/2 150/2/2 151/2/2
f 151/2/2 150/2/2 152/2/2
f 153/4/2 154/4/2 156/4/2
f 156/4/2 154/4/2 157/4/2
f 155/4/2 156/4/2 159/4/2
f 159/4/2 156/4/2 160/4/2
f 157/4/2 158/4/2 161/4/2
f 161/4/2 158/4/2 162/4/2
f 160/4/2 161/4/2 163/4/2
f 163/4/2 161/4/2 164/4/2
f 165/4/2 166/4/2 167/4/2
f 167/4/2 166/4/2 168/4/2
f 171/1/3 170/1/3 169/1/3
f 172/1/3 170/1/3 171/1/3
f 175/3/3 174/3/3 173/3/3
f 176/3/3 174/3/3 175/3/3
f 179/5/3 178/5/3 177/5/3
f 180/5/3 178/5/3 179/5/3
f 181/5/3 179/5/3 177/5/3
f 182/5/3 178/5/3 180/5/3
f 183/5/3 181/5/3 177/5/3
f 183/5/3 182/5/3 181/5/3
f 184/5/3 178/5/3 182/5/3
f 184/5/3 182/5/3 183/5/3
f 187/5/3 186/5/3 185/5/3
f 188/5/3 186/5/3 187/5/3
f 189/5/3 187/5/3 185/5/3
f 190/5/3 186/5/3 188/5/3
f 191/5/3 189/5/3 185/5/3
f 191/5/3 190/5/3 189/5/3
f 192/5/3 186/5/3 190/5/3
f 192/5/3 190/5/3 191/5/3
f 195/4/3 194/4/3 193/4/3
f 196/4/3 194/4/3 195/4/3
f 197/4/3 194/4/3 196/4/3
f 198/4/3 194/4/3 197/4/3
f 199/4/3 197/4/3 196/4/3
f 200/4/3 194/4/3 198/4/3
f 201/4/3 199/4/3 196/4/3
f 201/4/3 200/4/3 199/4/3
f 202/4/3 194/4/3 200/4/3
f 202/4/3 200/4/3 201/4/3
f 203/4/3 201/4/3 196/4/3
f 204/4/3 194/4/3 202/4/3
f 205/4/3 195/4/3 193/4/3
f 206/4/3 204/4/3 203/4/3
f 206/4/3 203/4/3 196/4/3
f 207/4/3 205/4/3 193/4/3
f 207/4/3 206/4/3 205/4/3
f 208/4/3 204/4/3 206/4/3
f 208/4/3 206/4/3 207/4/3
f 208/4/3 194/4/3 204/4/3
f 212/4/3 210/4/3 209/4/3
f 213/4/3 210/4/3 212/4/3
f 217/5/3 216/5/3 215/5/3
f 218/5/3 216/5/3 217/5/3
f 221/5/3 220/5/3 219/5/3
f 222/5/3 220/5/3 221/5/3
f 223/4/3 212/4/3 211/4/3
f 224/4/3 212/4/3 223/4/3
f 225/4/3 214/4/3 213/4/3
f 226/4/3 214/4/3 225/4/3
f 227/4/3 225/4/3 224/4/3
f 228/4/3 225/4/3 227/4/3
f 234/5/3 233/5/3 232/5/3
f 235/5/3 233/5/3 234/5/3
f 238/5/3 237/5/3 236/5/3
f 239/5/3 237/5/3 238/5/3
f 240/3/3 230/3/3 229/3/3
f 241/2/3 231/2/3 230/2/3
f 241/3/3 230/3/3 240/3/3
f 242/2/3 231/2/3 241/2/3
f 247/3/3 244/3/3 243/3/3
f 248/2/3 245/2/3 244/2/3
f 248/3/3 244/3/3 247/3/3
f 249/2/3 245/2/3 248/2/3
f 251/3/3 247/3/3 246/3/3
f 252/3/3 247/3/3 251/3/3
f 254/2/3 250/2/3 249/2/3
f 255/2/3 250/2/3 254/2/3
f 256/3/3 253/3/3 252/3/3
f 257/2/3 254/2/3 253/2/3
f 257/3/3 253/3/3 256/3/3
f 258/2/3 254/2/3 257/2/3
f 261/4/3 260/4/3 259/4/3
f 262/4/3 260/4/3 261/4/3
f 265/3/3 264/3/3 263/3/3
f 266/3/3 264/3/3 265/3/3
f 269/3/3 268/3/3 267/3/3
f 270/3/3 268/3/3 269/3/3
f 273/3/3 272/3/3 271/3/3
f 274/3/3 272/3/3 273/3/3
f 275/5/4 276/5/4 277/5/4
f 277/5/4 276/5/4 278/5/4
f 279/5/4 280/5/4 281/5/4
f 281/5/4 280/5/4 282/5/4
f 283/5/4 284/5/4 285/5/4
f 285/5/4 284/5/4 286/5/4
f 287/5/4 288/5/4 289/5/4
f 289/5/4 288/5/4 290/5/4
f 291/3/4 292/3/4 293/3/4
f 293/3/4 292/3/4 294/3/4
f 295/3/4 296/3/4 297/3/4
f 297/3/4 296/3/4 298/3/4
f 299/3/4 300/3/4 303/3/4
f 300/2/4 301/2/4 304/2/4
f 303/3/4 300/3/4 304/3/4
f 304/2/4 301/2/4 305/2/4
f 302/3/4 303/3/4 307/3/4
f 307/3/4 303/3/4 308/3/4
f 305/2/4 306/2/4 310/2/4
f 310/2/4 306/2/4 311/2/4
f 308/3/4 309/3/4 312/3/4
f 309/2/4 310/2/4 313/2/4
f 312/3/4 309/3/4 313/3/4
f 313/2/4 310/2/4 314/2/4
f 315/3/4 316/3/4 318/3/4
f 316/2/4 317/2/4 319/2/4
f 318/3/4 316/3/4 319/3/4
f 319/2/4 317/2/4 320/2/4
f 321/4/4 322/4/4 324/4/4
f 324/4/4 322/4/4 325/4/4
f 323/4/4 324/4/4 327/4/4
f 327/4/4 324/4/4 328/4/4
f 325/4/4 326/4/4 329/4/4
f 329/4/4 326/4/4 330/4/4
f 328/4/4 329/4/4 331/4/4
f 331/4/4 329/4/4 332/4/4
f 333/4/4 334/4/4 335/4/4
f 335/4/4 334/4/4 336/4/4
f 339/4/5 338/4/5 337/4/5
f 340/4/5 338/4/5 339/4/5
f 344/4/5 342/4/5 341/4/5
f 345/4/5 342/4/5 344/4/5
f 347/4/5 344/4/5 343/4/5
f 348/4/5 344/4/5 347/4/5
f 349/4/5 346/4/5 345/4/5
f 350/4/5 346/4/5 349/4/5
f 351/4/5 349/4/5 348/4/5
f 352/4/5 349/4/5 351/4/5
f 357/5/5 354/5/5 353/5/5
f 358/5/5 354/5/5 357/5/5
f 359/5/5 356/5/5 355/5/5
f 360/5/5 356/5/5 359/5/5
f 365/5/5 362/5/5 361/5/5
f 366/5/5 362/5/5 365/5/5
f 367/5/5 364/5/5 363/5/5
f 368/5/5 364/5/5 367/5/5
f 369/5/5 365/5/5 361/5/5
f 370/5/5 362/5/5 366/5/5
f 371/5/5 367/5/5 363/5/5
f 372/5/5 364/5/5 368/5/5
f 373/5/5 369/5/5 361/5/5
f 373/5/5 370/5/5 369/5/5
f 374/5/5 362/5/5 370/5/5
f 374/5/5 370/5/5 373/5/5
f 375/5/5 372/5/5 371/5/5
f 375/5/5 371/5/5 363/5/5
f 376/5/5 364/5/5 372/5/5
f 376/5/5 372/5/5 375/5/5
f 379/4/5 378/4/5 377/4/5
f 380/4/5 378/4/5 379/4/5
f 381/4/5 378/4/5 380/4/5
f 382/4/5 378/4/5 381/4/5
f 383/4/5 379/4/5 377/4/5
f 384/4/5 381/4/5 380/4/5
f 385/4/5 381/4/5 384/4/5
f 386/4/5 378/4/5 382/4/5
f 387/4/5 385/4/5 384/4/5
f 387/4/5 386/4/5 385/4/5
f 387/4/5 383/4/5 377/4/5
f 387/4/5 384/4/5 383/4/5
f 388/4/5 378/4/5 386/4/5
f 388/4/5 386/4/5 387/4/5
f 393/5/5 390/5/5 389/5/5
f 394/5/5 390/5/5 393/5/5
f 395/5/5 392/5/5 391/5/5
f 396/5/5 392/5/5 395/5/5
f 401/1/5 398/1/5 397/1/5
f 402/1/5 398/1/5 401/1/5
f 403/3/5 400/3/5 399/3/5
f 404/3/5 400/3/5 403/3/5
f 407/3/5 406/3/5 405/3/5
f 408/3/5 406/3/5 407/3/5
f 409/3/5 407/3/5 405/3/5
f 410/3/5 407/3/5 409/3/5
f 411/3/5 406/3/5 408/3/5
f 412/3/5 406/3/5 411/3/5
f 414/3/5 406/3/5 412/3/5
f 415/3/5 409/3/5 405/3/5
f 416/3/5 414/3/5 413/3/5
f 417/3/5 415/3/5 405/3/5
f 417/3/5 416/3/5 415/3/5
f 418/3/5 414/3/5 416/3/5
f 418/3/5 416/3/5 417/3/5
f 418/3/5 406/3/5 414/3/5
f 422/3/5 420/3/5 419/3/5
f 423/3/5 420/3/5 422/3/5
f 425/3/5 422/3/5 421/3/5
f 426/3/5 422/3/5 425/3/5
f 427/3/5 424/3/5 423/3/5
f 428/3/5 424/3/5 427/3/5
f 429/3/5 427/3/5 426/3/5
f 430/3/5 427/3/5 429/3/5
f 431/4/6 432/4/6 433/4/6
f 433/4/6 432/4/6 434/4/6
f 435/1/6 436/1/6 439/1/6
f 439/1/6 436/1/6 440/1/6
f 437/3/6 438/3/6 441/3/6
f 441/3/6 438/3/6 442/3/6
f 443/5/6 444/5/6 447/5/6
f 447/5/6 444/5/6 448/5/6
f 445/5/6 446/5/6 449/5/6
f 449/5/6 446/5/6 450/5/6
f 451/4/6 452/4/6 454/4/6
f 454/4/6 452/4/6 455/4/6
f 453/4/6 454/4/6 457/4/6
f 457/4/6 454/4/6 458/4/6
f 455/4/6 456/4/6 459/4/6
f 459/4/6 456/4/6 460/4/6
f 458/4/6 459/4/6 461/4/6
f 461/4/6 459/4/6 462/4/6
f 463/4/6 464/4/6 465/4/6
f 465/4/6 464/4/6 466/4/6
f 463/4/6 465/4/6 467/4/6
f 467/4/6 465/4/6 468/4/6
f 466/4/6 464/4/6 469/4/6
f 469/4/6 464/4/6 470/4/6
f 470/4/6 464/4/6 472/4/6
f 463/4/6 467/4/6 473/4/6
f 471/4/6 472/4/6 474/4/6
f 463/4/6 473/4/6 475/4/6
f 473/4/6 474/4/6 475/4/6
f 474/4/6 472/4/6 476/4/6
f 475/4/6 474/4/6 476/4/6
f 472/4/6 464/4/6 476/4/6
f 477/2/6 478/2/6 480/2/6
f 480/2/6 478/2/6 481/2/6
f 479/2/6 480/2/6 483/2/6
f 483/2/6 480/2/6 484/2/6
f 481/2/6 482/2/6 485/2/6
f 485/2/6 482/2/6 486/2/6
f 484/2/6 485/2/6 487/2/6
f 487/2/6 485/2/6 488/2/6
f 489/2/6 490/2/6 491/2/6
f 491/2/6 490/2/6 492/2/6
