# MagicaVoxel @ Ephtracy

# group
o book

# material
mtllib SchoolPack-68-book.mtl
usemtl palette

# normals
vn -1 0 0
vn 1 0 0
vn 0 0 1
vn 0 0 -1
vn 0 -1 0
vn 0 1 0

# texcoords
vt 0.0175781 0.5
vt 0.373047 0.5
vt 0.869141 0.5
vt 0.900391 0.5
vt 0.958984 0.5

# verts
v 6.8 0.3 -2.9
v 6.8 0.3 -3.7
v 6.8 0.6 -2.9
v 6.8 0.6 -3.7
v 6.8 1.4 -2.9
v 6.8 1.4 -3.7
v 6.8 1.7 -2.9
v 6.8 1.7 -3.7
v 6.9 0 -3
v 6.9 0 -3.6
v 6.9 0.3 -3
v 6.9 0.3 -3.6
v 6.9 0.6 -3
v 6.9 0.6 -3.6
v 6.9 1.4 -3
v 6.9 1.4 -3.6
v 6.9 1.7 -3
v 6.9 1.7 -3.6
v 6.9 2 -3
v 6.9 2 -3.6
v 7 0.3 -2.9
v 7 0.3 -3
v 7 0.3 -3.6
v 7 0.3 -3.7
v 7 0.6 -2.9
v 7 0.6 -3
v 7 0.6 -3.6
v 7 0.6 -3.7
v 7 1.4 -2.9
v 7 1.4 -3
v 7 1.4 -3.6
v 7 1.4 -3.7
v 7 1.7 -2.9
v 7 1.7 -3
v 7 1.7 -3.6
v 7 1.7 -3.7
v 8.8 0 -3
v 8.8 0 -3.1
v 8.8 0 -3.5
v 8.8 0 -3.6
v 8.8 2 -3
v 8.8 2 -3.1
v 8.8 2 -3.5
v 8.8 2 -3.6
v 6.8 0.3 -2.9
v 6.8 0.6 -2.9
v 6.8 1.4 -2.9
v 6.8 1.7 -2.9
v 7 0.3 -2.9
v 7 0.6 -2.9
v 7 1.4 -2.9
v 7 1.7 -2.9
v 6.9 0 -3
v 6.9 0.3 -3
v 6.9 0.6 -3
v 6.9 1.4 -3
v 6.9 1.7 -3
v 6.9 2 -3
v 7 0.3 -3
v 7 0.6 -3
v 7 1.4 -3
v 7 1.7 -3
v 8.8 0 -3
v 8.8 2 -3
v 6.9 0 -3.6
v 6.9 0.3 -3.6
v 6.9 0.6 -3.6
v 6.9 1.4 -3.6
v 6.9 1.7 -3.6
v 6.9 2 -3.6
v 7 0.3 -3.6
v 7 0.6 -3.6
v 7 1.4 -3.6
v 7 1.7 -3.6
v 7 1.9 -3.6
v 7.1 1.6 -3.6
v 7.1 1.7 -3.6
v 7.2 1.5 -3.6
v 7.2 1.6 -3.6
v 7.2 1.8 -3.6
v 7.2 1.9 -3.6
v 7.3 1.4 -3.6
v 7.3 1.5 -3.6
v 7.3 1.7 -3.6
v 7.3 1.8 -3.6
v 7.4 1.3 -3.6
v 7.4 1.4 -3.6
v 7.4 1.6 -3.6
v 7.4 1.7 -3.6
v 7.5 1.2 -3.6
v 7.5 1.3 -3.6
v 7.5 1.5 -3.6
v 7.5 1.6 -3.6
v 7.6 1.1 -3.6
v 7.6 1.2 -3.6
v 7.6 1.4 -3.6
v 7.6 1.5 -3.6
v 7.7 1 -3.6
v 7.7 1.1 -3.6
v 7.7 1.3 -3.6
v 7.7 1.4 -3.6
v 7.8 0.5 -3.6
v 7.8 0.7 -3.6
v 7.8 0.9 -3.6
v 7.8 1 -3.6
v 7.8 1.2 -3.6
v 7.8 1.3 -3.6
v 7.9 0.7 -3.6
v 7.9 0.9 -3.6
v 7.9 1.1 -3.6
v 7.9 1.2 -3.6
v 8 0.5 -3.6
v 8 0.6 -3.6
v 8 1 -3.6
v 8 1.1 -3.6
v 8.2 0.5 -3.6
v 8.2 0.6 -3.6
v 8.2 1 -3.6
v 8.2 1.1 -3.6
v 8.3 0.4 -3.6
v 8.3 0.5 -3.6
v 8.3 0.7 -3.6
v 8.3 0.9 -3.6
v 8.4 0.3 -3.6
v 8.4 0.4 -3.6
v 8.4 0.6 -3.6
v 8.4 0.7 -3.6
v 8.4 0.9 -3.6
v 8.4 1.1 -3.6
v 8.5 0.5 -3.6
v 8.5 0.6 -3.6
v 8.6 0.3 -3.6
v 8.6 0.5 -3.6
v 8.8 0 -3.6
v 8.8 2 -3.6
v 6.8 0.3 -3.7
v 6.8 0.6 -3.7
v 6.8 1.4 -3.7
v 6.8 1.7 -3.7
v 7 0.3 -3.7
v 7 0.6 -3.7
v 7 1.4 -3.7
v 7 1.7 -3.7
v 6.9 0 -3
v 8.8 0 -3
v 7.1 0 -3.1
v 8.8 0 -3.1
v 7.1 0 -3.5
v 8.8 0 -3.5
v 6.9 0 -3.6
v 8.8 0 -3.6
v 6.8 0.3 -2.9
v 7 0.3 -2.9
v 6.9 0.3 -3
v 7 0.3 -3
v 6.9 0.3 -3.6
v 7 0.3 -3.6
v 6.8 0.3 -3.7
v 7 0.3 -3.7
v 6.8 1.4 -2.9
v 7 1.4 -2.9
v 6.9 1.4 -3
v 7 1.4 -3
v 6.9 1.4 -3.6
v 7 1.4 -3.6
v 6.8 1.4 -3.7
v 7 1.4 -3.7
v 6.8 0.6 -2.9
v 7 0.6 -2.9
v 6.9 0.6 -3
v 7 0.6 -3
v 6.9 0.6 -3.6
v 7 0.6 -3.6
v 6.8 0.6 -3.7
v 7 0.6 -3.7
v 6.8 1.7 -2.9
v 7 1.7 -2.9
v 6.9 1.7 -3
v 7 1.7 -3
v 6.9 1.7 -3.6
v 7 1.7 -3.6
v 6.8 1.7 -3.7
v 7 1.7 -3.7
v 6.9 2 -3
v 8.8 2 -3
v 7.1 2 -3.1
v 8.8 2 -3.1
v 7.1 2 -3.5
v 8.8 2 -3.5
v 6.9 2 -3.6
v 8.8 2 -3.6

# faces
f 3/1/1 2/1/1 1/1/1
f 4/1/1 2/1/1 3/1/1
f 7/1/1 6/1/1 5/1/1
f 8/1/1 6/1/1 7/1/1
f 11/4/1 10/4/1 9/4/1
f 12/4/1 10/4/1 11/4/1
f 15/4/1 14/4/1 13/4/1
f 16/4/1 14/4/1 15/4/1
f 19/4/1 18/4/1 17/4/1
f 20/4/1 18/4/1 19/4/1
f 21/1/2 22/1/2 25/1/2
f 25/1/2 22/1/2 26/1/2
f 23/1/2 24/1/2 27/1/2
f 27/1/2 24/1/2 28/1/2
f 29/1/2 30/1/2 33/1/2
f 33/1/2 30/1/2 34/1/2
f 31/1/2 32/1/2 35/1/2
f 35/1/2 32/1/2 36/1/2
f 37/4/2 38/4/2 41/4/2
f 38/5/2 39/5/2 42/5/2
f 41/4/2 38/4/2 42/4/2
f 39/4/2 40/4/2 43/4/2
f 42/5/2 39/5/2 43/5/2
f 43/4/2 40/4/2 44/4/2
f 49/1/3 46/1/3 45/1/3
f 50/1/3 46/1/3 49/1/3
f 51/1/3 48/1/3 47/1/3
f 52/1/3 48/1/3 51/1/3
f 59/4/3 54/4/3 53/4/3
f 60/4/3 56/4/3 55/4/3
f 61/4/3 56/4/3 60/4/3
f 62/4/3 58/4/3 57/4/3
f 63/4/3 61/4/3 60/4/3
f 63/4/3 62/4/3 61/4/3
f 63/4/3 59/4/3 53/4/3
f 63/4/3 60/4/3 59/4/3
f 64/4/3 58/4/3 62/4/3
f 64/4/3 62/4/3 63/4/3
f 65/4/4 66/4/4 71/4/4
f 67/4/4 68/4/4 72/4/4
f 72/4/4 68/4/4 73/4/4
f 69/4/4 70/4/4 74/4/4
f 74/4/4 70/4/4 75/4/4
f 72/4/4 73/4/4 76/4/4
f 71/4/4 72/4/4 76/4/4
f 73/4/4 74/4/4 76/4/4
f 74/2/4 75/2/4 77/2/4
f 76/4/4 74/4/4 77/4/4
f 71/4/4 76/4/4 78/4/4
f 76/2/4 77/2/4 79/2/4
f 78/4/4 76/4/4 79/4/4
f 77/2/4 75/2/4 80/2/4
f 79/2/4 77/2/4 80/2/4
f 75/4/4 70/4/4 81/4/4
f 80/2/4 75/2/4 81/2/4
f 71/4/4 78/4/4 82/4/4
f 79/2/4 80/2/4 83/2/4
f 82/4/4 78/4/4 83/4/4
f 78/2/4 79/2/4 83/2/4
f 83/2/4 80/2/4 84/2/4
f 80/4/4 81/4/4 85/4/4
f 84/2/4 80/2/4 85/2/4
f 71/4/4 82/4/4 86/4/4
f 83/2/4 84/2/4 87/2/4
f 86/4/4 82/4/4 87/4/4
f 82/2/4 83/2/4 87/2/4
f 87/2/4 84/2/4 88/2/4
f 84/4/4 85/4/4 89/4/4
f 88/2/4 84/2/4 89/2/4
f 71/4/4 86/4/4 90/4/4
f 87/2/4 88/2/4 91/2/4
f 90/4/4 86/4/4 91/4/4
f 86/2/4 87/2/4 91/2/4
f 91/2/4 88/2/4 92/2/4
f 88/4/4 89/4/4 93/4/4
f 92/2/4 88/2/4 93/2/4
f 71/4/4 90/4/4 94/4/4
f 91/2/4 92/2/4 95/2/4
f 94/4/4 90/4/4 95/4/4
f 90/2/4 91/2/4 95/2/4
f 95/2/4 92/2/4 96/2/4
f 92/4/4 93/4/4 97/4/4
f 96/2/4 92/2/4 97/2/4
f 71/4/4 94/4/4 98/4/4
f 95/2/4 96/2/4 99/2/4
f 98/4/4 94/4/4 99/4/4
f 94/2/4 95/2/4 99/2/4
f 99/2/4 96/2/4 100/2/4
f 96/4/4 97/4/4 101/4/4
f 100/2/4 96/2/4 101/2/4
f 71/4/4 98/4/4 102/4/4
f 102/4/4 98/4/4 103/4/4
f 103/4/4 98/4/4 104/4/4
f 99/2/4 100/2/4 105/2/4
f 104/4/4 98/4/4 105/4/4
f 98/2/4 99/2/4 105/2/4
f 105/2/4 100/2/4 106/2/4
f 100/4/4 101/4/4 107/4/4
f 106/2/4 100/2/4 107/2/4
f 103/4/4 104/4/4 108/4/4
f 102/2/4 103/2/4 108/2/4
f 105/2/4 106/2/4 109/2/4
f 108/4/4 104/4/4 109/4/4
f 104/2/4 105/2/4 109/2/4
f 109/2/4 106/2/4 110/2/4
f 106/4/4 107/4/4 111/4/4
f 110/2/4 106/2/4 111/2/4
f 109/2/4 110/2/4 112/2/4
f 102/2/4 108/2/4 112/2/4
f 71/4/4 102/4/4 112/4/4
f 108/2/4 109/2/4 112/2/4
f 112/2/4 110/2/4 113/2/4
f 113/2/4 110/2/4 114/2/4
f 110/4/4 111/4/4 115/4/4
f 114/2/4 110/2/4 115/2/4
f 71/4/4 112/4/4 116/4/4
f 112/4/4 113/4/4 116/4/4
f 113/2/4 114/2/4 117/2/4
f 116/4/4 113/4/4 117/4/4
f 114/4/4 115/4/4 118/4/4
f 117/2/4 114/2/4 118/2/4
f 115/4/4 111/4/4 119/4/4
f 118/4/4 115/4/4 119/4/4
f 71/4/4 116/4/4 120/4/4
f 117/2/4 118/2/4 121/2/4
f 120/4/4 116/4/4 121/4/4
f 116/2/4 117/2/4 121/2/4
f 118/2/4 119/2/4 121/2/4
f 121/2/4 119/2/4 122/2/4
f 122/2/4 119/2/4 123/2/4
f 65/4/4 71/4/4 124/4/4
f 71/4/4 120/4/4 124/4/4
f 120/2/4 121/2/4 125/2/4
f 124/4/4 120/4/4 125/4/4
f 121/2/4 122/2/4 125/2/4
f 125/2/4 122/2/4 126/2/4
f 122/4/4 123/4/4 127/4/4
f 126/2/4 122/2/4 127/2/4
f 123/2/4 119/2/4 128/2/4
f 127/4/4 123/4/4 128/4/4
f 119/4/4 111/4/4 129/4/4
f 128/2/4 119/2/4 129/2/4
f 125/2/4 126/2/4 130/2/4
f 124/2/4 125/2/4 130/2/4
f 126/4/4 127/4/4 131/4/4
f 130/2/4 126/2/4 131/2/4
f 127/4/4 128/4/4 131/4/4
f 128/4/4 129/4/4 131/4/4
f 124/2/4 130/2/4 132/2/4
f 65/4/4 124/4/4 132/4/4
f 130/4/4 131/4/4 133/4/4
f 132/2/4 130/2/4 133/2/4
f 65/4/4 132/4/4 134/4/4
f 132/4/4 133/4/4 134/4/4
f 85/4/4 81/4/4 135/4/4
f 134/4/4 133/4/4 135/4/4
f 131/4/4 129/4/4 135/4/4
f 129/4/4 111/4/4 135/4/4
f 133/4/4 131/4/4 135/4/4
f 111/4/4 107/4/4 135/4/4
f 107/4/4 101/4/4 135/4/4
f 101/4/4 97/4/4 135/4/4
f 97/4/4 93/4/4 135/4/4
f 93/4/4 89/4/4 135/4/4
f 81/4/4 70/4/4 135/4/4
f 89/4/4 85/4/4 135/4/4
f 136/1/4 137/1/4 140/1/4
f 140/1/4 137/1/4 141/1/4
f 138/1/4 139/1/4 142/1/4
f 142/1/4 139/1/4 143/1/4
f 146/4/5 145/4/5 144/4/5
f 147/4/5 145/4/5 146/4/5
f 148/4/5 146/4/5 144/4/5
f 148/5/5 147/5/5 146/5/5
f 149/5/5 147/5/5 148/5/5
f 150/4/5 148/4/5 144/4/5
f 150/4/5 149/4/5 148/4/5
f 151/4/5 149/4/5 150/4/5
f 154/1/5 153/1/5 152/1/5
f 155/1/5 153/1/5 154/1/5
f 156/1/5 154/1/5 152/1/5
f 158/1/5 156/1/5 152/1/5
f 158/1/5 157/1/5 156/1/5
f 159/1/5 157/1/5 158/1/5
f 162/1/5 161/1/5 160/1/5
f 163/1/5 161/1/5 162/1/5
f 164/1/5 162/1/5 160/1/5
f 166/1/5 164/1/5 160/1/5
f 166/1/5 165/1/5 164/1/5
f 167/1/5 165/1/5 166/1/5
f 168/1/6 169/1/6 170/1/6
f 170/1/6 169/1/6 171/1/6
f 168/1/6 170/1/6 172/1/6
f 168/1/6 172/1/6 174/1/6
f 172/1/6 173/1/6 174/1/6
f 174/1/6 173/1/6 175/1/6
f 176/1/6 177/1/6 178/1/6
f 178/1/6 177/1/6 179/1/6
f 176/1/6 178/1/6 180/1/6
f 176/1/6 180/1/6 182/1/6
f 180/1/6 181/1/6 182/1/6
f 182/1/6 181/1/6 183/1/6
f 184/4/6 185/4/6 186/4/6
f 186/4/6 185/4/6 187/4/6
f 184/4/6 186/4/6 188/4/6
f 186/5/6 187/5/6 188/5/6
f 188/5/6 187/5/6 189/5/6
f 184/4/6 188/4/6 190/4/6
f 188/4/6 189/4/6 190/4/6
f 190/4/6 189/4/6 191/4/6
