# MagicaVoxel @ Ephtracy

# group
o Child seat

# material
mtllib SchoolPack-75-Child seat.mtl
usemtl palette

# normals
vn 0 0 -1
vn 0 0 1
vn -1 0 0
vn 1 0 0
vn 0 -1 0
vn 0 1 0

# texcoords
vt 0.255859 0.5
vt 0.974609 0.5

# verts
v 20 1.9 3.5
v 22.2 1.9 3.5
v 20 2.1 3.5
v 22.2 2.1 3.5
v 19.9 0 3.6
v 20.1 0 3.6
v 22 0 3.6
v 22.2 0 3.6
v 20 1.8 3.6
v 20.1 1.8 3.6
v 22 1.8 3.6
v 22.2 1.8 3.6
v 20 1.9 3.6
v 22.2 1.9 3.6
v 22.3 1.9 3.6
v 20 2.1 3.6
v 22.2 2.1 3.6
v 22.3 2.1 3.6
v 20 2.2 3.6
v 20.1 2.2 3.6
v 22.1 2.2 3.6
v 22.2 2.2 3.6
v 20.1 3.6 3.6
v 22.1 3.6 3.6
v 22.2 3.6 3.6
v 23.8 3.6 3.6
v 20.1 3.8 3.6
v 23.8 3.8 3.6
v 19.9 5.2 3.6
v 20.1 5.2 3.6
v 20.1 0.6 3.7
v 22 0.6 3.7
v 20.1 0.7 3.7
v 22 0.7 3.7
v 20.1 3.9 3.8
v 20.2 3.9 3.8
v 20.1 5.1 3.8
v 20.2 5.1 3.8
v 21.1 0.6 5.6
v 21.5 0.6 5.6
v 21.1 0.7 5.6
v 21.5 0.7 5.6
v 19.9 0 5.7
v 20 0 5.7
v 22.1 0 5.7
v 22.2 0 5.7
v 20 0.6 5.7
v 20.2 0.6 5.7
v 20.5 0.6 5.7
v 20.6 0.6 5.7
v 21 0.6 5.7
v 21.6 0.6 5.7
v 21.9 0.6 5.7
v 22.1 0.6 5.7
v 20 0.7 5.7
v 20.2 0.7 5.7
v 20.5 0.7 5.7
v 20.6 0.7 5.7
v 21 0.7 5.7
v 21.6 0.7 5.7
v 21.9 0.7 5.7
v 22.1 0.7 5.7
v 19.9 1.8 5.7
v 20 1.8 5.7
v 22.1 1.8 5.7
v 22.2 1.8 5.7
v 19.9 2.2 5.7
v 20.1 2.2 5.7
v 19.9 3.8 5.7
v 20.1 3.8 5.7
v 20 0 5.8
v 20.1 0 5.8
v 22 0 5.8
v 22.1 0 5.8
v 20 0.6 5.8
v 20.1 0.6 5.8
v 22 0.6 5.8
v 22.1 0.6 5.8
v 20 0.7 5.8
v 20.1 0.7 5.8
v 22 0.7 5.8
v 22.1 0.7 5.8
v 20 1.8 5.8
v 20.1 1.8 5.8
v 22 1.8 5.8
v 22.1 1.8 5.8
v 20 0 3.7
v 20.1 0 3.7
v 22 0 3.7
v 22.1 0 3.7
v 20 0.6 3.7
v 20.1 0.6 3.7
v 22 0.6 3.7
v 22.1 0.6 3.7
v 20 0.7 3.7
v 20.1 0.7 3.7
v 22 0.7 3.7
v 22.1 0.7 3.7
v 20 1.8 3.7
v 20.1 1.8 3.7
v 22 1.8 3.7
v 22.1 1.8 3.7
v 22.1 2.2 3.7
v 22.2 2.2 3.7
v 22.1 3.6 3.7
v 22.2 3.6 3.7
v 19.9 0 3.8
v 20 0 3.8
v 22.1 0 3.8
v 22.2 0 3.8
v 20 0.6 3.8
v 22.1 0.6 3.8
v 20 0.7 3.8
v 22.1 0.7 3.8
v 19.9 1.8 3.8
v 20 1.8 3.8
v 22.1 1.8 3.8
v 22.2 1.8 3.8
v 19.9 2.2 3.8
v 20.1 2.2 3.8
v 20.1 3.6 3.8
v 19.9 3.8 3.8
v 20.1 3.8 3.8
v 20.2 0.6 3.9
v 20.5 0.6 3.9
v 20.6 0.6 3.9
v 21 0.6 3.9
v 21.1 0.6 3.9
v 21.5 0.6 3.9
v 21.6 0.6 3.9
v 21.9 0.6 3.9
v 20.2 0.7 3.9
v 20.5 0.7 3.9
v 20.6 0.7 3.9
v 21 0.7 3.9
v 21.1 0.7 3.9
v 21.5 0.7 3.9
v 21.6 0.7 3.9
v 21.9 0.7 3.9
v 20.1 3.6 3.9
v 21.3 3.6 3.9
v 20.1 3.8 3.9
v 21.3 3.8 3.9
v 21.3 3.6 4
v 21.4 3.6 4
v 21.3 3.8 4
v 21.4 3.8 4
v 21.4 3.6 4.1
v 21.6 3.6 4.1
v 21.4 3.8 4.1
v 21.6 3.8 4.1
v 21.6 3.6 4.2
v 21.8 3.6 4.2
v 21.6 3.8 4.2
v 21.8 3.8 4.2
v 21.8 3.6 4.3
v 21.9 3.6 4.3
v 21.8 3.8 4.3
v 21.9 3.8 4.3
v 21.9 3.6 4.4
v 22 3.6 4.4
v 21.9 3.8 4.4
v 22 3.8 4.4
v 20.1 3.9 5.7
v 20.2 3.9 5.7
v 20.1 5.1 5.7
v 20.2 5.1 5.7
v 20.1 0.6 5.8
v 22 0.6 5.8
v 20.1 0.7 5.8
v 22 0.7 5.8
v 22 3.6 5.8
v 22.1 3.6 5.8
v 23.7 3.6 5.8
v 23.8 3.6 5.8
v 22 3.8 5.8
v 22.1 3.8 5.8
v 23.7 3.8 5.8
v 23.8 3.8 5.8
v 19.9 0 5.9
v 20.1 0 5.9
v 22 0 5.9
v 22.2 0 5.9
v 20 1.8 5.9
v 20.1 1.8 5.9
v 22 1.8 5.9
v 22.1 1.8 5.9
v 22.2 1.8 5.9
v 22.1 1.9 5.9
v 22.2 1.9 5.9
v 22.3 1.9 5.9
v 20 2.1 5.9
v 20.1 2.1 5.9
v 22.2 2.1 5.9
v 22.3 2.1 5.9
v 20.1 2.2 5.9
v 22.2 2.2 5.9
v 22.1 3.6 5.9
v 23.7 3.6 5.9
v 22.1 3.8 5.9
v 23.7 3.8 5.9
v 19.9 5.2 5.9
v 20.1 5.2 5.9
v 20 1.8 6
v 22.1 1.8 6
v 22.1 1.9 6
v 22.2 1.9 6
v 20 2.1 6
v 22.2 2.1 6
v 19.9 0 3.6
v 19.9 5.2 3.6
v 19.9 0 3.8
v 19.9 1.8 3.8
v 19.9 2.2 3.8
v 19.9 3.8 3.8
v 19.9 5.2 3.8
v 19.9 0 5.7
v 19.9 1.8 5.7
v 19.9 2.2 5.7
v 19.9 3.8 5.7
v 19.9 5.2 5.7
v 19.9 0 5.9
v 19.9 5.2 5.9
v 20 1.9 3.5
v 20 2.1 3.5
v 20 1.9 3.6
v 20 2.1 3.6
v 20 0.6 3.8
v 20 0.7 3.8
v 20 0.6 5.7
v 20 0.7 5.7
v 20 1.8 5.9
v 20 2.1 5.9
v 20 1.8 6
v 20 2.1 6
v 20.1 3.6 3.8
v 20.1 3.8 3.8
v 20.1 3.6 3.9
v 20.1 3.8 3.9
v 20.5 0.6 3.9
v 20.5 0.7 3.9
v 20.5 0.6 5.7
v 20.5 0.7 5.7
v 21 0.6 3.9
v 21 0.7 3.9
v 21 0.6 5.7
v 21 0.7 5.7
v 21.3 3.6 3.9
v 21.3 3.8 3.9
v 21.3 3.6 4
v 21.3 3.8 4
v 21.4 3.6 4
v 21.4 3.8 4
v 21.4 3.6 4.1
v 21.4 3.8 4.1
v 21.5 0.6 3.9
v 21.5 0.7 3.9
v 21.5 0.6 5.6
v 21.5 0.7 5.6
v 21.6 3.6 4.1
v 21.6 3.8 4.1
v 21.6 3.6 4.2
v 21.6 3.8 4.2
v 21.8 3.6 4.2
v 21.8 3.8 4.2
v 21.8 3.6 4.3
v 21.8 3.8 4.3
v 21.9 0.6 3.9
v 21.9 0.7 3.9
v 21.9 3.6 4.3
v 21.9 3.8 4.3
v 21.9 3.6 4.4
v 21.9 3.8 4.4
v 21.9 0.6 5.7
v 21.9 0.7 5.7
v 22 0 3.6
v 22 1.8 3.6
v 22 0 3.7
v 22 0.6 3.7
v 22 0.7 3.7
v 22 1.8 3.7
v 22 3.6 4.4
v 22 3.8 4.4
v 22 0 5.8
v 22 0.6 5.8
v 22 0.7 5.8
v 22 1.8 5.8
v 22 3.6 5.8
v 22 3.8 5.8
v 22 0 5.9
v 22 1.8 5.9
v 22.1 2.2 3.6
v 22.1 3.6 3.6
v 22.1 0 3.7
v 22.1 0.6 3.7
v 22.1 0.7 3.7
v 22.1 1.8 3.7
v 22.1 2.2 3.7
v 22.1 3.6 3.7
v 22.1 0 3.8
v 22.1 0.6 3.8
v 22.1 0.7 3.8
v 22.1 1.8 3.8
v 22.1 0 5.7
v 22.1 0.6 5.7
v 22.1 0.7 5.7
v 22.1 1.8 5.7
v 22.1 0 5.8
v 22.1 0.6 5.8
v 22.1 0.7 5.8
v 22.1 1.8 5.8
v 22.1 3.6 5.8
v 22.1 3.8 5.8
v 22.1 3.6 5.9
v 22.1 3.8 5.9
v 20 0 3.7
v 20 0.6 3.7
v 20 0.7 3.7
v 20 1.8 3.7
v 20 0 3.8
v 20 0.6 3.8
v 20 0.7 3.8
v 20 1.8 3.8
v 20 0 5.7
v 20 0.6 5.7
v 20 0.7 5.7
v 20 1.8 5.7
v 20 0 5.8
v 20 0.6 5.8
v 20 0.7 5.8
v 20 1.8 5.8
v 20.1 0 3.6
v 20.1 1.8 3.6
v 20.1 2.2 3.6
v 20.1 3.6 3.6
v 20.1 3.8 3.6
v 20.1 5.2 3.6
v 20.1 0 3.7
v 20.1 0.6 3.7
v 20.1 0.7 3.7
v 20.1 1.8 3.7
v 20.1 3.8 3.7
v 20.1 2.2 3.8
v 20.1 3.6 3.8
v 20.1 3.8 3.8
v 20.1 3.9 3.8
v 20.1 5.1 3.8
v 20.1 5.2 3.8
v 20.1 3.8 3.9
v 20.1 2.2 5.7
v 20.1 3.8 5.7
v 20.1 3.9 5.7
v 20.1 5.1 5.7
v 20.1 5.2 5.7
v 20.1 0 5.8
v 20.1 0.6 5.8
v 20.1 0.7 5.8
v 20.1 1.8 5.8
v 20.1 0 5.9
v 20.1 1.8 5.9
v 20.1 2.2 5.9
v 20.1 5.2 5.9
v 20.2 3.9 3.8
v 20.2 5.1 3.8
v 20.2 0.6 3.9
v 20.2 0.7 3.9
v 20.2 0.6 5.7
v 20.2 0.7 5.7
v 20.2 3.9 5.7
v 20.2 5.1 5.7
v 20.6 0.6 3.9
v 20.6 0.7 3.9
v 20.6 0.6 5.7
v 20.6 0.7 5.7
v 21.1 0.6 3.9
v 21.1 0.7 3.9
v 21.1 0.6 5.6
v 21.1 0.7 5.6
v 21.6 0.6 3.9
v 21.6 0.7 3.9
v 21.6 0.6 5.7
v 21.6 0.7 5.7
v 22.1 0.6 3.8
v 22.1 0.7 3.8
v 22.1 0.6 5.7
v 22.1 0.7 5.7
v 22.1 1.8 5.9
v 22.1 1.9 5.9
v 22.1 1.8 6
v 22.1 1.9 6
v 22.2 1.9 3.5
v 22.2 2.1 3.5
v 22.2 0 3.6
v 22.2 1.8 3.6
v 22.2 1.9 3.6
v 22.2 2.1 3.6
v 22.2 2.2 3.6
v 22.2 3.6 3.6
v 22.2 2.2 3.7
v 22.2 3.6 3.7
v 22.2 0 3.8
v 22.2 1.8 3.8
v 22.2 0 5.7
v 22.2 1.8 5.7
v 22.2 0 5.9
v 22.2 1.8 5.9
v 22.2 1.9 5.9
v 22.2 2.1 5.9
v 22.2 2.2 5.9
v 22.2 1.9 6
v 22.2 2.1 6
v 22.3 1.9 3.6
v 22.3 2.1 3.6
v 22.3 1.9 5.9
v 22.3 2.1 5.9
v 23.7 3.6 5.8
v 23.7 3.8 5.8
v 23.7 3.6 5.9
v 23.7 3.8 5.9
v 23.8 3.6 3.6
v 23.8 3.8 3.6
v 23.8 3.6 5.8
v 23.8 3.8 5.8
v 19.9 0 3.6
v 19.9 0 3.8
v 19.9 0 5.7
v 19.9 0 5.9
v 20 0 3.7
v 20 0 3.8
v 20 0 5.7
v 20 0 5.8
v 20.1 0 3.6
v 20.1 0 3.7
v 20.1 0 5.8
v 20.1 0 5.9
v 22 0 3.6
v 22 0 3.7
v 22 0 5.8
v 22 0 5.9
v 22.1 0 3.7
v 22.1 0 3.8
v 22.1 0 5.7
v 22.1 0 5.8
v 22.2 0 3.6
v 22.2 0 3.8
v 22.2 0 5.7
v 22.2 0 5.9
v 20 0.6 3.7
v 20 0.6 3.8
v 20 0.6 5.7
v 20 0.6 5.8
v 20.1 0.6 3.7
v 20.1 0.6 5.8
v 20.2 0.6 3.9
v 20.2 0.6 5.7
v 20.5 0.6 3.9
v 20.5 0.6 5.7
v 20.6 0.6 3.9
v 20.6 0.6 5.7
v 21 0.6 3.9
v 21 0.6 5.7
v 21.1 0.6 3.9
v 21.1 0.6 5.6
v 21.5 0.6 3.9
v 21.5 0.6 5.6
v 21.6 0.6 3.9
v 21.6 0.6 5.7
v 21.9 0.6 3.9
v 21.9 0.6 5.7
v 22 0.6 3.7
v 22 0.6 5.8
v 22.1 0.6 3.7
v 22.1 0.6 3.8
v 22.1 0.6 5.7
v 22.1 0.6 5.8
v 19.9 1.8 3.8
v 19.9 1.8 5.7
v 20 1.8 3.7
v 20 1.8 3.8
v 20 1.8 5.7
v 20 1.8 5.8
v 20 1.8 5.9
v 20 1.8 6
v 20.1 1.8 3.6
v 20.1 1.8 3.7
v 20.1 1.8 5.8
v 20.1 1.8 5.9
v 22 1.8 3.6
v 22 1.8 3.7
v 22 1.8 5.8
v 22 1.8 5.9
v 22.1 1.8 3.7
v 22.1 1.8 3.8
v 22.1 1.8 5.7
v 22.1 1.8 5.8
v 22.1 1.8 5.9
v 22.1 1.8 6
v 22.2 1.8 3.8
v 22.2 1.8 5.7
v 20 1.9 3.5
v 20 1.9 3.6
v 22.1 1.9 5.9
v 22.1 1.9 6
v 22.2 1.9 3.5
v 22.2 1.9 3.6
v 22.2 1.9 5.9
v 22.2 1.9 6
v 22.3 1.9 3.6
v 22.3 1.9 5.9
v 20.1 3.6 3.6
v 20.1 3.6 3.8
v 20.1 3.6 3.9
v 21.3 3.6 3.9
v 21.3 3.6 4
v 21.4 3.6 4
v 21.4 3.6 4.1
v 21.6 3.6 4.1
v 21.6 3.6 4.2
v 21.8 3.6 4.2
v 21.8 3.6 4.3
v 21.9 3.6 4.3
v 21.9 3.6 4.4
v 22 3.6 4.4
v 22 3.6 5.8
v 22.1 3.6 3.6
v 22.1 3.6 3.7
v 22.1 3.6 5.8
v 22.1 3.6 5.9
v 22.2 3.6 3.6
v 22.2 3.6 3.7
v 23.7 3.6 5.8
v 23.7 3.6 5.9
v 23.8 3.6 3.6
v 23.8 3.6 5.8
v 19.9 3.8 3.8
v 19.9 3.8 5.7
v 20.1 3.8 3.8
v 20.1 3.8 3.9
v 20.1 3.8 5.7
v 20.1 3.9 3.8
v 20.1 3.9 5.7
v 20.2 3.9 3.8
v 20.2 3.9 5.7
v 20 0.7 3.7
v 20 0.7 3.8
v 20 0.7 5.7
v 20 0.7 5.8
v 20.1 0.7 3.7
v 20.1 0.7 5.8
v 20.2 0.7 3.9
v 20.2 0.7 5.7
v 20.5 0.7 3.9
v 20.5 0.7 5.7
v 20.6 0.7 3.9
v 20.6 0.7 5.7
v 21 0.7 3.9
v 21 0.7 5.7
v 21.1 0.7 3.9
v 21.1 0.7 5.6
v 21.5 0.7 3.9
v 21.5 0.7 5.6
v 21.6 0.7 3.9
v 21.6 0.7 5.7
v 21.9 0.7 3.9
v 21.9 0.7 5.7
v 22 0.7 3.7
v 22 0.7 5.8
v 22.1 0.7 3.7
v 22.1 0.7 3.8
v 22.1 0.7 5.7
v 22.1 0.7 5.8
v 20 2.1 3.5
v 20 2.1 3.6
v 20 2.1 5.9
v 20 2.1 6
v 20.1 2.1 5.9
v 22.2 2.1 3.5
v 22.2 2.1 3.6
v 22.2 2.1 5.9
v 22.2 2.1 6
v 22.3 2.1 3.6
v 22.3 2.1 5.9
v 19.9 2.2 3.8
v 19.9 2.2 5.7
v 20.1 2.2 3.6
v 20.1 2.2 3.8
v 20.1 2.2 5.7
v 20.1 2.2 5.9
v 22.1 2.2 3.6
v 22.1 2.2 3.7
v 22.2 2.2 3.7
v 22.2 2.2 5.9
v 20.1 3.8 3.6
v 20.1 3.8 3.7
v 20.1 3.8 3.8
v 20.1 3.8 3.9
v 20.2 3.8 3.7
v 20.2 3.8 3.8
v 21.3 3.8 3.9
v 21.3 3.8 4
v 21.4 3.8 4
v 21.4 3.8 4.1
v 21.6 3.8 4.1
v 21.6 3.8 4.2
v 21.8 3.8 4.2
v 21.8 3.8 4.3
v 21.9 3.8 4.3
v 21.9 3.8 4.4
v 22 3.8 4.4
v 22 3.8 5.8
v 22.1 3.8 5.8
v 22.1 3.8 5.9
v 23.7 3.8 5.8
v 23.7 3.8 5.9
v 23.8 3.8 3.6
v 23.8 3.8 5.8
v 20.1 5.1 3.8
v 20.1 5.1 5.7
v 20.2 5.1 3.8
v 20.2 5.1 5.7
v 19.9 5.2 3.6
v 19.9 5.2 3.8
v 19.9 5.2 5.7
v 19.9 5.2 5.9
v 20.1 5.2 3.6
v 20.1 5.2 3.8
v 20.1 5.2 5.7
v 20.1 5.2 5.9

# faces
f 3/1/1 2/1/1 1/1/1
f 4/1/1 2/1/1 3/1/1
f 9/2/1 6/2/1 5/2/1
f 10/2/1 6/2/1 9/2/1
f 11/2/1 8/2/1 7/2/1
f 12/2/1 8/2/1 11/2/1
f 13/1/1 10/1/1 9/1/1
f 13/2/1 9/2/1 5/2/1
f 13/1/1 12/1/1 11/1/1
f 13/1/1 11/1/1 10/1/1
f 14/1/1 12/1/1 13/1/1
f 16/2/1 13/2/1 5/2/1
f 17/1/1 15/1/1 14/1/1
f 18/1/1 15/1/1 17/1/1
f 19/2/1 16/2/1 5/2/1
f 19/1/1 17/1/1 16/1/1
f 20/1/1 17/1/1 19/1/1
f 21/1/1 17/1/1 20/1/1
f 22/1/1 17/1/1 21/1/1
f 23/2/1 20/2/1 19/2/1
f 24/2/1 22/2/1 21/2/1
f 25/2/1 22/2/1 24/2/1
f 27/1/1 25/1/1 24/1/1
f 27/1/1 26/1/1 25/1/1
f 27/1/1 24/1/1 23/1/1
f 27/2/1 23/2/1 19/2/1
f 28/1/1 26/1/1 27/1/1
f 29/2/1 19/2/1 5/2/1
f 29/2/1 27/2/1 19/2/1
f 30/2/1 27/2/1 29/2/1
f 33/2/1 32/2/1 31/2/1
f 34/2/1 32/2/1 33/2/1
f 37/1/1 36/1/1 35/1/1
f 38/1/1 36/1/1 37/1/1
f 41/2/1 40/2/1 39/2/1
f 42/2/1 40/2/1 41/2/1
f 47/2/1 44/2/1 43/2/1
f 54/2/1 46/2/1 45/2/1
f 55/2/1 47/2/1 43/2/1
f 56/2/1 49/2/1 48/2/1
f 57/2/1 49/2/1 56/2/1
f 58/2/1 51/2/1 50/2/1
f 59/2/1 51/2/1 58/2/1
f 60/2/1 53/2/1 52/2/1
f 61/2/1 53/2/1 60/2/1
f 62/2/1 46/2/1 54/2/1
f 63/2/1 55/2/1 43/2/1
f 64/2/1 55/2/1 63/2/1
f 65/2/1 46/2/1 62/2/1
f 66/2/1 46/2/1 65/2/1
f 69/2/1 68/2/1 67/2/1
f 70/2/1 68/2/1 69/2/1
f 75/2/1 72/2/1 71/2/1
f 76/2/1 72/2/1 75/2/1
f 77/2/1 74/2/1 73/2/1
f 78/2/1 74/2/1 77/2/1
f 83/2/1 80/2/1 79/2/1
f 84/2/1 80/2/1 83/2/1
f 85/2/1 82/2/1 81/2/1
f 86/2/1 82/2/1 85/2/1
f 87/2/2 88/2/2 91/2/2
f 91/2/2 88/2/2 92/2/2
f 89/2/2 90/2/2 93/2/2
f 93/2/2 90/2/2 94/2/2
f 95/2/2 96/2/2 99/2/2
f 99/2/2 96/2/2 100/2/2
f 97/2/2 98/2/2 101/2/2
f 101/2/2 98/2/2 102/2/2
f 103/2/2 104/2/2 105/2/2
f 105/2/2 104/2/2 106/2/2
f 107/2/2 108/2/2 111/2/2
f 109/2/2 110/2/2 112/2/2
f 107/2/2 111/2/2 113/2/2
f 112/2/2 110/2/2 114/2/2
f 107/2/2 113/2/2 115/2/2
f 115/2/2 113/2/2 116/2/2
f 114/2/2 110/2/2 117/2/2
f 117/2/2 110/2/2 118/2/2
f 119/2/2 120/2/2 121/2/2
f 119/2/2 121/2/2 122/2/2
f 122/2/2 121/2/2 123/2/2
f 124/2/2 125/2/2 132/2/2
f 132/2/2 125/2/2 133/2/2
f 126/2/2 127/2/2 134/2/2
f 134/2/2 127/2/2 135/2/2
f 128/2/2 129/2/2 136/2/2
f 136/2/2 129/2/2 137/2/2
f 130/2/2 131/2/2 138/2/2
f 138/2/2 131/2/2 139/2/2
f 140/1/2 141/1/2 142/1/2
f 142/1/2 141/1/2 143/1/2
f 144/1/2 145/1/2 146/1/2
f 146/1/2 145/1/2 147/1/2
f 148/1/2 149/1/2 150/1/2
f 150/1/2 149/1/2 151/1/2
f 152/1/2 153/1/2 154/1/2
f 154/1/2 153/1/2 155/1/2
f 156/1/2 157/1/2 158/1/2
f 158/1/2 157/1/2 159/1/2
f 160/1/2 161/1/2 162/1/2
f 162/1/2 161/1/2 163/1/2
f 164/1/2 165/1/2 166/1/2
f 166/1/2 165/1/2 167/1/2
f 168/2/2 169/2/2 170/2/2
f 170/2/2 169/2/2 171/2/2
f 172/1/2 173/1/2 176/1/2
f 176/1/2 173/1/2 177/1/2
f 174/1/2 175/1/2 178/1/2
f 178/1/2 175/1/2 179/1/2
f 180/2/2 181/2/2 184/2/2
f 184/2/2 181/2/2 185/2/2
f 182/2/2 183/2/2 186/2/2
f 186/2/2 183/2/2 187/2/2
f 187/2/2 183/2/2 188/2/2
f 187/1/2 188/1/2 189/1/2
f 189/1/2 188/1/2 190/1/2
f 180/2/2 184/2/2 192/2/2
f 190/1/2 191/1/2 194/1/2
f 194/1/2 191/1/2 195/1/2
f 192/2/2 193/2/2 196/2/2
f 193/1/2 194/1/2 196/1/2
f 196/1/2 194/1/2 197/1/2
f 198/1/2 199/1/2 200/1/2
f 200/1/2 199/1/2 201/1/2
f 192/2/2 196/2/2 202/2/2
f 180/2/2 192/2/2 202/2/2
f 202/2/2 196/2/2 203/2/2
f 204/1/2 205/1/2 206/1/2
f 204/1/2 206/1/2 208/1/2
f 206/1/2 207/1/2 208/1/2
f 208/1/2 207/1/2 209/1/2
f 212/2/3 211/2/3 210/2/3
f 213/2/3 211/2/3 212/2/3
f 214/2/3 211/2/3 213/2/3
f 215/2/3 211/2/3 214/2/3
f 216/2/3 211/2/3 215/2/3
f 218/1/3 214/1/3 213/1/3
f 219/1/3 214/1/3 218/1/3
f 220/1/3 216/1/3 215/1/3
f 221/1/3 216/1/3 220/1/3
f 222/2/3 219/2/3 218/2/3
f 222/2/3 218/2/3 217/2/3
f 222/2/3 221/2/3 220/2/3
f 222/2/3 220/2/3 219/2/3
f 223/2/3 221/2/3 222/2/3
f 226/1/3 225/1/3 224/1/3
f 227/1/3 225/1/3 226/1/3
f 230/2/3 229/2/3 228/2/3
f 231/2/3 229/2/3 230/2/3
f 234/1/3 233/1/3 232/1/3
f 235/1/3 233/1/3 234/1/3
f 238/1/3 237/1/3 236/1/3
f 239/1/3 237/1/3 238/1/3
f 242/2/3 241/2/3 240/2/3
f 243/2/3 241/2/3 242/2/3
f 246/2/3 245/2/3 244/2/3
f 247/2/3 245/2/3 246/2/3
f 250/1/3 249/1/3 248/1/3
f 251/1/3 249/1/3 250/1/3
f 254/1/3 253/1/3 252/1/3
f 255/1/3 253/1/3 254/1/3
f 258/2/3 257/2/3 256/2/3
f 259/2/3 257/2/3 258/2/3
f 262/1/3 261/1/3 260/1/3
f 263/1/3 261/1/3 262/1/3
f 266/1/3 265/1/3 264/1/3
f 267/1/3 265/1/3 266/1/3
f 272/1/3 271/1/3 270/1/3
f 273/1/3 271/1/3 272/1/3
f 274/2/3 269/2/3 268/2/3
f 275/2/3 269/2/3 274/2/3
f 278/2/3 277/2/3 276/2/3
f 279/2/3 277/2/3 278/2/3
f 280/2/3 277/2/3 279/2/3
f 281/2/3 277/2/3 280/2/3
f 288/1/3 283/1/3 282/1/3
f 289/1/3 283/1/3 288/1/3
f 290/2/3 287/2/3 286/2/3
f 290/2/3 285/2/3 284/2/3
f 290/2/3 286/2/3 285/2/3
f 291/2/3 287/2/3 290/2/3
f 298/2/3 293/2/3 292/2/3
f 299/2/3 293/2/3 298/2/3
f 300/2/3 295/2/3 294/2/3
f 301/2/3 295/2/3 300/2/3
f 302/2/3 297/2/3 296/2/3
f 303/2/3 297/2/3 302/2/3
f 308/2/3 305/2/3 304/2/3
f 309/2/3 305/2/3 308/2/3
f 310/2/3 307/2/3 306/2/3
f 311/2/3 307/2/3 310/2/3
f 314/1/3 313/1/3 312/1/3
f 315/1/3 313/1/3 314/1/3
f 316/2/4 317/2/4 320/2/4
f 320/2/4 317/2/4 321/2/4
f 318/2/4 319/2/4 322/2/4
f 322/2/4 319/2/4 323/2/4
f 324/2/4 325/2/4 328/2/4
f 328/2/4 325/2/4 329/2/4
f 326/2/4 327/2/4 330/2/4
f 330/2/4 327/2/4 331/2/4
f 332/2/4 333/2/4 338/2/4
f 338/2/4 333/2/4 339/2/4
f 339/2/4 333/2/4 340/2/4
f 340/2/4 333/2/4 341/2/4
f 336/2/4 337/2/4 342/2/4
f 334/2/4 335/2/4 343/2/4
f 343/2/4 335/2/4 344/2/4
f 342/2/4 337/2/4 345/2/4
f 345/2/4 337/2/4 346/2/4
f 346/2/4 337/2/4 347/2/4
f 347/2/4 337/2/4 348/2/4
f 345/1/4 346/1/4 349/1/4
f 349/1/4 346/1/4 351/1/4
f 351/1/4 346/1/4 352/1/4
f 347/1/4 348/1/4 353/1/4
f 353/1/4 348/1/4 354/1/4
f 355/2/4 356/2/4 359/2/4
f 357/2/4 358/2/4 359/2/4
f 356/2/4 357/2/4 359/2/4
f 359/2/4 358/2/4 360/2/4
f 351/2/4 352/2/4 361/2/4
f 350/2/4 351/2/4 361/2/4
f 352/2/4 353/2/4 361/2/4
f 353/2/4 354/2/4 361/2/4
f 361/2/4 354/2/4 362/2/4
f 365/2/4 366/2/4 367/2/4
f 367/2/4 366/2/4 368/2/4
f 363/1/4 364/1/4 369/1/4
f 369/1/4 364/1/4 370/1/4
f 371/2/4 372/2/4 373/2/4
f 373/2/4 372/2/4 374/2/4
f 375/2/4 376/2/4 377/2/4
f 377/2/4 376/2/4 378/2/4
f 379/2/4 380/2/4 381/2/4
f 381/2/4 380/2/4 382/2/4
f 383/2/4 384/2/4 385/2/4
f 385/2/4 384/2/4 386/2/4
f 387/1/4 388/1/4 389/1/4
f 389/1/4 388/1/4 390/1/4
f 391/1/4 392/1/4 395/1/4
f 395/1/4 392/1/4 396/1/4
f 397/2/4 398/2/4 399/2/4
f 396/1/4 397/1/4 399/1/4
f 399/2/4 398/2/4 400/2/4
f 393/2/4 394/2/4 401/2/4
f 394/1/4 395/1/4 402/1/4
f 401/2/4 394/2/4 402/2/4
f 402/1/4 395/1/4 404/1/4
f 403/2/4 404/2/4 405/2/4
f 404/1/4 395/1/4 406/1/4
f 405/2/4 404/2/4 406/2/4
f 406/1/4 395/1/4 407/1/4
f 396/1/4 399/1/4 408/1/4
f 408/1/4 399/1/4 409/1/4
f 407/1/4 408/1/4 410/1/4
f 410/1/4 408/1/4 411/1/4
f 412/1/4 413/1/4 414/1/4
f 414/1/4 413/1/4 415/1/4
f 416/1/4 417/1/4 418/1/4
f 418/1/4 417/1/4 419/1/4
f 420/1/4 421/1/4 422/1/4
f 422/1/4 421/1/4 423/1/4
f 428/2/5 425/2/5 424/2/5
f 429/2/5 425/2/5 428/2/5
f 430/2/5 427/2/5 426/2/5
f 431/2/5 427/2/5 430/2/5
f 432/2/5 428/2/5 424/2/5
f 433/2/5 428/2/5 432/2/5
f 434/2/5 427/2/5 431/2/5
f 435/2/5 427/2/5 434/2/5
f 440/2/5 437/2/5 436/2/5
f 443/2/5 439/2/5 438/2/5
f 444/2/5 441/2/5 440/2/5
f 444/2/5 440/2/5 436/2/5
f 445/2/5 441/2/5 444/2/5
f 446/2/5 443/2/5 442/2/5
f 447/2/5 439/2/5 443/2/5
f 447/2/5 443/2/5 446/2/5
f 452/2/5 449/2/5 448/2/5
f 452/2/5 451/2/5 450/2/5
f 452/2/5 450/2/5 449/2/5
f 453/2/5 451/2/5 452/2/5
f 454/2/5 453/2/5 452/2/5
f 455/2/5 453/2/5 454/2/5
f 456/2/5 454/2/5 452/2/5
f 457/2/5 453/2/5 455/2/5
f 458/2/5 456/2/5 452/2/5
f 458/2/5 457/2/5 456/2/5
f 459/2/5 453/2/5 457/2/5
f 459/2/5 457/2/5 458/2/5
f 460/2/5 458/2/5 452/2/5
f 461/2/5 453/2/5 459/2/5
f 462/2/5 460/2/5 452/2/5
f 462/2/5 461/2/5 460/2/5
f 463/2/5 461/2/5 462/2/5
f 464/2/5 462/2/5 452/2/5
f 465/2/5 461/2/5 463/2/5
f 466/2/5 464/2/5 452/2/5
f 466/2/5 465/2/5 464/2/5
f 467/2/5 453/2/5 461/2/5
f 467/2/5 465/2/5 466/2/5
f 467/2/5 461/2/5 465/2/5
f 468/2/5 466/2/5 452/2/5
f 469/2/5 453/2/5 467/2/5
f 470/2/5 468/2/5 452/2/5
f 470/2/5 469/2/5 468/2/5
f 471/2/5 453/2/5 469/2/5
f 471/2/5 469/2/5 470/2/5
f 472/2/5 471/2/5 470/2/5
f 473/2/5 471/2/5 472/2/5
f 474/2/5 471/2/5 473/2/5
f 475/2/5 471/2/5 474/2/5
f 479/1/5 477/1/5 476/1/5
f 480/1/5 477/1/5 479/1/5
f 485/1/5 479/1/5 478/1/5
f 485/1/5 480/1/5 479/1/5
f 485/1/5 481/1/5 480/1/5
f 486/1/5 481/1/5 485/1/5
f 487/1/5 483/1/5 482/1/5
f 488/1/5 486/1/5 485/1/5
f 488/1/5 487/1/5 486/1/5
f 488/1/5 485/1/5 484/1/5
f 489/1/5 487/1/5 488/1/5
f 490/1/5 487/1/5 489/1/5
f 491/1/5 483/1/5 487/1/5
f 491/1/5 487/1/5 490/1/5
f 492/1/5 490/1/5 489/1/5
f 493/1/5 490/1/5 492/1/5
f 494/1/5 490/1/5 493/1/5
f 495/1/5 490/1/5 494/1/5
f 496/1/5 483/1/5 491/1/5
f 497/1/5 483/1/5 496/1/5
f 498/1/5 494/1/5 493/1/5
f 499/1/5 494/1/5 498/1/5
f 504/1/5 501/1/5 500/1/5
f 505/1/5 501/1/5 504/1/5
f 506/1/5 503/1/5 502/1/5
f 507/1/5 503/1/5 506/1/5
f 508/1/5 506/1/5 505/1/5
f 509/1/5 506/1/5 508/1/5
f 513/1/5 511/1/5 510/1/5
f 513/1/5 512/1/5 511/1/5
f 515/1/5 514/1/5 513/1/5
f 517/1/5 516/1/5 515/1/5
f 519/1/5 518/1/5 517/1/5
f 521/1/5 520/1/5 519/1/5
f 523/1/5 522/1/5 521/1/5
f 525/1/5 513/1/5 510/1/5
f 525/1/5 524/1/5 523/1/5
f 525/1/5 523/1/5 521/1/5
f 525/1/5 521/1/5 519/1/5
f 525/1/5 519/1/5 517/1/5
f 525/1/5 517/1/5 515/1/5
f 525/1/5 515/1/5 513/1/5
f 526/1/5 524/1/5 525/1/5
f 527/1/5 524/1/5 526/1/5
f 530/1/5 528/1/5 527/1/5
f 530/1/5 527/1/5 526/1/5
f 531/1/5 528/1/5 530/1/5
f 531/1/5 530/1/5 529/1/5
f 532/1/5 528/1/5 531/1/5
f 533/1/5 531/1/5 529/1/5
f 534/1/5 531/1/5 533/1/5
f 537/1/5 536/1/5 535/1/5
f 538/1/5 536/1/5 537/1/5
f 539/1/5 536/1/5 538/1/5
f 542/1/5 541/1/5 540/1/5
f 543/1/5 541/1/5 542/1/5
f 544/2/6 545/2/6 548/2/6
f 546/2/6 547/2/6 548/2/6
f 545/2/6 546/2/6 548/2/6
f 548/2/6 547/2/6 549/2/6
f 548/2/6 549/2/6 550/2/6
f 550/2/6 549/2/6 551/2/6
f 548/2/6 550/2/6 552/2/6
f 551/2/6 549/2/6 553/2/6
f 548/2/6 552/2/6 554/2/6
f 552/2/6 553/2/6 554/2/6
f 553/2/6 549/2/6 555/2/6
f 554/2/6 553/2/6 555/2/6
f 548/2/6 554/2/6 556/2/6
f 555/2/6 549/2/6 557/2/6
f 548/2/6 556/2/6 558/2/6
f 556/2/6 557/2/6 558/2/6
f 558/2/6 557/2/6 559/2/6
f 548/2/6 558/2/6 560/2/6
f 559/2/6 557/2/6 561/2/6
f 548/2/6 560/2/6 562/2/6
f 560/2/6 561/2/6 562/2/6
f 557/2/6 549/2/6 563/2/6
f 562/2/6 561/2/6 563/2/6
f 561/2/6 557/2/6 563/2/6
f 548/2/6 562/2/6 564/2/6
f 563/2/6 549/2/6 565/2/6
f 548/2/6 564/2/6 566/2/6
f 564/2/6 565/2/6 566/2/6
f 565/2/6 549/2/6 567/2/6
f 566/2/6 565/2/6 567/2/6
f 566/2/6 567/2/6 568/2/6
f 568/2/6 567/2/6 569/2/6
f 569/2/6 567/2/6 570/2/6
f 570/2/6 567/2/6 571/2/6
f 574/1/6 575/1/6 576/1/6
f 572/1/6 573/1/6 577/1/6
f 577/1/6 573/1/6 578/1/6
f 576/1/6 575/1/6 579/1/6
f 579/1/6 575/1/6 580/1/6
f 578/1/6 579/1/6 581/1/6
f 581/1/6 579/1/6 582/1/6
f 583/1/6 584/1/6 586/1/6
f 586/1/6 584/1/6 587/1/6
f 585/1/6 586/1/6 589/1/6
f 587/1/6 588/1/6 589/1/6
f 586/1/6 587/1/6 589/1/6
f 589/1/6 588/1/6 590/1/6
f 590/1/6 588/1/6 591/1/6
f 591/1/6 588/1/6 592/1/6
f 593/1/6 594/1/6 597/1/6
f 594/2/6 595/2/6 597/2/6
f 595/1/6 596/1/6 598/1/6
f 597/2/6 595/2/6 598/2/6
f 597/1/6 598/1/6 599/1/6
f 598/1/6 596/1/6 599/1/6
f 599/1/6 600/1/6 601/1/6
f 601/1/6 602/1/6 603/1/6
f 603/1/6 604/1/6 605/1/6
f 605/1/6 606/1/6 607/1/6
f 607/1/6 608/1/6 609/1/6
f 609/1/6 610/1/6 611/1/6
f 609/1/6 611/1/6 613/1/6
f 611/1/6 612/1/6 613/1/6
f 613/1/6 612/1/6 614/1/6
f 593/1/6 597/1/6 615/1/6
f 597/1/6 599/1/6 615/1/6
f 609/1/6 613/1/6 615/1/6
f 607/1/6 609/1/6 615/1/6
f 605/1/6 607/1/6 615/1/6
f 603/1/6 605/1/6 615/1/6
f 601/1/6 603/1/6 615/1/6
f 599/1/6 601/1/6 615/1/6
f 615/1/6 613/1/6 616/1/6
f 617/1/6 618/1/6 619/1/6
f 619/1/6 618/1/6 620/1/6
f 621/2/6 622/2/6 625/2/6
f 622/1/6 623/1/6 626/1/6
f 625/2/6 622/2/6 626/2/6
f 623/2/6 624/2/6 627/2/6
f 626/1/6 623/1/6 627/1/6
f 627/2/6 624/2/6 628/2/6
