# MagicaVoxel @ Ephtracy

# group
o Scientific laundr

# material
mtllib SchoolPack-33-Scientific laundr.mtl
usemtl palette

# normals
vn -1 0 0
vn 1 0 0
vn 0 0 1
vn 0 0 -1
vn 0 -1 0
vn 0 1 0

# texcoords
vt 0.255859 0.5
vt 0.853516 0.5
vt 0.931641 0.5
vt 0.958984 0.5
vt 0.962891 0.5
vt 0.970703 0.5
vt 0.974609 0.5
vt 0.990234 0.5

# verts
v 20.7 0 -16.8
v 20.7 0 -20.4
v 20.7 5.8 -16.8
v 20.7 5.8 -20.4
v 20.7 6 -16.8
v 20.7 6 -20.4
v 21 1 -16.7
v 21 1 -16.8
v 21 2.3 -16.7
v 21 2.3 -16.8
v 21 2.6 -16.7
v 21 2.6 -16.8
v 21 3.8 -16.7
v 21 3.8 -16.8
v 21 4.1 -16.7
v 21 4.1 -16.8
v 21 5.3 -16.7
v 21 5.3 -16.8
v 21.8 6 -19.8
v 21.8 6 -20.1
v 21.8 6.2 -19.8
v 21.8 6.2 -20.1
v 22 6.1 -19.9
v 22 6.1 -20
v 22 6.2 -19.9
v 22 6.2 -20
v 22.2 1.7 -16.6
v 22.2 1.7 -16.7
v 22.2 1.8 -16.6
v 22.2 1.8 -16.7
v 22.2 3.1 -16.6
v 22.2 3.1 -16.7
v 22.2 3.2 -16.6
v 22.2 3.2 -16.7
v 22.2 4.6 -16.6
v 22.2 4.6 -16.7
v 22.2 4.7 -16.6
v 22.2 4.7 -16.7
v 22.3 6 -19.8
v 22.3 6 -20.2
v 22.3 6.1 -19.8
v 22.3 6.1 -20.2
v 22.4 4.8 -18.4
v 22.4 4.8 -18.5
v 22.4 4.8 -18.6
v 22.4 4.8 -18.7
v 22.4 5.1 -18.4
v 22.4 5.1 -18.5
v 22.4 5.1 -18.6
v 22.4 5.1 -18.7
v 22.4 5.2 -18.4
v 22.4 5.2 -18.5
v 22.4 5.2 -18.6
v 22.4 5.2 -18.7
v 22.4 6.1 -19.9
v 22.4 6.1 -20.1
v 22.4 6.6 -19.3
v 22.4 6.6 -19.5
v 22.4 6.7 -19.5
v 22.4 6.7 -19.9
v 22.4 6.8 -20
v 22.4 6.8 -20.1
v 22.4 6.9 -19.3
v 22.4 6.9 -20
v 22.6 4.8 -18.4
v 22.6 4.8 -18.5
v 22.6 4.8 -18.6
v 22.6 4.8 -18.7
v 22.6 5.1 -18.5
v 22.6 5.1 -18.6
v 22.6 5.2 -18.4
v 22.6 5.2 -18.5
v 22.6 5.2 -18.6
v 22.6 5.2 -18.7
v 22.9 6 -19.8
v 22.9 6 -20.1
v 22.9 6.2 -19.8
v 22.9 6.2 -20.1
v 23.7 5.2 -17.6
v 23.7 5.2 -19.5
v 23.7 6 -17.6
v 23.7 6 -19.5
v 21.3 5.2 -17.6
v 21.3 5.2 -19.5
v 21.3 6 -17.6
v 21.3 6 -19.5
v 21.9 6.1 -19.9
v 21.9 6.1 -20
v 21.9 6.2 -19.9
v 21.9 6.2 -20
v 22.1 6 -19.8
v 22.1 6 -20.1
v 22.1 6.2 -19.8
v 22.1 6.2 -20.1
v 22.3 4.8 -18.4
v 22.3 4.8 -18.5
v 22.3 4.8 -18.6
v 22.3 4.8 -18.7
v 22.3 5.1 -18.5
v 22.3 5.1 -18.6
v 22.3 5.2 -18.4
v 22.3 5.2 -18.5
v 22.3 5.2 -18.6
v 22.3 5.2 -18.7
v 22.5 4.8 -18.4
v 22.5 4.8 -18.5
v 22.5 4.8 -18.6
v 22.5 4.8 -18.7
v 22.5 5.1 -18.4
v 22.5 5.1 -18.5
v 22.5 5.1 -18.6
v 22.5 5.1 -18.7
v 22.5 5.2 -18.4
v 22.5 5.2 -18.5
v 22.5 5.2 -18.6
v 22.5 5.2 -18.7
v 22.6 6.1 -19.9
v 22.6 6.1 -20.1
v 22.6 6.6 -19.3
v 22.6 6.6 -19.5
v 22.6 6.7 -19.5
v 22.6 6.7 -19.9
v 22.6 6.8 -20
v 22.6 6.8 -20.1
v 22.6 6.9 -19.3
v 22.6 6.9 -20
v 22.7 1.7 -16.6
v 22.7 1.7 -16.7
v 22.7 1.8 -16.6
v 22.7 1.8 -16.7
v 22.7 3.1 -16.6
v 22.7 3.1 -16.7
v 22.7 3.2 -16.6
v 22.7 3.2 -16.7
v 22.7 4.6 -16.6
v 22.7 4.6 -16.7
v 22.7 4.7 -16.6
v 22.7 4.7 -16.7
v 22.7 6 -19.8
v 22.7 6 -20.2
v 22.7 6.1 -19.8
v 22.7 6.1 -20.2
v 23.2 6 -19.8
v 23.2 6 -20.1
v 23.2 6.2 -19.8
v 23.2 6.2 -20.1
v 24 1 -16.7
v 24 1 -16.8
v 24 2.3 -16.7
v 24 2.3 -16.8
v 24 2.6 -16.7
v 24 2.6 -16.8
v 24 3.8 -16.7
v 24 3.8 -16.8
v 24 4.1 -16.7
v 24 4.1 -16.8
v 24 5.3 -16.7
v 24 5.3 -16.8
v 24.3 0 -16.8
v 24.3 0 -20.4
v 24.3 5.8 -16.8
v 24.3 5.8 -20.4
v 24.3 6 -16.8
v 24.3 6 -20.4
v 22.2 1.7 -16.6
v 22.2 1.8 -16.6
v 22.2 3.1 -16.6
v 22.2 3.2 -16.6
v 22.2 4.6 -16.6
v 22.2 4.7 -16.6
v 22.7 1.7 -16.6
v 22.7 1.8 -16.6
v 22.7 3.1 -16.6
v 22.7 3.2 -16.6
v 22.7 4.6 -16.6
v 22.7 4.7 -16.6
v 21 1 -16.7
v 21 2.3 -16.7
v 21 2.6 -16.7
v 21 3.8 -16.7
v 21 4.1 -16.7
v 21 5.3 -16.7
v 22.2 1.7 -16.7
v 22.2 1.8 -16.7
v 22.2 3.1 -16.7
v 22.2 3.2 -16.7
v 22.2 4.6 -16.7
v 22.2 4.7 -16.7
v 22.7 1.7 -16.7
v 22.7 1.8 -16.7
v 22.7 3.1 -16.7
v 22.7 3.2 -16.7
v 22.7 4.6 -16.7
v 22.7 4.7 -16.7
v 24 1 -16.7
v 24 2.3 -16.7
v 24 2.6 -16.7
v 24 3.8 -16.7
v 24 4.1 -16.7
v 24 5.3 -16.7
v 20.7 0 -16.8
v 20.7 5.8 -16.8
v 20.7 6 -16.8
v 21 1 -16.8
v 21 2.3 -16.8
v 21 2.6 -16.8
v 21 3.8 -16.8
v 21 4.1 -16.8
v 21 5.3 -16.8
v 24 1 -16.8
v 24 2.3 -16.8
v 24 2.6 -16.8
v 24 3.8 -16.8
v 24 4.1 -16.8
v 24 5.3 -16.8
v 24.3 0 -16.8
v 24.3 5.8 -16.8
v 24.3 6 -16.8
v 22.3 4.8 -18.5
v 22.3 5.1 -18.5
v 22.3 5.2 -18.5
v 22.4 4.8 -18.5
v 22.4 5.1 -18.5
v 22.4 5.2 -18.5
v 22.5 4.8 -18.5
v 22.5 5.1 -18.5
v 22.5 5.2 -18.5
v 22.6 4.8 -18.5
v 22.6 5.1 -18.5
v 22.6 5.2 -18.5
v 22.3 4.8 -18.7
v 22.3 5.2 -18.7
v 22.4 4.8 -18.7
v 22.4 5.1 -18.7
v 22.4 5.2 -18.7
v 22.5 4.8 -18.7
v 22.5 5.1 -18.7
v 22.5 5.2 -18.7
v 22.6 4.8 -18.7
v 22.6 5.2 -18.7
v 22.4 6.6 -19.3
v 22.4 6.9 -19.3
v 22.6 6.6 -19.3
v 22.6 6.9 -19.3
v 21.3 5.2 -19.5
v 21.3 6 -19.5
v 23.7 5.2 -19.5
v 23.7 6 -19.5
v 21.8 6 -19.8
v 21.8 6.2 -19.8
v 22.1 6 -19.8
v 22.1 6.2 -19.8
v 22.3 6 -19.8
v 22.3 6.1 -19.8
v 22.7 6 -19.8
v 22.7 6.1 -19.8
v 22.9 6 -19.8
v 22.9 6.2 -19.8
v 23.2 6 -19.8
v 23.2 6.2 -19.8
v 22.4 6.1 -19.9
v 22.4 6.7 -19.9
v 22.6 6.1 -19.9
v 22.6 6.7 -19.9
v 21.9 6.1 -20
v 21.9 6.2 -20
v 22 6.1 -20
v 22 6.2 -20
v 21.3 5.2 -17.6
v 21.3 6 -17.6
v 23.7 5.2 -17.6
v 23.7 6 -17.6
v 22.3 4.8 -18.4
v 22.3 5.2 -18.4
v 22.4 4.8 -18.4
v 22.4 5.1 -18.4
v 22.4 5.2 -18.4
v 22.5 4.8 -18.4
v 22.5 5.1 -18.4
v 22.5 5.2 -18.4
v 22.6 4.8 -18.4
v 22.6 5.2 -18.4
v 22.3 4.8 -18.6
v 22.3 5.1 -18.6
v 22.3 5.2 -18.6
v 22.4 4.8 -18.6
v 22.4 5.1 -18.6
v 22.4 5.2 -18.6
v 22.5 4.8 -18.6
v 22.5 5.1 -18.6
v 22.5 5.2 -18.6
v 22.6 4.8 -18.6
v 22.6 5.1 -18.6
v 22.6 5.2 -18.6
v 22.4 6.6 -19.5
v 22.4 6.7 -19.5
v 22.6 6.6 -19.5
v 22.6 6.7 -19.5
v 21.9 6.1 -19.9
v 21.9 6.2 -19.9
v 22 6.1 -19.9
v 22 6.2 -19.9
v 22.4 6.8 -20
v 22.4 6.9 -20
v 22.6 6.8 -20
v 22.6 6.9 -20
v 21.8 6 -20.1
v 21.8 6.2 -20.1
v 22.1 6 -20.1
v 22.1 6.2 -20.1
v 22.4 6.1 -20.1
v 22.4 6.8 -20.1
v 22.6 6.1 -20.1
v 22.6 6.8 -20.1
v 22.9 6 -20.1
v 22.9 6.2 -20.1
v 23.2 6 -20.1
v 23.2 6.2 -20.1
v 22.3 6 -20.2
v 22.3 6.1 -20.2
v 22.7 6 -20.2
v 22.7 6.1 -20.2
v 20.7 0 -20.4
v 20.7 5.8 -20.4
v 20.7 6 -20.4
v 24.3 0 -20.4
v 24.3 5.8 -20.4
v 24.3 6 -20.4
v 20.7 0 -16.8
v 24.3 0 -16.8
v 20.7 0 -20.4
v 24.3 0 -20.4
v 21 1 -16.7
v 24 1 -16.7
v 21 1 -16.8
v 24 1 -16.8
v 22.2 1.7 -16.6
v 22.7 1.7 -16.6
v 22.2 1.7 -16.7
v 22.7 1.7 -16.7
v 21 2.6 -16.7
v 24 2.6 -16.7
v 21 2.6 -16.8
v 24 2.6 -16.8
v 22.2 3.1 -16.6
v 22.7 3.1 -16.6
v 22.2 3.1 -16.7
v 22.7 3.1 -16.7
v 21 4.1 -16.7
v 24 4.1 -16.7
v 21 4.1 -16.8
v 24 4.1 -16.8
v 22.2 4.6 -16.6
v 22.7 4.6 -16.6
v 22.2 4.6 -16.7
v 22.7 4.6 -16.7
v 22.4 6.6 -19.3
v 22.6 6.6 -19.3
v 22.4 6.6 -19.5
v 22.6 6.6 -19.5
v 22.4 6.7 -19.5
v 22.6 6.7 -19.5
v 22.4 6.7 -19.9
v 22.6 6.7 -19.9
v 22.2 1.8 -16.6
v 22.7 1.8 -16.6
v 22.2 1.8 -16.7
v 22.7 1.8 -16.7
v 21 2.3 -16.7
v 24 2.3 -16.7
v 21 2.3 -16.8
v 24 2.3 -16.8
v 22.2 3.2 -16.6
v 22.7 3.2 -16.6
v 22.2 3.2 -16.7
v 22.7 3.2 -16.7
v 21 3.8 -16.7
v 24 3.8 -16.7
v 21 3.8 -16.8
v 24 3.8 -16.8
v 22.2 4.7 -16.6
v 22.7 4.7 -16.6
v 22.2 4.7 -16.7
v 22.7 4.7 -16.7
v 22.3 4.8 -18.4
v 22.4 4.8 -18.4
v 22.5 4.8 -18.4
v 22.6 4.8 -18.4
v 22.3 4.8 -18.5
v 22.4 4.8 -18.5
v 22.5 4.8 -18.5
v 22.6 4.8 -18.5
v 22.3 4.8 -18.6
v 22.4 4.8 -18.6
v 22.5 4.8 -18.6
v 22.6 4.8 -18.6
v 22.3 4.8 -18.7
v 22.4 4.8 -18.7
v 22.5 4.8 -18.7
v 22.6 4.8 -18.7
v 21.3 5.2 -17.6
v 23.7 5.2 -17.6
v 22.3 5.2 -18.4
v 22.4 5.2 -18.4
v 22.5 5.2 -18.4
v 22.6 5.2 -18.4
v 22.3 5.2 -18.5
v 22.4 5.2 -18.5
v 22.5 5.2 -18.5
v 22.6 5.2 -18.5
v 22.3 5.2 -18.6
v 22.4 5.2 -18.6
v 22.5 5.2 -18.6
v 22.6 5.2 -18.6
v 22.3 5.2 -18.7
v 22.4 5.2 -18.7
v 22.5 5.2 -18.7
v 22.6 5.2 -18.7
v 21.3 5.2 -19.5
v 23.7 5.2 -19.5
v 21 5.3 -16.7
v 24 5.3 -16.7
v 21 5.3 -16.8
v 24 5.3 -16.8
v 20.7 6 -16.8
v 24.3 6 -16.8
v 20.8 6 -16.9
v 24.2 6 -16.9
v 21.3 6 -17.6
v 23.7 6 -17.6
v 21.3 6 -19.5
v 23.7 6 -19.5
v 21.8 6 -19.8
v 22.1 6 -19.8
v 22.3 6 -19.8
v 22.7 6 -19.8
v 22.9 6 -19.8
v 23.2 6 -19.8
v 21.8 6 -20.1
v 22.1 6 -20.1
v 22.9 6 -20.1
v 23.2 6 -20.1
v 22.3 6 -20.2
v 22.7 6 -20.2
v 20.8 6 -20.3
v 24.2 6 -20.3
v 20.7 6 -20.4
v 24.3 6 -20.4
v 22.3 6.1 -19.8
v 22.7 6.1 -19.8
v 21.9 6.1 -19.9
v 22 6.1 -19.9
v 22.4 6.1 -19.9
v 22.6 6.1 -19.9
v 21.9 6.1 -20
v 22 6.1 -20
v 22.4 6.1 -20.1
v 22.6 6.1 -20.1
v 22.3 6.1 -20.2
v 22.7 6.1 -20.2
v 21.8 6.2 -19.8
v 22.1 6.2 -19.8
v 22.9 6.2 -19.8
v 23.2 6.2 -19.8
v 21.9 6.2 -19.9
v 22 6.2 -19.9
v 23 6.2 -19.9
v 23.1 6.2 -19.9
v 21.9 6.2 -20
v 22 6.2 -20
v 23 6.2 -20
v 23.1 6.2 -20
v 21.8 6.2 -20.1
v 22.1 6.2 -20.1
v 22.9 6.2 -20.1
v 23.2 6.2 -20.1
v 22.4 6.8 -20
v 22.6 6.8 -20
v 22.4 6.8 -20.1
v 22.6 6.8 -20.1
v 22.4 6.9 -19.3
v 22.6 6.9 -19.3
v 22.4 6.9 -20
v 22.6 6.9 -20

# faces
f 3/4/1 2/4/1 1/4/1
f 4/4/1 2/4/1 3/4/1
f 5/1/1 4/1/1 3/1/1
f 6/1/1 4/1/1 5/1/1
f 9/5/1 8/5/1 7/5/1
f 10/5/1 8/5/1 9/5/1
f 13/5/1 12/5/1 11/5/1
f 14/5/1 12/5/1 13/5/1
f 17/5/1 16/5/1 15/5/1
f 18/5/1 16/5/1 17/5/1
f 21/7/1 20/7/1 19/7/1
f 22/7/1 20/7/1 21/7/1
f 25/7/1 24/7/1 23/7/1
f 26/7/1 24/7/1 25/7/1
f 29/1/1 28/1/1 27/1/1
f 30/1/1 28/1/1 29/1/1
f 33/1/1 32/1/1 31/1/1
f 34/1/1 32/1/1 33/1/1
f 37/1/1 36/1/1 35/1/1
f 38/1/1 36/1/1 37/1/1
f 41/7/1 40/7/1 39/7/1
f 42/7/1 40/7/1 41/7/1
f 47/4/1 44/4/1 43/4/1
f 48/4/1 44/4/1 47/4/1
f 49/4/1 46/4/1 45/4/1
f 50/4/1 46/4/1 49/4/1
f 51/6/1 48/6/1 47/6/1
f 52/6/1 48/6/1 51/6/1
f 53/6/1 50/6/1 49/6/1
f 54/6/1 50/6/1 53/6/1
f 59/7/1 58/7/1 57/7/1
f 60/7/1 56/7/1 55/7/1
f 61/7/1 56/7/1 60/7/1
f 61/7/1 60/7/1 59/7/1
f 62/7/1 56/7/1 61/7/1
f 63/7/1 59/7/1 57/7/1
f 63/7/1 61/7/1 59/7/1
f 64/7/1 61/7/1 63/7/1
f 69/4/1 66/4/1 65/4/1
f 70/4/1 68/4/1 67/4/1
f 71/4/1 69/4/1 65/4/1
f 72/4/1 69/4/1 71/4/1
f 73/4/1 68/4/1 70/4/1
f 74/4/1 68/4/1 73/4/1
f 77/7/1 76/7/1 75/7/1
f 78/7/1 76/7/1 77/7/1
f 81/4/1 80/4/1 79/4/1
f 82/4/1 80/4/1 81/4/1
f 83/4/2 84/4/2 85/4/2
f 85/4/2 84/4/2 86/4/2
f 87/7/2 88/7/2 89/7/2
f 89/7/2 88/7/2 90/7/2
f 91/7/2 92/7/2 93/7/2
f 93/7/2 92/7/2 94/7/2
f 95/4/2 96/4/2 99/4/2
f 97/4/2 98/4/2 100/4/2
f 95/4/2 99/4/2 101/4/2
f 101/4/2 99/4/2 102/4/2
f 100/4/2 98/4/2 103/4/2
f 103/4/2 98/4/2 104/4/2
f 105/4/2 106/4/2 109/4/2
f 109/4/2 106/4/2 110/4/2
f 107/4/2 108/4/2 111/4/2
f 111/4/2 108/4/2 112/4/2
f 109/6/2 110/6/2 113/6/2
f 113/6/2 110/6/2 114/6/2
f 111/6/2 112/6/2 115/6/2
f 115/6/2 112/6/2 116/6/2
f 119/7/2 120/7/2 121/7/2
f 117/7/2 118/7/2 122/7/2
f 122/7/2 118/7/2 123/7/2
f 121/7/2 122/7/2 123/7/2
f 123/7/2 118/7/2 124/7/2
f 119/7/2 121/7/2 125/7/2
f 121/7/2 123/7/2 125/7/2
f 125/7/2 123/7/2 126/7/2
f 127/1/2 128/1/2 129/1/2
f 129/1/2 128/1/2 130/1/2
f 131/1/2 132/1/2 133/1/2
f 133/1/2 132/1/2 134/1/2
f 135/1/2 136/1/2 137/1/2
f 137/1/2 136/1/2 138/1/2
f 139/7/2 140/7/2 141/7/2
f 141/7/2 140/7/2 142/7/2
f 143/7/2 144/7/2 145/7/2
f 145/7/2 144/7/2 146/7/2
f 147/5/2 148/5/2 149/5/2
f 149/5/2 148/5/2 150/5/2
f 151/5/2 152/5/2 153/5/2
f 153/5/2 152/5/2 154/5/2
f 155/5/2 156/5/2 157/5/2
f 157/5/2 156/5/2 158/5/2
f 159/4/2 160/4/2 161/4/2
f 161/4/2 160/4/2 162/4/2
f 161/1/2 162/1/2 163/1/2
f 163/1/2 162/1/2 164/1/2
f 171/1/3 166/1/3 165/1/3
f 172/1/3 166/1/3 171/1/3
f 173/1/3 168/1/3 167/1/3
f 174/1/3 168/1/3 173/1/3
f 175/1/3 170/1/3 169/1/3
f 176/1/3 170/1/3 175/1/3
f 183/5/3 178/5/3 177/5/3
f 184/5/3 178/5/3 183/5/3
f 185/5/3 180/5/3 179/5/3
f 186/5/3 180/5/3 185/5/3
f 187/5/3 182/5/3 181/5/3
f 188/5/3 182/5/3 187/5/3
f 189/5/3 183/5/3 177/5/3
f 190/5/3 178/5/3 184/5/3
f 191/5/3 185/5/3 179/5/3
f 192/5/3 180/5/3 186/5/3
f 193/5/3 187/5/3 181/5/3
f 194/5/3 182/5/3 188/5/3
f 195/5/3 189/5/3 177/5/3
f 195/5/3 190/5/3 189/5/3
f 196/5/3 178/5/3 190/5/3
f 196/5/3 190/5/3 195/5/3
f 197/5/3 191/5/3 179/5/3
f 197/5/3 192/5/3 191/5/3
f 198/5/3 180/5/3 192/5/3
f 198/5/3 192/5/3 197/5/3
f 199/5/3 194/5/3 193/5/3
f 199/5/3 193/5/3 181/5/3
f 200/5/3 182/5/3 194/5/3
f 200/5/3 194/5/3 199/5/3
f 204/4/3 202/4/3 201/4/3
f 205/4/3 202/4/3 204/4/3
f 206/4/3 202/4/3 205/4/3
f 207/4/3 202/4/3 206/4/3
f 208/4/3 202/4/3 207/4/3
f 209/4/3 202/4/3 208/4/3
f 210/4/3 204/4/3 201/4/3
f 211/4/3 206/4/3 205/4/3
f 212/4/3 206/4/3 211/4/3
f 213/4/3 208/4/3 207/4/3
f 214/4/3 208/4/3 213/4/3
f 215/4/3 202/4/3 209/4/3
f 216/4/3 214/4/3 213/4/3
f 216/4/3 215/4/3 214/4/3
f 216/4/3 212/4/3 211/4/3
f 216/4/3 210/4/3 201/4/3
f 216/4/3 213/4/3 212/4/3
f 216/4/3 211/4/3 210/4/3
f 217/1/3 203/1/3 202/1/3
f 217/4/3 215/4/3 216/4/3
f 217/4/3 202/4/3 215/4/3
f 218/1/3 203/1/3 217/1/3
f 222/4/3 220/4/3 219/4/3
f 223/6/3 221/6/3 220/6/3
f 223/4/3 220/4/3 222/4/3
f 224/6/3 221/6/3 223/6/3
f 228/4/3 226/4/3 225/4/3
f 229/6/3 227/6/3 226/6/3
f 229/4/3 226/4/3 228/4/3
f 230/6/3 227/6/3 229/6/3
f 233/4/3 232/4/3 231/4/3
f 234/4/3 232/4/3 233/4/3
f 235/4/3 232/4/3 234/4/3
f 239/4/3 237/4/3 236/4/3
f 239/4/3 238/4/3 237/4/3
f 240/4/3 238/4/3 239/4/3
f 243/7/3 242/7/3 241/7/3
f 244/7/3 242/7/3 243/7/3
f 247/4/3 246/4/3 245/4/3
f 248/4/3 246/4/3 247/4/3
f 251/7/3 250/7/3 249/7/3
f 252/7/3 250/7/3 251/7/3
f 255/7/3 254/7/3 253/7/3
f 256/7/3 254/7/3 255/7/3
f 259/7/3 258/7/3 257/7/3
f 260/7/3 258/7/3 259/7/3
f 263/7/3 262/7/3 261/7/3
f 264/7/3 262/7/3 263/7/3
f 267/7/3 266/7/3 265/7/3
f 268/7/3 266/7/3 267/7/3
f 269/4/4 270/4/4 271/4/4
f 271/4/4 270/4/4 272/4/4
f 273/4/4 274/4/4 275/4/4
f 275/4/4 274/4/4 276/4/4
f 276/4/4 274/4/4 277/4/4
f 278/4/4 279/4/4 281/4/4
f 279/4/4 280/4/4 281/4/4
f 281/4/4 280/4/4 282/4/4
f 283/4/4 284/4/4 286/4/4
f 284/6/4 285/6/4 287/6/4
f 286/4/4 284/4/4 287/4/4
f 287/6/4 285/6/4 288/6/4
f 289/4/4 290/4/4 292/4/4
f 290/6/4 291/6/4 293/6/4
f 292/4/4 290/4/4 293/4/4
f 293/6/4 291/6/4 294/6/4
f 295/7/4 296/7/4 297/7/4
f 297/7/4 296/7/4 298/7/4
f 299/7/4 300/7/4 301/7/4
f 301/7/4 300/7/4 302/7/4
f 303/7/4 304/7/4 305/7/4
f 305/7/4 304/7/4 306/7/4
f 307/7/4 308/7/4 309/7/4
f 309/7/4 308/7/4 310/7/4
f 311/7/4 312/7/4 313/7/4
f 313/7/4 312/7/4 314/7/4
f 315/7/4 316/7/4 317/7/4
f 317/7/4 316/7/4 318/7/4
f 319/7/4 320/7/4 321/7/4
f 321/7/4 320/7/4 322/7/4
f 323/4/4 324/4/4 326/4/4
f 324/1/4 325/1/4 327/1/4
f 326/4/4 324/4/4 327/4/4
f 327/1/4 325/1/4 328/1/4
f 331/4/5 330/4/5 329/4/5
f 332/4/5 330/4/5 331/4/5
f 335/5/5 334/5/5 333/5/5
f 336/5/5 334/5/5 335/5/5
f 339/1/5 338/1/5 337/1/5
f 340/1/5 338/1/5 339/1/5
f 343/5/5 342/5/5 341/5/5
f 344/5/5 342/5/5 343/5/5
f 347/1/5 346/1/5 345/1/5
f 348/1/5 346/1/5 347/1/5
f 351/5/5 350/5/5 349/5/5
f 352/5/5 350/5/5 351/5/5
f 355/1/5 354/1/5 353/1/5
f 356/1/5 354/1/5 355/1/5
f 359/7/5 358/7/5 357/7/5
f 360/7/5 358/7/5 359/7/5
f 363/7/5 362/7/5 361/7/5
f 364/7/5 362/7/5 363/7/5
f 365/1/6 366/1/6 367/1/6
f 367/1/6 366/1/6 368/1/6
f 369/5/6 370/5/6 371/5/6
f 371/5/6 370/5/6 372/5/6
f 373/1/6 374/1/6 375/1/6
f 375/1/6 374/1/6 376/1/6
f 377/5/6 378/5/6 379/5/6
f 379/5/6 378/5/6 380/5/6
f 381/1/6 382/1/6 383/1/6
f 383/1/6 382/1/6 384/1/6
f 385/8/6 386/8/6 389/8/6
f 389/8/6 386/8/6 390/8/6
f 387/8/6 388/8/6 391/8/6
f 391/8/6 388/8/6 392/8/6
f 393/8/6 394/8/6 397/8/6
f 397/8/6 394/8/6 398/8/6
f 395/8/6 396/8/6 399/8/6
f 399/8/6 396/8/6 400/8/6
f 401/4/6 402/4/6 403/4/6
f 403/4/6 402/4/6 404/4/6
f 404/4/6 402/4/6 405/4/6
f 405/4/6 402/4/6 406/4/6
f 401/4/6 403/4/6 407/4/6
f 404/6/6 405/6/6 408/6/6
f 408/6/6 405/6/6 409/6/6
f 406/4/6 402/4/6 410/4/6
f 408/6/6 409/6/6 411/6/6
f 409/6/6 410/6/6 411/6/6
f 401/4/6 407/4/6 411/4/6
f 407/6/6 408/6/6 411/6/6
f 411/6/6 410/6/6 412/6/6
f 412/6/6 410/6/6 413/6/6
f 410/4/6 402/4/6 414/4/6
f 413/6/6 410/6/6 414/6/6
f 401/4/6 411/4/6 415/4/6
f 412/6/6 413/6/6 416/6/6
f 416/6/6 413/6/6 417/6/6
f 414/4/6 402/4/6 418/4/6
f 401/4/6 415/4/6 419/4/6
f 417/4/6 418/4/6 419/4/6
f 416/4/6 417/4/6 419/4/6
f 415/4/6 416/4/6 419/4/6
f 418/4/6 402/4/6 420/4/6
f 419/4/6 418/4/6 420/4/6
f 421/5/6 422/5/6 423/5/6
f 423/5/6 422/5/6 424/5/6
f 425/1/6 426/1/6 427/1/6
f 427/1/6 426/1/6 428/1/6
f 427/4/6 428/4/6 429/4/6
f 429/4/6 428/4/6 430/4/6
f 427/4/6 429/4/6 431/4/6
f 430/4/6 428/4/6 432/4/6
f 431/4/6 432/4/6 433/4/6
f 433/4/6 432/4/6 434/4/6
f 434/4/6 432/4/6 435/4/6
f 435/4/6 432/4/6 436/4/6
f 436/4/6 432/4/6 437/4/6
f 437/4/6 432/4/6 438/4/6
f 431/4/6 433/4/6 439/4/6
f 434/4/6 435/4/6 440/4/6
f 436/4/6 437/4/6 441/4/6
f 438/4/6 432/4/6 442/4/6
f 439/4/6 440/4/6 443/4/6
f 440/4/6 435/4/6 443/4/6
f 436/4/6 441/4/6 444/4/6
f 441/4/6 442/4/6 444/4/6
f 425/1/6 427/1/6 445/1/6
f 443/4/6 444/4/6 445/4/6
f 427/4/6 431/4/6 445/4/6
f 439/4/6 443/4/6 445/4/6
f 431/4/6 439/4/6 445/4/6
f 444/4/6 442/4/6 446/4/6
f 445/4/6 444/4/6 446/4/6
f 428/1/6 426/1/6 446/1/6
f 432/4/6 428/4/6 446/4/6
f 442/4/6 432/4/6 446/4/6
f 425/1/6 445/1/6 447/1/6
f 445/1/6 446/1/6 447/1/6
f 446/1/6 426/1/6 448/1/6
f 447/1/6 446/1/6 448/1/6
f 449/7/6 450/7/6 453/7/6
f 453/7/6 450/7/6 454/7/6
f 451/2/6 452/2/6 455/2/6
f 455/2/6 452/2/6 456/2/6
f 449/7/6 453/7/6 457/7/6
f 454/7/6 450/7/6 458/7/6
f 449/7/6 457/7/6 459/7/6
f 457/7/6 458/7/6 459/7/6
f 458/7/6 450/7/6 460/7/6
f 459/7/6 458/7/6 460/7/6
f 461/7/6 462/7/6 465/7/6
f 465/7/6 462/7/6 466/7/6
f 463/7/6 464/7/6 467/7/6
f 467/7/6 464/7/6 468/7/6
f 461/7/6 465/7/6 469/7/6
f 466/7/6 462/7/6 470/7/6
f 467/3/6 468/3/6 471/3/6
f 463/7/6 467/7/6 471/7/6
f 468/7/6 464/7/6 472/7/6
f 471/3/6 468/3/6 472/3/6
f 461/7/6 469/7/6 473/7/6
f 469/7/6 470/7/6 473/7/6
f 470/7/6 462/7/6 474/7/6
f 473/7/6 470/7/6 474/7/6
f 463/7/6 471/7/6 475/7/6
f 471/7/6 472/7/6 475/7/6
f 472/7/6 464/7/6 476/7/6
f 475/7/6 472/7/6 476/7/6
f 477/7/6 478/7/6 479/7/6
f 479/7/6 478/7/6 480/7/6
f 481/7/6 482/7/6 483/7/6
f 483/7/6 482/7/6 484/7/6
