# MagicaVoxel @ Ephtracy

# group
o microscope

# material
mtllib SchoolPack-39-microscope.mtl
usemtl palette

# normals
vn -1 0 0
vn 1 0 0
vn 0 0 1
vn 0 0 -1
vn 0 -1 0
vn 0 1 0

# texcoords
vt 0.958984 0.5
vt 0.970703 0.5
vt 0.978516 0.5
vt 0.990234 0.5

# verts
v 10 6 -16.8
v 10 6 -18.1
v 10 6.1 -16.8
v 10 6.1 -18.1
v 10.1 6.2 -17.5
v 10.1 6.2 -17.6
v 10.1 6.2 -17.8
v 10.1 6.2 -17.9
v 10.1 6.3 -17.5
v 10.1 6.3 -17.6
v 10.1 6.3 -17.7
v 10.1 6.3 -17.8
v 10.1 6.3 -17.9
v 10.1 6.3 -18
v 10.1 6.4 -17.7
v 10.1 6.4 -17.8
v 10.1 6.4 -17.9
v 10.1 6.4 -18
v 10.1 6.5 -17.8
v 10.1 6.5 -17.9
v 10.3 6.1 -17.5
v 10.3 6.1 -18.1
v 10.3 6.2 -17.5
v 10.3 6.2 -17.6
v 10.3 6.3 -17.5
v 10.3 6.3 -17.6
v 10.3 6.3 -17.8
v 10.3 6.3 -17.9
v 10.3 6.4 -17.8
v 10.3 6.4 -17.9
v 10.3 6.6 -16.9
v 10.3 6.6 -17.5
v 10.3 6.6 -17.8
v 10.3 6.6 -18.1
v 10.3 6.7 -16.9
v 10.3 6.7 -17.8
v 10.3 7.3 -17
v 10.3 7.3 -17.5
v 10.3 7.6 -16.9
v 10.3 7.6 -17
v 10.3 7.7 -16.9
v 10.3 7.7 -17
v 10.3 7.7 -17.1
v 10.3 7.7 -17.5
v 10.3 7.8 -17
v 10.3 7.8 -17.1
v 10.4 7.7 -16.8
v 10.4 7.7 -16.9
v 10.4 7.7 -17
v 10.4 7.8 -16.6
v 10.4 7.8 -16.8
v 10.4 7.8 -16.9
v 10.4 7.8 -17
v 10.4 7.9 -16.5
v 10.4 7.9 -16.6
v 10.4 7.9 -16.7
v 10.4 7.9 -16.9
v 10.4 8 -16.5
v 10.4 8 -16.7
v 10.5 6.1 -16.8
v 10.5 6.1 -16.9
v 10.5 6.1 -17.1
v 10.5 6.1 -17.3
v 10.5 6.2 -16.8
v 10.5 6.2 -16.9
v 10.5 6.4 -17.1
v 10.5 6.4 -17.3
v 10.5 6.6 -17.8
v 10.5 6.6 -18.1
v 10.5 6.7 -17.8
v 10.5 6.7 -18.1
v 10.5 7.2 -17.7
v 10.5 7.2 -17.8
v 10.5 7.3 -17.5
v 10.5 7.3 -17.7
v 10.5 7.4 -18
v 10.5 7.4 -18.1
v 10.5 7.7 -17.5
v 10.5 7.7 -18
v 10.7 7.7 -16.8
v 10.7 7.7 -16.9
v 10.7 7.7 -17
v 10.7 7.8 -16.6
v 10.7 7.8 -16.8
v 10.7 7.8 -16.9
v 10.7 7.8 -17
v 10.7 7.9 -16.5
v 10.7 7.9 -16.6
v 10.7 7.9 -16.7
v 10.7 7.9 -16.9
v 10.7 8 -16.5
v 10.7 8 -16.7
v 10.2 6.2 -17.8
v 10.2 6.2 -17.9
v 10.2 6.3 -17.7
v 10.2 6.3 -17.8
v 10.2 6.3 -17.9
v 10.2 6.3 -18
v 10.2 6.4 -17.7
v 10.2 6.4 -17.8
v 10.2 6.4 -17.9
v 10.2 6.4 -18
v 10.2 6.5 -17.8
v 10.2 6.5 -17.9
v 10.6 7.7 -16.8
v 10.6 7.7 -16.9
v 10.6 7.7 -17
v 10.6 7.8 -16.6
v 10.6 7.8 -16.8
v 10.6 7.8 -16.9
v 10.6 7.8 -17
v 10.6 7.9 -16.5
v 10.6 7.9 -16.6
v 10.6 7.9 -16.7
v 10.6 7.9 -16.9
v 10.6 8 -16.5
v 10.6 8 -16.7
v 10.7 6.1 -16.8
v 10.7 6.1 -16.9
v 10.7 6.2 -16.8
v 10.7 6.2 -16.9
v 10.8 6.1 -17.1
v 10.8 6.1 -17.3
v 10.8 6.4 -17.1
v 10.8 6.4 -17.3
v 10.8 6.6 -17.8
v 10.8 6.6 -18.1
v 10.8 6.7 -17.8
v 10.8 6.7 -18.1
v 10.8 7.2 -17.7
v 10.8 7.2 -17.8
v 10.8 7.3 -17.5
v 10.8 7.3 -17.7
v 10.8 7.4 -18
v 10.8 7.4 -18.1
v 10.8 7.7 -17.5
v 10.8 7.7 -18
v 10.9 7.7 -16.8
v 10.9 7.7 -16.9
v 10.9 7.7 -17
v 10.9 7.8 -16.6
v 10.9 7.8 -16.8
v 10.9 7.8 -16.9
v 10.9 7.8 -17
v 10.9 7.9 -16.5
v 10.9 7.9 -16.6
v 10.9 7.9 -16.7
v 10.9 7.9 -16.9
v 10.9 8 -16.5
v 10.9 8 -16.7
v 11 6.1 -17.5
v 11 6.1 -18.1
v 11 6.6 -16.9
v 11 6.6 -17.5
v 11 6.6 -17.8
v 11 6.6 -18.1
v 11 6.7 -16.9
v 11 6.7 -17.8
v 11 7.3 -17
v 11 7.3 -17.5
v 11 7.6 -16.9
v 11 7.6 -17
v 11 7.7 -16.9
v 11 7.7 -17
v 11 7.7 -17.1
v 11 7.7 -17.5
v 11 7.8 -17
v 11 7.8 -17.1
v 11.3 6 -16.8
v 11.3 6 -18.1
v 11.3 6.1 -16.8
v 11.3 6.1 -18.1
v 10.4 7.9 -16.5
v 10.4 8 -16.5
v 10.6 7.9 -16.5
v 10.6 8 -16.5
v 10.7 7.9 -16.5
v 10.7 8 -16.5
v 10.9 7.9 -16.5
v 10.9 8 -16.5
v 10.4 7.8 -16.6
v 10.4 7.9 -16.6
v 10.6 7.8 -16.6
v 10.6 7.9 -16.6
v 10.7 7.8 -16.6
v 10.7 7.9 -16.6
v 10.9 7.8 -16.6
v 10.9 7.9 -16.6
v 10 6 -16.8
v 10 6.1 -16.8
v 10.4 7.7 -16.8
v 10.4 7.8 -16.8
v 10.5 6.1 -16.8
v 10.5 6.2 -16.8
v 10.6 7.7 -16.8
v 10.6 7.8 -16.8
v 10.7 6.1 -16.8
v 10.7 6.2 -16.8
v 10.7 7.7 -16.8
v 10.7 7.8 -16.8
v 10.9 7.7 -16.8
v 10.9 7.8 -16.8
v 11.3 6 -16.8
v 11.3 6.1 -16.8
v 10.3 6.6 -16.9
v 10.3 6.7 -16.9
v 10.3 7.6 -16.9
v 10.3 7.7 -16.9
v 10.4 7.7 -16.9
v 10.6 7.7 -16.9
v 10.7 7.7 -16.9
v 10.9 7.7 -16.9
v 11 6.6 -16.9
v 11 6.7 -16.9
v 11 7.6 -16.9
v 11 7.7 -16.9
v 10.3 7.3 -17
v 10.3 7.6 -17
v 10.3 7.7 -17
v 10.3 7.8 -17
v 10.4 7.7 -17
v 10.4 7.8 -17
v 10.6 7.7 -17
v 10.6 7.8 -17
v 10.7 7.7 -17
v 10.7 7.8 -17
v 10.9 7.7 -17
v 10.9 7.8 -17
v 11 7.3 -17
v 11 7.6 -17
v 11 7.7 -17
v 11 7.8 -17
v 10.5 6.1 -17.1
v 10.5 6.4 -17.1
v 10.8 6.1 -17.1
v 10.8 6.4 -17.1
v 10.1 6.2 -17.5
v 10.1 6.3 -17.5
v 10.3 6.1 -17.5
v 10.3 6.2 -17.5
v 10.3 6.3 -17.5
v 10.3 6.6 -17.5
v 11 6.1 -17.5
v 11 6.6 -17.5
v 10.1 6.3 -17.7
v 10.1 6.4 -17.7
v 10.2 6.3 -17.7
v 10.2 6.4 -17.7
v 10.5 7.2 -17.7
v 10.5 7.3 -17.7
v 10.8 7.2 -17.7
v 10.8 7.3 -17.7
v 10.1 6.2 -17.8
v 10.1 6.3 -17.8
v 10.1 6.4 -17.8
v 10.1 6.5 -17.8
v 10.2 6.2 -17.8
v 10.2 6.3 -17.8
v 10.2 6.4 -17.8
v 10.2 6.5 -17.8
v 10.3 6.3 -17.8
v 10.3 6.4 -17.8
v 10.5 6.7 -17.8
v 10.5 7.2 -17.8
v 10.8 6.7 -17.8
v 10.8 7.2 -17.8
v 10.4 7.9 -16.7
v 10.4 8 -16.7
v 10.6 7.9 -16.7
v 10.6 8 -16.7
v 10.7 7.9 -16.7
v 10.7 8 -16.7
v 10.9 7.9 -16.7
v 10.9 8 -16.7
v 10.4 7.8 -16.9
v 10.4 7.9 -16.9
v 10.5 6.1 -16.9
v 10.5 6.2 -16.9
v 10.6 7.8 -16.9
v 10.6 7.9 -16.9
v 10.7 6.1 -16.9
v 10.7 6.2 -16.9
v 10.7 7.8 -16.9
v 10.7 7.9 -16.9
v 10.9 7.8 -16.9
v 10.9 7.9 -16.9
v 10.3 7.7 -17.1
v 10.3 7.8 -17.1
v 11 7.7 -17.1
v 11 7.8 -17.1
v 10.5 6.1 -17.3
v 10.5 6.4 -17.3
v 10.8 6.1 -17.3
v 10.8 6.4 -17.3
v 10.3 7.3 -17.5
v 10.3 7.7 -17.5
v 10.5 7.3 -17.5
v 10.5 7.7 -17.5
v 10.8 7.3 -17.5
v 10.8 7.7 -17.5
v 11 7.3 -17.5
v 11 7.7 -17.5
v 10.1 6.2 -17.6
v 10.1 6.3 -17.6
v 10.3 6.2 -17.6
v 10.3 6.3 -17.6
v 10.3 6.6 -17.8
v 10.3 6.7 -17.8
v 10.5 6.6 -17.8
v 10.5 6.7 -17.8
v 10.8 6.6 -17.8
v 10.8 6.7 -17.8
v 11 6.6 -17.8
v 11 6.7 -17.8
v 10.1 6.2 -17.9
v 10.1 6.3 -17.9
v 10.1 6.4 -17.9
v 10.1 6.5 -17.9
v 10.2 6.2 -17.9
v 10.2 6.3 -17.9
v 10.2 6.4 -17.9
v 10.2 6.5 -17.9
v 10.3 6.3 -17.9
v 10.3 6.4 -17.9
v 10.1 6.3 -18
v 10.1 6.4 -18
v 10.2 6.3 -18
v 10.2 6.4 -18
v 10.5 7.4 -18
v 10.5 7.7 -18
v 10.8 7.4 -18
v 10.8 7.7 -18
v 10 6 -18.1
v 10 6.1 -18.1
v 10.3 6.1 -18.1
v 10.3 6.6 -18.1
v 10.5 6.6 -18.1
v 10.5 6.7 -18.1
v 10.5 7.4 -18.1
v 10.8 6.6 -18.1
v 10.8 6.7 -18.1
v 10.8 7.4 -18.1
v 11 6.1 -18.1
v 11 6.6 -18.1
v 11.3 6 -18.1
v 11.3 6.1 -18.1
v 10 6 -16.8
v 11.3 6 -16.8
v 10 6 -18.1
v 11.3 6 -18.1
v 10.1 6.2 -17.5
v 10.3 6.2 -17.5
v 10.1 6.2 -17.6
v 10.3 6.2 -17.6
v 10.1 6.2 -17.8
v 10.2 6.2 -17.8
v 10.1 6.2 -17.9
v 10.2 6.2 -17.9
v 10.1 6.3 -17.7
v 10.2 6.3 -17.7
v 10.1 6.3 -17.8
v 10.2 6.3 -17.8
v 10.3 6.3 -17.8
v 10.1 6.3 -17.9
v 10.2 6.3 -17.9
v 10.3 6.3 -17.9
v 10.1 6.3 -18
v 10.2 6.3 -18
v 10.3 6.6 -16.9
v 11 6.6 -16.9
v 10.3 6.6 -17.5
v 11 6.6 -17.5
v 10.5 7.2 -17.7
v 10.8 7.2 -17.7
v 10.5 7.2 -17.8
v 10.8 7.2 -17.8
v 10.3 7.3 -17
v 11 7.3 -17
v 10.3 7.3 -17.5
v 10.5 7.3 -17.5
v 10.8 7.3 -17.5
v 11 7.3 -17.5
v 10.5 7.3 -17.7
v 10.8 7.3 -17.7
v 10.3 7.6 -16.9
v 11 7.6 -16.9
v 10.3 7.6 -17
v 11 7.6 -17
v 10.4 7.7 -16.8
v 10.6 7.7 -16.8
v 10.7 7.7 -16.8
v 10.9 7.7 -16.8
v 10.4 7.7 -16.9
v 10.6 7.7 -16.9
v 10.7 7.7 -16.9
v 10.9 7.7 -16.9
v 10.4 7.8 -16.6
v 10.6 7.8 -16.6
v 10.7 7.8 -16.6
v 10.9 7.8 -16.6
v 10.4 7.8 -16.8
v 10.6 7.8 -16.8
v 10.7 7.8 -16.8
v 10.9 7.8 -16.8
v 10.4 7.9 -16.5
v 10.6 7.9 -16.5
v 10.7 7.9 -16.5
v 10.9 7.9 -16.5
v 10.4 7.9 -16.6
v 10.6 7.9 -16.6
v 10.7 7.9 -16.6
v 10.9 7.9 -16.6
v 10 6.1 -16.8
v 10.5 6.1 -16.8
v 10.7 6.1 -16.8
v 11.3 6.1 -16.8
v 10.5 6.1 -16.9
v 10.7 6.1 -16.9
v 10.5 6.1 -17.1
v 10.8 6.1 -17.1
v 10.5 6.1 -17.3
v 10.8 6.1 -17.3
v 10.3 6.1 -17.5
v 11 6.1 -17.5
v 10 6.1 -18.1
v 10.3 6.1 -18.1
v 11 6.1 -18.1
v 11.3 6.1 -18.1
v 10.5 6.2 -16.8
v 10.7 6.2 -16.8
v 10.5 6.2 -16.9
v 10.7 6.2 -16.9
v 10.1 6.3 -17.5
v 10.3 6.3 -17.5
v 10.1 6.3 -17.6
v 10.3 6.3 -17.6
v 10.5 6.4 -17.1
v 10.8 6.4 -17.1
v 10.5 6.4 -17.3
v 10.8 6.4 -17.3
v 10.1 6.4 -17.7
v 10.2 6.4 -17.7
v 10.1 6.4 -17.8
v 10.2 6.4 -17.8
v 10.3 6.4 -17.8
v 10.1 6.4 -17.9
v 10.2 6.4 -17.9
v 10.3 6.4 -17.9
v 10.1 6.4 -18
v 10.2 6.4 -18
v 10.1 6.5 -17.8
v 10.2 6.5 -17.8
v 10.1 6.5 -17.9
v 10.2 6.5 -17.9
v 10.3 6.6 -17.8
v 10.5 6.6 -17.8
v 10.8 6.6 -17.8
v 11 6.6 -17.8
v 10.3 6.6 -18.1
v 10.5 6.6 -18.1
v 10.8 6.6 -18.1
v 11 6.6 -18.1
v 10.3 6.7 -16.9
v 11 6.7 -16.9
v 10.3 6.7 -17.8
v 10.5 6.7 -17.8
v 10.8 6.7 -17.8
v 11 6.7 -17.8
v 10.5 7.4 -18
v 10.8 7.4 -18
v 10.5 7.4 -18.1
v 10.8 7.4 -18.1
v 10.3 7.7 -16.9
v 10.4 7.7 -16.9
v 10.6 7.7 -16.9
v 10.7 7.7 -16.9
v 10.9 7.7 -16.9
v 11 7.7 -16.9
v 10.3 7.7 -17
v 10.4 7.7 -17
v 10.6 7.7 -17
v 10.7 7.7 -17
v 10.9 7.7 -17
v 11 7.7 -17
v 10.3 7.7 -17.1
v 11 7.7 -17.1
v 10.3 7.7 -17.5
v 10.5 7.7 -17.5
v 10.8 7.7 -17.5
v 11 7.7 -17.5
v 10.5 7.7 -18
v 10.8 7.7 -18
v 10.4 7.8 -16.9
v 10.6 7.8 -16.9
v 10.7 7.8 -16.9
v 10.9 7.8 -16.9
v 10.3 7.8 -17
v 10.4 7.8 -17
v 10.6 7.8 -17
v 10.7 7.8 -17
v 10.9 7.8 -17
v 11 7.8 -17
v 10.3 7.8 -17.1
v 11 7.8 -17.1
v 10.4 7.9 -16.7
v 10.6 7.9 -16.7
v 10.7 7.9 -16.7
v 10.9 7.9 -16.7
v 10.4 7.9 -16.9
v 10.6 7.9 -16.9
v 10.7 7.9 -16.9
v 10.9 7.9 -16.9
v 10.4 8 -16.5
v 10.6 8 -16.5
v 10.7 8 -16.5
v 10.9 8 -16.5
v 10.4 8 -16.7
v 10.6 8 -16.7
v 10.7 8 -16.7
v 10.9 8 -16.7

# faces
f 3/1/1 2/1/1 1/1/1
f 4/1/1 2/1/1 3/1/1
f 9/4/1 6/4/1 5/4/1
f 10/4/1 6/4/1 9/4/1
f 12/4/1 8/4/1 7/4/1
f 13/4/1 8/4/1 12/4/1
f 15/4/1 14/4/1 13/4/1
f 15/4/1 13/4/1 12/4/1
f 15/4/1 12/4/1 11/4/1
f 16/4/1 14/4/1 15/4/1
f 17/4/1 14/4/1 16/4/1
f 18/4/1 14/4/1 17/4/1
f 19/4/1 17/4/1 16/4/1
f 20/4/1 17/4/1 19/4/1
f 23/1/1 22/1/1 21/1/1
f 24/1/1 22/1/1 23/1/1
f 26/1/1 22/1/1 24/1/1
f 27/1/1 22/1/1 26/1/1
f 28/1/1 22/1/1 27/1/1
f 29/1/1 26/1/1 25/1/1
f 29/1/1 27/1/1 26/1/1
f 30/1/1 22/1/1 28/1/1
f 32/1/1 29/1/1 25/1/1
f 32/1/1 30/1/1 29/1/1
f 33/1/1 30/1/1 32/1/1
f 34/1/1 22/1/1 30/1/1
f 34/1/1 30/1/1 33/1/1
f 35/4/1 33/4/1 32/4/1
f 35/4/1 32/4/1 31/4/1
f 36/4/1 33/4/1 35/4/1
f 40/1/1 38/1/1 37/1/1
f 41/3/1 40/3/1 39/3/1
f 42/1/1 38/1/1 40/1/1
f 42/3/1 40/3/1 41/3/1
f 43/1/1 38/1/1 42/1/1
f 44/1/1 38/1/1 43/1/1
f 45/3/1 43/3/1 42/3/1
f 46/3/1 43/3/1 45/3/1
f 51/4/1 48/4/1 47/4/1
f 51/4/1 49/4/1 48/4/1
f 52/4/1 49/4/1 51/4/1
f 53/4/1 49/4/1 52/4/1
f 55/4/1 51/4/1 50/4/1
f 55/4/1 52/4/1 51/4/1
f 56/4/1 52/4/1 55/4/1
f 57/4/1 52/4/1 56/4/1
f 58/4/1 55/4/1 54/4/1
f 58/4/1 56/4/1 55/4/1
f 59/4/1 56/4/1 58/4/1
f 64/4/1 61/4/1 60/4/1
f 65/4/1 61/4/1 64/4/1
f 66/4/1 63/4/1 62/4/1
f 67/4/1 63/4/1 66/4/1
f 70/4/1 69/4/1 68/4/1
f 71/4/1 69/4/1 70/4/1
f 73/1/1 71/1/1 70/1/1
f 75/1/1 73/1/1 72/1/1
f 76/1/1 71/1/1 73/1/1
f 76/1/1 75/1/1 74/1/1
f 76/1/1 73/1/1 75/1/1
f 77/1/1 71/1/1 76/1/1
f 78/1/1 76/1/1 74/1/1
f 79/1/1 76/1/1 78/1/1
f 84/4/1 81/4/1 80/4/1
f 84/4/1 82/4/1 81/4/1
f 85/4/1 82/4/1 84/4/1
f 86/4/1 82/4/1 85/4/1
f 88/4/1 84/4/1 83/4/1
f 88/4/1 85/4/1 84/4/1
f 89/4/1 85/4/1 88/4/1
f 90/4/1 85/4/1 89/4/1
f 91/4/1 88/4/1 87/4/1
f 91/4/1 89/4/1 88/4/1
f 92/4/1 89/4/1 91/4/1
f 93/4/2 94/4/2 96/4/2
f 96/4/2 94/4/2 97/4/2
f 95/4/2 96/4/2 99/4/2
f 99/4/2 96/4/2 100/4/2
f 97/4/2 98/4/2 101/4/2
f 101/4/2 98/4/2 102/4/2
f 100/4/2 101/4/2 103/4/2
f 103/4/2 101/4/2 104/4/2
f 105/4/2 106/4/2 109/4/2
f 106/4/2 107/4/2 109/4/2
f 109/4/2 107/4/2 110/4/2
f 110/4/2 107/4/2 111/4/2
f 108/4/2 109/4/2 113/4/2
f 109/4/2 110/4/2 113/4/2
f 113/4/2 110/4/2 114/4/2
f 114/4/2 110/4/2 115/4/2
f 112/4/2 113/4/2 116/4/2
f 113/4/2 114/4/2 116/4/2
f 116/4/2 114/4/2 117/4/2
f 118/4/2 119/4/2 120/4/2
f 120/4/2 119/4/2 121/4/2
f 122/4/2 123/4/2 124/4/2
f 124/4/2 123/4/2 125/4/2
f 126/4/2 127/4/2 128/4/2
f 128/4/2 127/4/2 129/4/2
f 128/1/2 129/1/2 131/1/2
f 130/1/2 131/1/2 133/1/2
f 131/1/2 129/1/2 134/1/2
f 132/1/2 133/1/2 134/1/2
f 133/1/2 131/1/2 134/1/2
f 134/1/2 129/1/2 135/1/2
f 132/1/2 134/1/2 136/1/2
f 136/1/2 134/1/2 137/1/2
f 138/4/2 139/4/2 142/4/2
f 139/4/2 140/4/2 142/4/2
f 142/4/2 140/4/2 143/4/2
f 143/4/2 140/4/2 144/4/2
f 141/4/2 142/4/2 146/4/2
f 142/4/2 143/4/2 146/4/2
f 146/4/2 143/4/2 147/4/2
f 147/4/2 143/4/2 148/4/2
f 145/4/2 146/4/2 149/4/2
f 146/4/2 147/4/2 149/4/2
f 149/4/2 147/4/2 150/4/2
f 151/1/2 152/1/2 154/1/2
f 154/1/2 152/1/2 155/1/2
f 155/1/2 152/1/2 156/1/2
f 153/4/2 154/4/2 157/4/2
f 154/4/2 155/4/2 157/4/2
f 157/4/2 155/4/2 158/4/2
f 159/1/2 160/1/2 162/1/2
f 161/3/2 162/3/2 163/3/2
f 162/1/2 160/1/2 164/1/2
f 163/3/2 162/3/2 164/3/2
f 164/1/2 160/1/2 165/1/2
f 165/1/2 160/1/2 166/1/2
f 164/3/2 165/3/2 167/3/2
f 167/3/2 165/3/2 168/3/2
f 169/1/2 170/1/2 171/1/2
f 171/1/2 170/1/2 172/1/2
f 175/4/3 174/4/3 173/4/3
f 176/4/3 174/4/3 175/4/3
f 179/4/3 178/4/3 177/4/3
f 180/4/3 178/4/3 179/4/3
f 183/4/3 182/4/3 181/4/3
f 184/4/3 182/4/3 183/4/3
f 187/4/3 186/4/3 185/4/3
f 188/4/3 186/4/3 187/4/3
f 193/1/3 190/1/3 189/1/3
f 195/4/3 192/4/3 191/4/3
f 196/4/3 192/4/3 195/4/3
f 197/4/3 194/4/3 193/4/3
f 197/1/3 193/1/3 189/1/3
f 198/4/3 194/4/3 197/4/3
f 201/4/3 200/4/3 199/4/3
f 202/4/3 200/4/3 201/4/3
f 203/1/3 197/1/3 189/1/3
f 204/1/3 197/1/3 203/1/3
f 209/3/3 208/3/3 207/3/3
f 210/3/3 209/3/3 207/3/3
f 211/3/3 210/3/3 207/3/3
f 212/3/3 211/3/3 207/3/3
f 213/4/3 206/4/3 205/4/3
f 214/4/3 206/4/3 213/4/3
f 215/3/3 212/3/3 207/3/3
f 216/3/3 212/3/3 215/3/3
f 221/3/3 220/3/3 219/3/3
f 222/3/3 220/3/3 221/3/3
f 225/3/3 224/3/3 223/3/3
f 226/3/3 224/3/3 225/3/3
f 229/1/3 218/1/3 217/1/3
f 230/1/3 218/1/3 229/1/3
f 231/3/3 228/3/3 227/3/3
f 232/3/3 228/3/3 231/3/3
f 235/4/3 234/4/3 233/4/3
f 236/4/3 234/4/3 235/4/3
f 240/4/3 238/4/3 237/4/3
f 241/4/3 238/4/3 240/4/3
f 243/1/3 240/1/3 239/1/3
f 243/1/3 242/1/3 241/1/3
f 243/1/3 241/1/3 240/1/3
f 244/1/3 242/1/3 243/1/3
f 247/4/3 246/4/3 245/4/3
f 248/4/3 246/4/3 247/4/3
f 251/1/3 250/1/3 249/1/3
f 252/1/3 250/1/3 251/1/3
f 257/4/3 254/4/3 253/4/3
f 258/4/3 254/4/3 257/4/3
f 259/4/3 256/4/3 255/4/3
f 260/4/3 256/4/3 259/4/3
f 261/4/3 259/4/3 258/4/3
f 262/4/3 259/4/3 261/4/3
f 265/1/3 264/1/3 263/1/3
f 266/1/3 264/1/3 265/1/3
f 267/4/4 268/4/4 269/4/4
f 269/4/4 268/4/4 270/4/4
f 271/4/4 272/4/4 273/4/4
f 273/4/4 272/4/4 274/4/4
f 275/4/4 276/4/4 279/4/4
f 279/4/4 276/4/4 280/4/4
f 277/4/4 278/4/4 281/4/4
f 281/4/4 278/4/4 282/4/4
f 283/4/4 284/4/4 285/4/4
f 285/4/4 284/4/4 286/4/4
f 287/3/4 288/3/4 289/3/4
f 289/3/4 288/3/4 290/3/4
f 291/4/4 292/4/4 293/4/4
f 293/4/4 292/4/4 294/4/4
f 295/1/4 296/1/4 297/1/4
f 297/1/4 296/1/4 298/1/4
f 299/1/4 300/1/4 301/1/4
f 301/1/4 300/1/4 302/1/4
f 303/4/4 304/4/4 305/4/4
f 305/4/4 304/4/4 306/4/4
f 307/4/4 308/4/4 309/4/4
f 309/4/4 308/4/4 310/4/4
f 311/4/4 312/4/4 313/4/4
f 313/4/4 312/4/4 314/4/4
f 315/4/4 316/4/4 319/4/4
f 319/4/4 316/4/4 320/4/4
f 317/4/4 318/4/4 321/4/4
f 321/4/4 318/4/4 322/4/4
f 320/4/4 321/4/4 323/4/4
f 323/4/4 321/4/4 324/4/4
f 325/4/4 326/4/4 327/4/4
f 327/4/4 326/4/4 328/4/4
f 329/1/4 330/1/4 331/1/4
f 331/1/4 330/1/4 332/1/4
f 333/1/4 334/1/4 335/1/4
f 335/1/4 336/1/4 337/1/4
f 335/1/4 337/1/4 340/1/4
f 337/4/4 338/4/4 340/4/4
f 338/1/4 339/1/4 341/1/4
f 340/4/4 338/4/4 341/4/4
f 341/1/4 339/1/4 342/1/4
f 333/1/4 335/1/4 343/1/4
f 335/1/4 340/1/4 343/1/4
f 343/1/4 340/1/4 344/1/4
f 333/1/4 343/1/4 345/1/4
f 345/1/4 343/1/4 346/1/4
f 349/1/5 348/1/5 347/1/5
f 350/1/5 348/1/5 349/1/5
f 353/4/5 352/4/5 351/4/5
f 354/4/5 352/4/5 353/4/5
f 357/4/5 356/4/5 355/4/5
f 358/4/5 356/4/5 357/4/5
f 361/4/5 360/4/5 359/4/5
f 362/4/5 360/4/5 361/4/5
f 365/4/5 363/4/5 362/4/5
f 366/4/5 363/4/5 365/4/5
f 367/4/5 365/4/5 364/4/5
f 368/4/5 365/4/5 367/4/5
f 371/4/5 370/4/5 369/4/5
f 372/4/5 370/4/5 371/4/5
f 375/1/5 374/1/5 373/1/5
f 376/1/5 374/1/5 375/1/5
f 379/1/5 378/1/5 377/1/5
f 380/1/5 378/1/5 379/1/5
f 381/1/5 378/1/5 380/1/5
f 382/1/5 378/1/5 381/1/5
f 383/1/5 381/1/5 380/1/5
f 384/1/5 381/1/5 383/1/5
f 387/3/5 386/3/5 385/3/5
f 388/3/5 386/3/5 387/3/5
f 393/4/5 390/4/5 389/4/5
f 394/4/5 390/4/5 393/4/5
f 395/4/5 392/4/5 391/4/5
f 396/4/5 392/4/5 395/4/5
f 401/4/5 398/4/5 397/4/5
f 402/4/5 398/4/5 401/4/5
f 403/4/5 400/4/5 399/4/5
f 404/4/5 400/4/5 403/4/5
f 409/4/5 406/4/5 405/4/5
f 410/4/5 406/4/5 409/4/5
f 411/4/5 408/4/5 407/4/5
f 412/4/5 408/4/5 411/4/5
f 413/1/6 414/1/6 417/1/6
f 415/1/6 416/1/6 418/1/6
f 413/1/6 417/1/6 419/1/6
f 417/1/6 418/1/6 419/1/6
f 418/1/6 416/1/6 420/1/6
f 419/1/6 418/1/6 420/1/6
f 413/1/6 419/1/6 421/1/6
f 420/1/6 416/1/6 422/1/6
f 413/1/6 421/1/6 423/1/6
f 421/1/6 422/1/6 423/1/6
f 422/1/6 416/1/6 424/1/6
f 423/1/6 422/1/6 424/1/6
f 413/1/6 423/1/6 425/1/6
f 425/1/6 423/1/6 426/1/6
f 424/1/6 416/1/6 427/1/6
f 427/1/6 416/1/6 428/1/6
f 429/4/6 430/4/6 431/4/6
f 431/4/6 430/4/6 432/4/6
f 433/4/6 434/4/6 435/4/6
f 435/4/6 434/4/6 436/4/6
f 437/4/6 438/4/6 439/4/6
f 439/4/6 438/4/6 440/4/6
f 441/4/6 442/4/6 443/4/6
f 443/4/6 442/4/6 444/4/6
f 444/4/6 445/4/6 447/4/6
f 447/4/6 445/4/6 448/4/6
f 446/4/6 447/4/6 449/4/6
f 449/4/6 447/4/6 450/4/6
f 451/4/6 452/4/6 453/4/6
f 453/4/6 452/4/6 454/4/6
f 455/1/6 456/1/6 459/1/6
f 459/1/6 456/1/6 460/1/6
f 457/1/6 458/1/6 461/1/6
f 461/1/6 458/1/6 462/1/6
f 463/4/6 464/4/6 465/4/6
f 465/4/6 464/4/6 466/4/6
f 466/4/6 464/4/6 467/4/6
f 467/4/6 464/4/6 468/4/6
f 469/1/6 470/1/6 471/1/6
f 471/1/6 470/1/6 472/1/6
f 473/3/6 474/3/6 479/3/6
f 479/3/6 474/3/6 480/3/6
f 475/3/6 476/3/6 481/3/6
f 481/3/6 476/3/6 482/3/6
f 477/3/6 478/3/6 483/3/6
f 483/3/6 478/3/6 484/3/6
f 485/1/6 486/1/6 487/1/6
f 487/1/6 486/1/6 488/1/6
f 488/1/6 486/1/6 489/1/6
f 489/1/6 486/1/6 490/1/6
f 488/1/6 489/1/6 491/1/6
f 491/1/6 489/1/6 492/1/6
f 493/4/6 494/4/6 498/4/6
f 498/4/6 494/4/6 499/4/6
f 495/4/6 496/4/6 500/4/6
f 500/4/6 496/4/6 501/4/6
f 498/3/6 499/3/6 503/3/6
f 501/3/6 502/3/6 503/3/6
f 500/3/6 501/3/6 503/3/6
f 499/3/6 500/3/6 503/3/6
f 497/3/6 498/3/6 503/3/6
f 503/3/6 502/3/6 504/3/6
f 505/4/6 506/4/6 509/4/6
f 509/4/6 506/4/6 510/4/6
f 507/4/6 508/4/6 511/4/6
f 511/4/6 508/4/6 512/4/6
f 513/4/6 514/4/6 517/4/6
f 517/4/6 514/4/6 518/4/6
f 515/4/6 516/4/6 519/4/6
f 519/4/6 516/4/6 520/4/6
