# MagicaVoxel @ Ephtracy

# group
o color box

# material
mtllib SchoolPack-25-color box.mtl
usemtl palette

# normals
vn -1 0 0
vn 1 0 0
vn 0 0 1
vn 0 0 -1
vn 0 -1 0
vn 0 1 0

# texcoords
vt 0.115234 0.5
vt 0.244141 0.5
vt 0.255859 0.5
vt 0.369141 0.5
vt 0.404297 0.5
vt 0.853516 0.5
vt 0.900391 0.5

# verts
v -1.8 0 0.1
v -1.8 0 -0.4
v -1.8 0.3 0.1
v -1.8 0.3 -0.4
v -1.8 0.6 0.1
v -1.8 0.6 0
v -1.8 0.6 -0.1
v -1.8 0.6 -0.2
v -1.8 0.6 -0.3
v -1.8 0.6 -0.4
v -1.8 0.7 0.1
v -1.8 0.7 0
v -1.8 0.7 -0.1
v -1.8 0.7 -0.2
v -1.8 0.7 -0.3
v -1.8 0.7 -0.4
v -1.8 0.8 0.1
v -1.8 0.8 -0.4
v -1.6 0 0.1
v -1.6 0 -0.4
v -1.6 0.3 0.1
v -1.6 0.3 -0.4
v -1.6 0.8 0.1
v -1.6 0.8 -0.4
v -1.8 0 0.1
v -1.8 0.3 0.1
v -1.8 0.6 0.1
v -1.8 0.7 0.1
v -1.8 0.8 0.1
v -1.7 0.6 0.1
v -1.7 0.7 0.1
v -1.6 0 0.1
v -1.6 0.3 0.1
v -1.6 0.8 0.1
v -1.8 0 -0.4
v -1.8 0.3 -0.4
v -1.8 0.6 -0.4
v -1.8 0.7 -0.4
v -1.8 0.8 -0.4
v -1.7 0.6 -0.4
v -1.7 0.7 -0.4
v -1.6 0 -0.4
v -1.6 0.3 -0.4
v -1.6 0.8 -0.4
v -1.8 0 0.1
v -1.6 0 0.1
v -1.8 0 -0.4
v -1.6 0 -0.4
v -1.8 0.8 0.1
v -1.6 0.8 0.1
v -1.8 0.8 -0.4
v -1.6 0.8 -0.4

# faces
f 3/1/1 2/1/1 1/1/1
f 4/1/1 2/1/1 3/1/1
f 5/4/1 4/4/1 3/4/1
f 6/4/1 4/4/1 5/4/1
f 7/4/1 4/4/1 6/4/1
f 8/4/1 4/4/1 7/4/1
f 9/4/1 4/4/1 8/4/1
f 10/4/1 4/4/1 9/4/1
f 11/5/1 6/5/1 5/5/1
f 12/2/1 7/2/1 6/2/1
f 12/5/1 6/5/1 11/5/1
f 13/3/1 8/3/1 7/3/1
f 13/2/1 7/2/1 12/2/1
f 14/7/1 9/7/1 8/7/1
f 14/3/1 8/3/1 13/3/1
f 15/6/1 10/6/1 9/6/1
f 15/7/1 9/7/1 14/7/1
f 16/6/1 10/6/1 15/6/1
f 17/4/1 12/4/1 11/4/1
f 17/4/1 13/4/1 12/4/1
f 17/4/1 16/4/1 15/4/1
f 17/4/1 15/4/1 14/4/1
f 17/4/1 14/4/1 13/4/1
f 18/4/1 16/4/1 17/4/1
f 19/1/2 20/1/2 21/1/2
f 21/1/2 20/1/2 22/1/2
f 21/4/2 22/4/2 23/4/2
f 23/4/2 22/4/2 24/4/2
f 30/4/3 27/4/3 26/4/3
f 30/5/3 28/5/3 27/5/3
f 31/4/3 29/4/3 28/4/3
f 31/5/3 28/5/3 30/5/3
f 32/1/3 26/1/3 25/1/3
f 33/4/3 30/4/3 26/4/3
f 33/1/3 26/1/3 32/1/3
f 33/4/3 31/4/3 30/4/3
f 34/4/3 29/4/3 31/4/3
f 34/4/3 31/4/3 33/4/3
f 36/4/4 37/4/4 40/4/4
f 37/6/4 38/6/4 40/6/4
f 38/4/4 39/4/4 41/4/4
f 40/6/4 38/6/4 41/6/4
f 35/1/4 36/1/4 42/1/4
f 36/4/4 40/4/4 43/4/4
f 42/1/4 36/1/4 43/1/4
f 40/4/4 41/4/4 43/4/4
f 41/4/4 39/4/4 44/4/4
f 43/4/4 41/4/4 44/4/4
f 47/1/5 46/1/5 45/1/5
f 48/1/5 46/1/5 47/1/5
f 49/4/6 50/4/6 51/4/6
f 51/4/6 50/4/6 52/4/6
