# MagicaVoxel @ Ephtracy

# group
o book

# material
mtllib SchoolPack-67-book.mtl
usemtl palette

# normals
vn -1 0 0
vn 1 0 0
vn 0 0 1
vn 0 0 -1
vn 0 -1 0
vn 0 1 0

# texcoords
vt 0.0175781 0.5
vt 0.373047 0.5
vt 0.849609 0.5
vt 0.853516 0.5
vt 0.869141 0.5
vt 0.896484 0.5
vt 0.958984 0.5

# verts
v 6.8 0.3 -1.5
v 6.8 0.3 -2.3
v 6.8 0.6 -1.5
v 6.8 0.6 -2.3
v 6.8 1.4 -1.5
v 6.8 1.4 -2.3
v 6.8 1.7 -1.5
v 6.8 1.7 -2.3
v 6.9 0 -1.6
v 6.9 0 -2.2
v 6.9 0.3 -1.6
v 6.9 0.3 -2.2
v 6.9 0.6 -1.6
v 6.9 0.6 -2.2
v 6.9 1.4 -1.6
v 6.9 1.4 -2.2
v 6.9 1.7 -1.6
v 6.9 1.7 -2.2
v 6.9 2 -1.6
v 6.9 2 -2.2
v 7 0.3 -1.5
v 7 0.3 -1.6
v 7 0.3 -2.2
v 7 0.3 -2.3
v 7 0.6 -1.5
v 7 0.6 -1.6
v 7 0.6 -2.2
v 7 0.6 -2.3
v 7 1.4 -1.5
v 7 1.4 -1.6
v 7 1.4 -2.2
v 7 1.4 -2.3
v 7 1.7 -1.5
v 7 1.7 -1.6
v 7 1.7 -2.2
v 7 1.7 -2.3
v 8.8 0 -1.6
v 8.8 0 -1.7
v 8.8 0 -2.1
v 8.8 0 -2.2
v 8.8 2 -1.6
v 8.8 2 -1.7
v 8.8 2 -2.1
v 8.8 2 -2.2
v 6.8 0.3 -1.5
v 6.8 0.6 -1.5
v 6.8 1.4 -1.5
v 6.8 1.7 -1.5
v 7 0.3 -1.5
v 7 0.6 -1.5
v 7 1.4 -1.5
v 7 1.7 -1.5
v 6.9 0 -1.6
v 6.9 0.3 -1.6
v 6.9 0.6 -1.6
v 6.9 1.4 -1.6
v 6.9 1.7 -1.6
v 6.9 2 -1.6
v 7 0.3 -1.6
v 7 0.6 -1.6
v 7 1.4 -1.6
v 7 1.7 -1.6
v 8.8 0 -1.6
v 8.8 2 -1.6
v 6.9 0 -2.2
v 6.9 0.3 -2.2
v 6.9 0.6 -2.2
v 6.9 1.4 -2.2
v 6.9 1.7 -2.2
v 6.9 2 -2.2
v 7 0.3 -2.2
v 7 0.6 -2.2
v 7 1.4 -2.2
v 7 1.7 -2.2
v 7.7 0.8 -2.2
v 7.7 1.4 -2.2
v 7.8 0.7 -2.2
v 7.8 0.8 -2.2
v 7.8 1.4 -2.2
v 7.8 1.5 -2.2
v 7.9 0 -2.2
v 7.9 0.1 -2.2
v 7.9 1.1 -2.2
v 7.9 1.2 -2.2
v 7.9 1.5 -2.2
v 7.9 1.6 -2.2
v 8 0.1 -2.2
v 8 0.2 -2.2
v 8 0.6 -2.2
v 8 0.7 -2.2
v 8 1 -2.2
v 8 1.1 -2.2
v 8 1.2 -2.2
v 8.1 0.2 -2.2
v 8.1 0.6 -2.2
v 8.1 0.7 -2.2
v 8.1 0.8 -2.2
v 8.1 1 -2.2
v 8.1 1.1 -2.2
v 8.2 0.7 -2.2
v 8.2 0.8 -2.2
v 8.3 1 -2.2
v 8.3 1.1 -2.2
v 8.3 1.3 -2.2
v 8.3 1.4 -2.2
v 8.4 0.2 -2.2
v 8.4 0.6 -2.2
v 8.4 1 -2.2
v 8.4 1.1 -2.2
v 8.4 1.3 -2.2
v 8.4 1.4 -2.2
v 8.5 0.1 -2.2
v 8.5 0.2 -2.2
v 8.5 0.6 -2.2
v 8.5 0.7 -2.2
v 8.5 1.5 -2.2
v 8.5 1.6 -2.2
v 8.6 0 -2.2
v 8.6 0.1 -2.2
v 8.6 0.7 -2.2
v 8.6 0.8 -2.2
v 8.6 1.4 -2.2
v 8.6 1.5 -2.2
v 8.7 0.8 -2.2
v 8.7 1.4 -2.2
v 8.8 0 -2.2
v 8.8 2 -2.2
v 6.8 0.3 -2.3
v 6.8 0.6 -2.3
v 6.8 1.4 -2.3
v 6.8 1.7 -2.3
v 7 0.3 -2.3
v 7 0.6 -2.3
v 7 1.4 -2.3
v 7 1.7 -2.3
v 6.9 0 -1.6
v 8.8 0 -1.6
v 7.1 0 -1.7
v 8.8 0 -1.7
v 7.1 0 -2.1
v 7.9 0 -2.1
v 8.6 0 -2.1
v 8.8 0 -2.1
v 6.9 0 -2.2
v 7.9 0 -2.2
v 8.6 0 -2.2
v 8.8 0 -2.2
v 6.8 0.3 -1.5
v 7 0.3 -1.5
v 6.9 0.3 -1.6
v 7 0.3 -1.6
v 6.9 0.3 -2.2
v 7 0.3 -2.2
v 6.8 0.3 -2.3
v 7 0.3 -2.3
v 6.8 1.4 -1.5
v 7 1.4 -1.5
v 6.9 1.4 -1.6
v 7 1.4 -1.6
v 6.9 1.4 -2.2
v 7 1.4 -2.2
v 6.8 1.4 -2.3
v 7 1.4 -2.3
v 6.8 0.6 -1.5
v 7 0.6 -1.5
v 6.9 0.6 -1.6
v 7 0.6 -1.6
v 6.9 0.6 -2.2
v 7 0.6 -2.2
v 6.8 0.6 -2.3
v 7 0.6 -2.3
v 6.8 1.7 -1.5
v 7 1.7 -1.5
v 6.9 1.7 -1.6
v 7 1.7 -1.6
v 6.9 1.7 -2.2
v 7 1.7 -2.2
v 6.8 1.7 -2.3
v 7 1.7 -2.3
v 6.9 2 -1.6
v 8.8 2 -1.6
v 7.1 2 -1.7
v 8.8 2 -1.7
v 7.1 2 -2.1
v 8.8 2 -2.1
v 6.9 2 -2.2
v 8.8 2 -2.2

# faces
f 3/1/1 2/1/1 1/1/1
f 4/1/1 2/1/1 3/1/1
f 7/1/1 6/1/1 5/1/1
f 8/1/1 6/1/1 7/1/1
f 11/4/1 10/4/1 9/4/1
f 12/4/1 10/4/1 11/4/1
f 15/4/1 14/4/1 13/4/1
f 16/4/1 14/4/1 15/4/1
f 19/4/1 18/4/1 17/4/1
f 20/4/1 18/4/1 19/4/1
f 21/1/2 22/1/2 25/1/2
f 25/1/2 22/1/2 26/1/2
f 23/1/2 24/1/2 27/1/2
f 27/1/2 24/1/2 28/1/2
f 29/1/2 30/1/2 33/1/2
f 33/1/2 30/1/2 34/1/2
f 31/1/2 32/1/2 35/1/2
f 35/1/2 32/1/2 36/1/2
f 37/4/2 38/4/2 41/4/2
f 38/7/2 39/7/2 42/7/2
f 41/4/2 38/4/2 42/4/2
f 39/4/2 40/4/2 43/4/2
f 42/7/2 39/7/2 43/7/2
f 43/4/2 40/4/2 44/4/2
f 49/1/3 46/1/3 45/1/3
f 50/1/3 46/1/3 49/1/3
f 51/1/3 48/1/3 47/1/3
f 52/1/3 48/1/3 51/1/3
f 59/4/3 54/4/3 53/4/3
f 60/4/3 56/4/3 55/4/3
f 61/4/3 56/4/3 60/4/3
f 62/4/3 58/4/3 57/4/3
f 63/4/3 61/4/3 60/4/3
f 63/4/3 62/4/3 61/4/3
f 63/4/3 59/4/3 53/4/3
f 63/4/3 60/4/3 59/4/3
f 64/4/3 58/4/3 62/4/3
f 64/4/3 62/4/3 63/4/3
f 65/4/4 66/4/4 71/4/4
f 67/4/4 68/4/4 72/4/4
f 72/4/4 68/4/4 73/4/4
f 69/4/4 70/4/4 74/4/4
f 72/4/4 73/4/4 75/4/4
f 73/4/4 74/4/4 75/4/4
f 71/4/4 72/4/4 75/4/4
f 75/4/4 74/4/4 76/4/4
f 71/4/4 75/4/4 77/4/4
f 75/6/4 76/6/4 78/6/4
f 77/4/4 75/4/4 78/4/4
f 76/4/4 74/4/4 79/4/4
f 78/6/4 76/6/4 79/6/4
f 79/4/4 74/4/4 80/4/4
f 65/4/4 71/4/4 81/4/4
f 71/4/4 77/4/4 81/4/4
f 81/4/4 77/4/4 82/4/4
f 77/6/4 78/6/4 83/6/4
f 79/6/4 80/6/4 83/6/4
f 78/6/4 79/6/4 83/6/4
f 83/6/4 80/6/4 84/6/4
f 80/4/4 74/4/4 85/4/4
f 84/6/4 80/6/4 85/6/4
f 85/4/4 74/4/4 86/4/4
f 82/4/4 77/4/4 87/4/4
f 81/2/4 82/2/4 87/2/4
f 87/4/4 77/4/4 88/4/4
f 88/4/4 77/4/4 89/4/4
f 77/6/4 83/6/4 90/6/4
f 89/4/4 77/4/4 90/4/4
f 90/6/4 83/6/4 91/6/4
f 83/3/4 84/3/4 92/3/4
f 91/6/4 83/6/4 92/6/4
f 85/6/4 86/6/4 93/6/4
f 92/3/4 84/3/4 93/3/4
f 84/6/4 85/6/4 93/6/4
f 88/4/4 89/4/4 94/4/4
f 87/2/4 88/2/4 94/2/4
f 90/6/4 91/6/4 95/6/4
f 94/4/4 89/4/4 95/4/4
f 89/6/4 90/6/4 95/6/4
f 95/6/4 91/6/4 96/6/4
f 96/6/4 91/6/4 97/6/4
f 91/3/4 92/3/4 98/3/4
f 97/6/4 91/6/4 98/6/4
f 92/6/4 93/6/4 99/6/4
f 98/3/4 92/3/4 99/3/4
f 96/3/4 97/3/4 100/3/4
f 95/6/4 96/6/4 100/6/4
f 97/6/4 98/6/4 101/6/4
f 100/3/4 97/3/4 101/3/4
f 98/6/4 99/6/4 101/6/4
f 100/6/4 101/6/4 102/6/4
f 101/6/4 99/6/4 102/6/4
f 99/6/4 93/6/4 103/6/4
f 102/6/4 99/6/4 103/6/4
f 93/6/4 86/6/4 104/6/4
f 103/6/4 93/6/4 104/6/4
f 104/6/4 86/6/4 105/6/4
f 87/2/4 94/2/4 106/2/4
f 94/2/4 95/2/4 106/2/4
f 100/6/4 102/6/4 107/6/4
f 106/2/4 95/2/4 107/2/4
f 95/6/4 100/6/4 107/6/4
f 102/3/4 103/3/4 108/3/4
f 107/6/4 102/6/4 108/6/4
f 103/6/4 104/6/4 109/6/4
f 108/3/4 103/3/4 109/3/4
f 104/3/4 105/3/4 110/3/4
f 109/6/4 104/6/4 110/6/4
f 105/6/4 86/6/4 111/6/4
f 110/3/4 105/3/4 111/3/4
f 87/2/4 106/2/4 112/2/4
f 81/2/4 87/2/4 112/2/4
f 106/4/4 107/4/4 113/4/4
f 112/2/4 106/2/4 113/2/4
f 109/6/4 110/6/4 114/6/4
f 113/4/4 107/4/4 114/4/4
f 107/6/4 108/6/4 114/6/4
f 108/6/4 109/6/4 114/6/4
f 110/6/4 111/6/4 114/6/4
f 114/6/4 111/6/4 115/6/4
f 111/6/4 86/6/4 116/6/4
f 115/6/4 111/6/4 116/6/4
f 86/4/4 74/4/4 117/4/4
f 116/6/4 86/6/4 117/6/4
f 81/2/4 112/2/4 118/2/4
f 112/4/4 113/4/4 119/4/4
f 118/2/4 112/2/4 119/2/4
f 114/4/4 115/4/4 119/4/4
f 113/4/4 114/4/4 119/4/4
f 115/6/4 116/6/4 120/6/4
f 119/4/4 115/4/4 120/4/4
f 120/6/4 116/6/4 121/6/4
f 121/6/4 116/6/4 122/6/4
f 116/4/4 117/4/4 123/4/4
f 122/6/4 116/6/4 123/6/4
f 118/4/4 119/4/4 124/4/4
f 121/6/4 122/6/4 124/6/4
f 119/4/4 120/4/4 124/4/4
f 120/4/4 121/4/4 124/4/4
f 122/4/4 123/4/4 125/4/4
f 124/6/4 122/6/4 125/6/4
f 118/4/4 124/4/4 126/4/4
f 124/4/4 125/4/4 126/4/4
f 74/4/4 70/4/4 127/4/4
f 126/4/4 125/4/4 127/4/4
f 123/4/4 117/4/4 127/4/4
f 117/4/4 74/4/4 127/4/4
f 125/4/4 123/4/4 127/4/4
f 128/1/4 129/1/4 132/1/4
f 132/1/4 129/1/4 133/1/4
f 130/1/4 131/1/4 134/1/4
f 134/1/4 131/1/4 135/1/4
f 138/4/5 137/4/5 136/4/5
f 139/4/5 137/4/5 138/4/5
f 140/4/5 138/4/5 136/4/5
f 140/7/5 139/7/5 138/7/5
f 141/7/5 139/7/5 140/7/5
f 142/7/5 139/7/5 141/7/5
f 143/7/5 139/7/5 142/7/5
f 144/4/5 140/4/5 136/4/5
f 144/4/5 141/4/5 140/4/5
f 145/2/5 142/2/5 141/2/5
f 145/4/5 141/4/5 144/4/5
f 146/4/5 143/4/5 142/4/5
f 146/2/5 142/2/5 145/2/5
f 147/4/5 143/4/5 146/4/5
f 150/1/5 149/1/5 148/1/5
f 151/1/5 149/1/5 150/1/5
f 152/1/5 150/1/5 148/1/5
f 154/1/5 152/1/5 148/1/5
f 154/1/5 153/1/5 152/1/5
f 155/1/5 153/1/5 154/1/5
f 158/1/5 157/1/5 156/1/5
f 159/1/5 157/1/5 158/1/5
f 160/1/5 158/1/5 156/1/5
f 162/1/5 160/1/5 156/1/5
f 162/1/5 161/1/5 160/1/5
f 163/1/5 161/1/5 162/1/5
f 164/1/6 165/1/6 166/1/6
f 166/1/6 165/1/6 167/1/6
f 164/1/6 166/1/6 168/1/6
f 164/1/6 168/1/6 170/1/6
f 168/1/6 169/1/6 170/1/6
f 170/1/6 169/1/6 171/1/6
f 172/1/6 173/1/6 174/1/6
f 174/1/6 173/1/6 175/1/6
f 172/1/6 174/1/6 176/1/6
f 172/1/6 176/1/6 178/1/6
f 176/1/6 177/1/6 178/1/6
f 178/1/6 177/1/6 179/1/6
f 180/4/6 181/4/6 182/4/6
f 182/4/6 181/4/6 183/4/6
f 180/4/6 182/4/6 184/4/6
f 182/7/6 183/7/6 184/7/6
f 184/7/6 183/7/6 185/7/6
f 180/4/6 184/4/6 186/4/6
f 184/4/6 185/4/6 186/4/6
f 186/4/6 185/4/6 187/4/6
