# MagicaVoxel @ Ephtracy

# group
o Student chair

# material
mtllib SchoolPack-74-Student chair.mtl
usemtl palette

# normals
vn 0 0 -1
vn 0 0 1
vn -1 0 0
vn 1 0 0
vn 0 -1 0
vn 0 1 0

# texcoords
vt 0.255859 0.5
vt 0.974609 0.5

# verts
v 19.9 2.6 -1
v 22 2.6 -1
v 19.9 2.8 -1
v 22 2.8 -1
v 19.7 0 -0.9
v 19.9 0 -0.9
v 21.8 0 -0.9
v 22 0 -0.9
v 19.9 2.5 -0.9
v 21.8 2.5 -0.9
v 22 2.5 -0.9
v 19.9 2.6 -0.9
v 22 2.6 -0.9
v 22.1 2.6 -0.9
v 19.9 2.8 -0.9
v 22 2.8 -0.9
v 22.1 2.8 -0.9
v 19.9 2.9 -0.9
v 22 2.9 -0.9
v 19.7 5.3 -0.9
v 19.9 5.3 -0.9
v 19.9 0.6 -0.8
v 21.8 0.6 -0.8
v 19.9 0.7 -0.8
v 21.8 0.7 -0.8
v 19.9 3.9 -0.7
v 20 3.9 -0.7
v 19.9 5.2 -0.7
v 20 5.2 -0.7
v 20.9 0.6 1.1
v 21.3 0.6 1.1
v 20.9 0.7 1.1
v 21.3 0.7 1.1
v 19.7 0 1.2
v 19.8 0 1.2
v 21.9 0 1.2
v 22 0 1.2
v 19.8 0.6 1.2
v 20 0.6 1.2
v 20.3 0.6 1.2
v 20.4 0.6 1.2
v 20.8 0.6 1.2
v 21.4 0.6 1.2
v 21.7 0.6 1.2
v 21.9 0.6 1.2
v 19.8 0.7 1.2
v 20 0.7 1.2
v 20.3 0.7 1.2
v 20.4 0.7 1.2
v 20.8 0.7 1.2
v 21.4 0.7 1.2
v 21.7 0.7 1.2
v 21.9 0.7 1.2
v 21.9 2.5 1.2
v 22 2.5 1.2
v 19.8 2.6 1.2
v 19.8 2.8 1.2
v 19.9 2.8 1.2
v 19.9 2.9 1.2
v 19.7 3.8 1.2
v 19.9 3.8 1.2
v 19.8 0 1.3
v 19.9 0 1.3
v 21.8 0 1.3
v 21.9 0 1.3
v 19.8 0.6 1.3
v 19.9 0.6 1.3
v 21.8 0.6 1.3
v 21.9 0.6 1.3
v 19.8 0.7 1.3
v 19.9 0.7 1.3
v 21.8 0.7 1.3
v 21.9 0.7 1.3
v 19.9 2.5 1.3
v 21.8 2.5 1.3
v 21.9 2.5 1.3
v 19.8 2.6 1.3
v 19.9 2.6 1.3
v 19.8 0 -0.8
v 19.9 0 -0.8
v 21.8 0 -0.8
v 21.9 0 -0.8
v 19.8 0.6 -0.8
v 19.9 0.6 -0.8
v 21.8 0.6 -0.8
v 21.9 0.6 -0.8
v 19.8 0.7 -0.8
v 19.9 0.7 -0.8
v 21.8 0.7 -0.8
v 21.9 0.7 -0.8
v 19.9 2.5 -0.8
v 21.8 2.5 -0.8
v 21.9 2.5 -0.8
v 19.8 2.6 -0.8
v 19.9 2.6 -0.8
v 19.7 0 -0.7
v 19.8 0 -0.7
v 21.9 0 -0.7
v 22 0 -0.7
v 19.8 0.6 -0.7
v 21.9 0.6 -0.7
v 19.8 0.7 -0.7
v 21.9 0.7 -0.7
v 21.9 2.5 -0.7
v 22 2.5 -0.7
v 19.8 2.6 -0.7
v 19.8 2.8 -0.7
v 19.9 2.8 -0.7
v 19.9 2.9 -0.7
v 19.7 3.8 -0.7
v 19.9 3.8 -0.7
v 20 0.6 -0.6
v 20.3 0.6 -0.6
v 20.4 0.6 -0.6
v 20.8 0.6 -0.6
v 20.9 0.6 -0.6
v 21.3 0.6 -0.6
v 21.4 0.6 -0.6
v 21.7 0.6 -0.6
v 20 0.7 -0.6
v 20.3 0.7 -0.6
v 20.4 0.7 -0.6
v 20.8 0.7 -0.6
v 20.9 0.7 -0.6
v 21.3 0.7 -0.6
v 21.4 0.7 -0.6
v 21.7 0.7 -0.6
v 19.9 3.9 1.2
v 20 3.9 1.2
v 19.9 5.2 1.2
v 20 5.2 1.2
v 19.9 0.6 1.3
v 21.8 0.6 1.3
v 19.9 0.7 1.3
v 21.8 0.7 1.3
v 19.7 0 1.4
v 19.9 0 1.4
v 21.8 0 1.4
v 22 0 1.4
v 19.9 2.5 1.4
v 21.8 2.5 1.4
v 22 2.5 1.4
v 19.9 2.6 1.4
v 22 2.6 1.4
v 22.1 2.6 1.4
v 19.9 2.8 1.4
v 22 2.8 1.4
v 22.1 2.8 1.4
v 19.9 2.9 1.4
v 22 2.9 1.4
v 19.7 5.3 1.4
v 19.9 5.3 1.4
v 19.9 2.6 1.5
v 22 2.6 1.5
v 19.9 2.8 1.5
v 22 2.8 1.5
v 19.7 0 -0.9
v 19.7 5.3 -0.9
v 19.7 0 -0.7
v 19.7 3.8 -0.7
v 19.7 5.3 -0.7
v 19.7 0 1.2
v 19.7 3.8 1.2
v 19.7 5.3 1.2
v 19.7 0 1.4
v 19.7 5.3 1.4
v 19.8 0.6 -0.7
v 19.8 0.7 -0.7
v 19.8 2.6 -0.7
v 19.8 2.8 -0.7
v 19.8 0.6 1.2
v 19.8 0.7 1.2
v 19.8 2.6 1.2
v 19.8 2.8 1.2
v 19.9 2.6 -1
v 19.9 2.8 -1
v 19.9 2.6 -0.9
v 19.9 2.8 -0.9
v 19.9 2.5 -0.8
v 19.9 2.6 -0.8
v 19.9 2.6 -0.7
v 19.9 2.8 -0.7
v 19.9 2.9 -0.7
v 19.9 2.6 1.2
v 19.9 2.8 1.2
v 19.9 2.9 1.2
v 19.9 2.5 1.3
v 19.9 2.6 1.3
v 19.9 2.6 1.4
v 19.9 2.8 1.4
v 19.9 2.6 1.5
v 19.9 2.8 1.5
v 20.3 0.6 -0.6
v 20.3 0.7 -0.6
v 20.3 0.6 1.2
v 20.3 0.7 1.2
v 20.8 0.6 -0.6
v 20.8 0.7 -0.6
v 20.8 0.6 1.2
v 20.8 0.7 1.2
v 21.3 0.6 -0.6
v 21.3 0.7 -0.6
v 21.3 0.6 1.1
v 21.3 0.7 1.1
v 21.7 0.6 -0.6
v 21.7 0.7 -0.6
v 21.7 0.6 1.2
v 21.7 0.7 1.2
v 21.8 0 -0.9
v 21.8 2.5 -0.9
v 21.8 0 -0.8
v 21.8 0.6 -0.8
v 21.8 0.7 -0.8
v 21.8 2.5 -0.8
v 21.8 0 1.3
v 21.8 0.6 1.3
v 21.8 0.7 1.3
v 21.8 2.5 1.3
v 21.8 0 1.4
v 21.8 2.5 1.4
v 21.9 0 -0.8
v 21.9 0.6 -0.8
v 21.9 0.7 -0.8
v 21.9 2.5 -0.8
v 21.9 0 -0.7
v 21.9 0.6 -0.7
v 21.9 0.7 -0.7
v 21.9 2.5 -0.7
v 21.9 0 1.2
v 21.9 0.6 1.2
v 21.9 0.7 1.2
v 21.9 2.5 1.2
v 21.9 0 1.3
v 21.9 0.6 1.3
v 21.9 0.7 1.3
v 21.9 2.5 1.3
v 19.8 0 -0.8
v 19.8 0.6 -0.8
v 19.8 0.7 -0.8
v 19.8 2.6 -0.8
v 19.8 0 -0.7
v 19.8 0.6 -0.7
v 19.8 0.7 -0.7
v 19.8 2.6 -0.7
v 19.8 0 1.2
v 19.8 0.6 1.2
v 19.8 0.7 1.2
v 19.8 2.6 1.2
v 19.8 0 1.3
v 19.8 0.6 1.3
v 19.8 0.7 1.3
v 19.8 2.6 1.3
v 19.9 0 -0.9
v 19.9 2.5 -0.9
v 19.9 2.9 -0.9
v 19.9 5.3 -0.9
v 19.9 0 -0.8
v 19.9 0.6 -0.8
v 19.9 0.7 -0.8
v 19.9 2.5 -0.8
v 19.9 2.9 -0.7
v 19.9 3.8 -0.7
v 19.9 3.9 -0.7
v 19.9 5.2 -0.7
v 19.9 5.3 -0.7
v 19.9 2.9 1.2
v 19.9 3.8 1.2
v 19.9 3.9 1.2
v 19.9 5.2 1.2
v 19.9 5.3 1.2
v 19.9 0 1.3
v 19.9 0.6 1.3
v 19.9 0.7 1.3
v 19.9 2.5 1.3
v 19.9 0 1.4
v 19.9 2.5 1.4
v 19.9 2.9 1.4
v 19.9 5.3 1.4
v 20 3.9 -0.7
v 20 5.2 -0.7
v 20 0.6 -0.6
v 20 0.7 -0.6
v 20 0.6 1.2
v 20 0.7 1.2
v 20 3.9 1.2
v 20 5.2 1.2
v 20.4 0.6 -0.6
v 20.4 0.7 -0.6
v 20.4 0.6 1.2
v 20.4 0.7 1.2
v 20.9 0.6 -0.6
v 20.9 0.7 -0.6
v 20.9 0.6 1.1
v 20.9 0.7 1.1
v 21.4 0.6 -0.6
v 21.4 0.7 -0.6
v 21.4 0.6 1.2
v 21.4 0.7 1.2
v 21.9 0.6 -0.7
v 21.9 0.7 -0.7
v 21.9 0.6 1.2
v 21.9 0.7 1.2
v 22 2.6 -1
v 22 2.8 -1
v 22 0 -0.9
v 22 2.5 -0.9
v 22 2.6 -0.9
v 22 2.8 -0.9
v 22 2.9 -0.9
v 22 0 -0.7
v 22 2.5 -0.7
v 22 0 1.2
v 22 2.5 1.2
v 22 0 1.4
v 22 2.5 1.4
v 22 2.6 1.4
v 22 2.8 1.4
v 22 2.9 1.4
v 22 2.6 1.5
v 22 2.8 1.5
v 22.1 2.6 -0.9
v 22.1 2.8 -0.9
v 22.1 2.6 1.4
v 22.1 2.8 1.4
v 19.7 0 -0.9
v 19.7 0 -0.7
v 19.7 0 1.2
v 19.7 0 1.4
v 19.8 0 -0.8
v 19.8 0 -0.7
v 19.8 0 1.2
v 19.8 0 1.3
v 19.9 0 -0.9
v 19.9 0 -0.8
v 19.9 0 1.3
v 19.9 0 1.4
v 21.8 0 -0.9
v 21.8 0 -0.8
v 21.8 0 1.3
v 21.8 0 1.4
v 21.9 0 -0.8
v 21.9 0 -0.7
v 21.9 0 1.2
v 21.9 0 1.3
v 22 0 -0.9
v 22 0 -0.7
v 22 0 1.2
v 22 0 1.4
v 19.8 0.6 -0.8
v 19.8 0.6 -0.7
v 19.8 0.6 1.2
v 19.8 0.6 1.3
v 19.9 0.6 -0.8
v 19.9 0.6 1.3
v 20 0.6 -0.6
v 20 0.6 1.2
v 20.3 0.6 -0.6
v 20.3 0.6 1.2
v 20.4 0.6 -0.6
v 20.4 0.6 1.2
v 20.8 0.6 -0.6
v 20.8 0.6 1.2
v 20.9 0.6 -0.6
v 20.9 0.6 1.1
v 21.3 0.6 -0.6
v 21.3 0.6 1.1
v 21.4 0.6 -0.6
v 21.4 0.6 1.2
v 21.7 0.6 -0.6
v 21.7 0.6 1.2
v 21.8 0.6 -0.8
v 21.8 0.6 1.3
v 21.9 0.6 -0.8
v 21.9 0.6 -0.7
v 21.9 0.6 1.2
v 21.9 0.6 1.3
v 19.9 2.5 -0.9
v 19.9 2.5 -0.8
v 19.9 2.5 1.3
v 19.9 2.5 1.4
v 21.8 2.5 -0.9
v 21.8 2.5 -0.8
v 21.8 2.5 1.3
v 21.8 2.5 1.4
v 21.9 2.5 -0.8
v 21.9 2.5 -0.7
v 21.9 2.5 1.2
v 21.9 2.5 1.3
v 22 2.5 -0.7
v 22 2.5 1.2
v 19.8 2.6 -0.8
v 19.8 2.6 -0.7
v 19.8 2.6 1.2
v 19.8 2.6 1.3
v 19.9 2.6 -1
v 19.9 2.6 -0.9
v 19.9 2.6 -0.8
v 19.9 2.6 -0.7
v 19.9 2.6 1.2
v 19.9 2.6 1.3
v 19.9 2.6 1.4
v 19.9 2.6 1.5
v 22 2.6 -1
v 22 2.6 -0.9
v 22 2.6 1.4
v 22 2.6 1.5
v 22.1 2.6 -0.9
v 22.1 2.6 1.4
v 19.7 3.8 -0.7
v 19.7 3.8 1.2
v 19.9 3.8 -0.7
v 19.9 3.8 1.2
v 19.9 3.9 -0.7
v 19.9 3.9 1.2
v 20 3.9 -0.7
v 20 3.9 1.2
v 19.8 0.7 -0.8
v 19.8 0.7 -0.7
v 19.8 0.7 1.2
v 19.8 0.7 1.3
v 19.9 0.7 -0.8
v 19.9 0.7 1.3
v 20 0.7 -0.6
v 20 0.7 1.2
v 20.3 0.7 -0.6
v 20.3 0.7 1.2
v 20.4 0.7 -0.6
v 20.4 0.7 1.2
v 20.8 0.7 -0.6
v 20.8 0.7 1.2
v 20.9 0.7 -0.6
v 20.9 0.7 1.1
v 21.3 0.7 -0.6
v 21.3 0.7 1.1
v 21.4 0.7 -0.6
v 21.4 0.7 1.2
v 21.7 0.7 -0.6
v 21.7 0.7 1.2
v 21.8 0.7 -0.8
v 21.8 0.7 1.3
v 21.9 0.7 -0.8
v 21.9 0.7 -0.7
v 21.9 0.7 1.2
v 21.9 0.7 1.3
v 19.8 2.8 -0.7
v 19.8 2.8 1.2
v 19.9 2.8 -1
v 19.9 2.8 -0.9
v 19.9 2.8 -0.7
v 19.9 2.8 1.2
v 19.9 2.8 1.4
v 19.9 2.8 1.5
v 22 2.8 -1
v 22 2.8 -0.9
v 22 2.8 1.4
v 22 2.8 1.5
v 22.1 2.8 -0.9
v 22.1 2.8 1.4
v 19.9 2.9 -0.9
v 19.9 2.9 -0.7
v 19.9 2.9 1.2
v 19.9 2.9 1.4
v 22 2.9 -0.9
v 22 2.9 1.4
v 19.9 5.2 -0.7
v 19.9 5.2 1.2
v 20 5.2 -0.7
v 20 5.2 1.2
v 19.7 5.3 -0.9
v 19.7 5.3 -0.7
v 19.7 5.3 1.2
v 19.7 5.3 1.4
v 19.9 5.3 -0.9
v 19.9 5.3 -0.7
v 19.9 5.3 1.2
v 19.9 5.3 1.4

# faces
f 3/1/1 2/1/1 1/1/1
f 4/1/1 2/1/1 3/1/1
f 9/2/1 6/2/1 5/2/1
f 10/2/1 8/2/1 7/2/1
f 11/2/1 8/2/1 10/2/1
f 12/2/1 9/2/1 5/2/1
f 12/1/1 10/1/1 9/1/1
f 12/1/1 11/1/1 10/1/1
f 13/1/1 11/1/1 12/1/1
f 15/2/1 12/2/1 5/2/1
f 16/1/1 14/1/1 13/1/1
f 17/1/1 14/1/1 16/1/1
f 18/2/1 15/2/1 5/2/1
f 18/1/1 16/1/1 15/1/1
f 19/1/1 16/1/1 18/1/1
f 20/2/1 18/2/1 5/2/1
f 21/2/1 18/2/1 20/2/1
f 24/2/1 23/2/1 22/2/1
f 25/2/1 23/2/1 24/2/1
f 28/1/1 27/1/1 26/1/1
f 29/1/1 27/1/1 28/1/1
f 32/2/1 31/2/1 30/2/1
f 33/2/1 31/2/1 32/2/1
f 38/2/1 35/2/1 34/2/1
f 45/2/1 37/2/1 36/2/1
f 46/2/1 38/2/1 34/2/1
f 47/2/1 40/2/1 39/2/1
f 48/2/1 40/2/1 47/2/1
f 49/2/1 42/2/1 41/2/1
f 50/2/1 42/2/1 49/2/1
f 51/2/1 44/2/1 43/2/1
f 52/2/1 44/2/1 51/2/1
f 53/2/1 37/2/1 45/2/1
f 54/2/1 37/2/1 53/2/1
f 55/2/1 37/2/1 54/2/1
f 56/2/1 46/2/1 34/2/1
f 57/2/1 56/2/1 34/2/1
f 59/2/1 58/2/1 57/2/1
f 60/2/1 57/2/1 34/2/1
f 60/2/1 59/2/1 57/2/1
f 61/2/1 59/2/1 60/2/1
f 66/2/1 63/2/1 62/2/1
f 67/2/1 63/2/1 66/2/1
f 68/2/1 65/2/1 64/2/1
f 69/2/1 65/2/1 68/2/1
f 74/2/1 71/2/1 70/2/1
f 75/2/1 73/2/1 72/2/1
f 76/2/1 73/2/1 75/2/1
f 77/2/1 74/2/1 70/2/1
f 78/2/1 74/2/1 77/2/1
f 79/2/2 80/2/2 83/2/2
f 83/2/2 80/2/2 84/2/2
f 81/2/2 82/2/2 85/2/2
f 85/2/2 82/2/2 86/2/2
f 87/2/2 88/2/2 91/2/2
f 89/2/2 90/2/2 92/2/2
f 92/2/2 90/2/2 93/2/2
f 87/2/2 91/2/2 94/2/2
f 94/2/2 91/2/2 95/2/2
f 96/2/2 97/2/2 100/2/2
f 98/2/2 99/2/2 101/2/2
f 96/2/2 100/2/2 102/2/2
f 101/2/2 99/2/2 103/2/2
f 103/2/2 99/2/2 104/2/2
f 104/2/2 99/2/2 105/2/2
f 96/2/2 102/2/2 106/2/2
f 96/2/2 106/2/2 107/2/2
f 107/2/2 108/2/2 109/2/2
f 96/2/2 107/2/2 110/2/2
f 107/2/2 109/2/2 110/2/2
f 110/2/2 109/2/2 111/2/2
f 112/2/2 113/2/2 120/2/2
f 120/2/2 113/2/2 121/2/2
f 114/2/2 115/2/2 122/2/2
f 122/2/2 115/2/2 123/2/2
f 116/2/2 117/2/2 124/2/2
f 124/2/2 117/2/2 125/2/2
f 118/2/2 119/2/2 126/2/2
f 126/2/2 119/2/2 127/2/2
f 128/1/2 129/1/2 130/1/2
f 130/1/2 129/1/2 131/1/2
f 132/2/2 133/2/2 134/2/2
f 134/2/2 133/2/2 135/2/2
f 136/2/2 137/2/2 140/2/2
f 138/2/2 139/2/2 141/2/2
f 141/2/2 139/2/2 142/2/2
f 136/2/2 140/2/2 143/2/2
f 140/1/2 141/1/2 143/1/2
f 141/1/2 142/1/2 143/1/2
f 143/1/2 142/1/2 144/1/2
f 136/2/2 143/2/2 146/2/2
f 144/1/2 145/1/2 147/1/2
f 147/1/2 145/1/2 148/1/2
f 136/2/2 146/2/2 149/2/2
f 146/1/2 147/1/2 149/1/2
f 149/1/2 147/1/2 150/1/2
f 136/2/2 149/2/2 151/2/2
f 151/2/2 149/2/2 152/2/2
f 153/1/2 154/1/2 155/1/2
f 155/1/2 154/1/2 156/1/2
f 159/2/3 158/2/3 157/2/3
f 160/2/3 158/2/3 159/2/3
f 161/2/3 158/2/3 160/2/3
f 163/1/3 161/1/3 160/1/3
f 164/1/3 161/1/3 163/1/3
f 165/2/3 163/2/3 162/2/3
f 165/2/3 164/2/3 163/2/3
f 166/2/3 164/2/3 165/2/3
f 171/2/3 168/2/3 167/2/3
f 172/2/3 168/2/3 171/2/3
f 173/1/3 170/1/3 169/1/3
f 174/1/3 170/1/3 173/1/3
f 177/1/3 176/1/3 175/1/3
f 178/1/3 176/1/3 177/1/3
f 181/1/3 180/1/3 179/1/3
f 184/1/3 181/1/3 179/1/3
f 185/1/3 183/1/3 182/1/3
f 186/1/3 183/1/3 185/1/3
f 187/1/3 184/1/3 179/1/3
f 188/1/3 184/1/3 187/1/3
f 191/1/3 190/1/3 189/1/3
f 192/1/3 190/1/3 191/1/3
f 195/2/3 194/2/3 193/2/3
f 196/2/3 194/2/3 195/2/3
f 199/2/3 198/2/3 197/2/3
f 200/2/3 198/2/3 199/2/3
f 203/2/3 202/2/3 201/2/3
f 204/2/3 202/2/3 203/2/3
f 207/2/3 206/2/3 205/2/3
f 208/2/3 206/2/3 207/2/3
f 211/2/3 210/2/3 209/2/3
f 212/2/3 210/2/3 211/2/3
f 213/2/3 210/2/3 212/2/3
f 214/2/3 210/2/3 213/2/3
f 219/2/3 216/2/3 215/2/3
f 219/2/3 218/2/3 217/2/3
f 219/2/3 217/2/3 216/2/3
f 220/2/3 218/2/3 219/2/3
f 225/2/3 222/2/3 221/2/3
f 226/2/3 222/2/3 225/2/3
f 227/2/3 224/2/3 223/2/3
f 228/2/3 224/2/3 227/2/3
f 233/2/3 230/2/3 229/2/3
f 234/2/3 230/2/3 233/2/3
f 235/2/3 232/2/3 231/2/3
f 236/2/3 232/2/3 235/2/3
f 237/2/4 238/2/4 241/2/4
f 241/2/4 238/2/4 242/2/4
f 239/2/4 240/2/4 243/2/4
f 243/2/4 240/2/4 244/2/4
f 245/2/4 246/2/4 249/2/4
f 249/2/4 246/2/4 250/2/4
f 247/2/4 248/2/4 251/2/4
f 251/2/4 248/2/4 252/2/4
f 253/2/4 254/2/4 257/2/4
f 257/2/4 254/2/4 258/2/4
f 258/2/4 254/2/4 259/2/4
f 259/2/4 254/2/4 260/2/4
f 255/2/4 256/2/4 261/2/4
f 261/2/4 256/2/4 262/2/4
f 262/2/4 256/2/4 263/2/4
f 263/2/4 256/2/4 264/2/4
f 264/2/4 256/2/4 265/2/4
f 262/1/4 263/1/4 267/1/4
f 267/1/4 263/1/4 268/1/4
f 264/1/4 265/1/4 269/1/4
f 269/1/4 265/1/4 270/1/4
f 271/2/4 272/2/4 275/2/4
f 273/2/4 274/2/4 275/2/4
f 272/2/4 273/2/4 275/2/4
f 275/2/4 274/2/4 276/2/4
f 267/2/4 268/2/4 277/2/4
f 266/2/4 267/2/4 277/2/4
f 268/2/4 269/2/4 277/2/4
f 269/2/4 270/2/4 277/2/4
f 277/2/4 270/2/4 278/2/4
f 281/2/4 282/2/4 283/2/4
f 283/2/4 282/2/4 284/2/4
f 279/1/4 280/1/4 285/1/4
f 285/1/4 280/1/4 286/1/4
f 287/2/4 288/2/4 289/2/4
f 289/2/4 288/2/4 290/2/4
f 291/2/4 292/2/4 293/2/4
f 293/2/4 292/2/4 294/2/4
f 295/2/4 296/2/4 297/2/4
f 297/2/4 296/2/4 298/2/4
f 299/2/4 300/2/4 301/2/4
f 301/2/4 300/2/4 302/2/4
f 303/1/4 304/1/4 307/1/4
f 307/1/4 304/1/4 308/1/4
f 305/2/4 306/2/4 310/2/4
f 306/1/4 307/1/4 311/1/4
f 310/2/4 306/2/4 311/2/4
f 311/1/4 307/1/4 313/1/4
f 312/2/4 313/2/4 314/2/4
f 313/1/4 307/1/4 315/1/4
f 314/2/4 313/2/4 315/2/4
f 315/1/4 307/1/4 316/1/4
f 308/1/4 309/1/4 317/1/4
f 317/1/4 309/1/4 318/1/4
f 316/1/4 317/1/4 319/1/4
f 319/1/4 317/1/4 320/1/4
f 321/1/4 322/1/4 323/1/4
f 323/1/4 322/1/4 324/1/4
f 329/2/5 326/2/5 325/2/5
f 330/2/5 326/2/5 329/2/5
f 331/2/5 328/2/5 327/2/5
f 332/2/5 328/2/5 331/2/5
f 333/2/5 329/2/5 325/2/5
f 334/2/5 329/2/5 333/2/5
f 335/2/5 328/2/5 332/2/5
f 336/2/5 328/2/5 335/2/5
f 341/2/5 338/2/5 337/2/5
f 344/2/5 340/2/5 339/2/5
f 345/2/5 342/2/5 341/2/5
f 345/2/5 341/2/5 337/2/5
f 346/2/5 342/2/5 345/2/5
f 347/2/5 344/2/5 343/2/5
f 348/2/5 340/2/5 344/2/5
f 348/2/5 344/2/5 347/2/5
f 353/2/5 350/2/5 349/2/5
f 353/2/5 352/2/5 351/2/5
f 353/2/5 351/2/5 350/2/5
f 354/2/5 352/2/5 353/2/5
f 355/2/5 354/2/5 353/2/5
f 356/2/5 354/2/5 355/2/5
f 357/2/5 355/2/5 353/2/5
f 358/2/5 354/2/5 356/2/5
f 359/2/5 357/2/5 353/2/5
f 359/2/5 358/2/5 357/2/5
f 360/2/5 354/2/5 358/2/5
f 360/2/5 358/2/5 359/2/5
f 361/2/5 359/2/5 353/2/5
f 362/2/5 354/2/5 360/2/5
f 363/2/5 361/2/5 353/2/5
f 363/2/5 362/2/5 361/2/5
f 364/2/5 362/2/5 363/2/5
f 365/2/5 363/2/5 353/2/5
f 366/2/5 362/2/5 364/2/5
f 367/2/5 365/2/5 353/2/5
f 367/2/5 366/2/5 365/2/5
f 368/2/5 354/2/5 362/2/5
f 368/2/5 366/2/5 367/2/5
f 368/2/5 362/2/5 366/2/5
f 369/2/5 367/2/5 353/2/5
f 370/2/5 354/2/5 368/2/5
f 371/2/5 369/2/5 353/2/5
f 371/2/5 370/2/5 369/2/5
f 372/2/5 354/2/5 370/2/5
f 372/2/5 370/2/5 371/2/5
f 373/2/5 372/2/5 371/2/5
f 374/2/5 372/2/5 373/2/5
f 375/2/5 372/2/5 374/2/5
f 376/2/5 372/2/5 375/2/5
f 381/1/5 378/1/5 377/1/5
f 381/1/5 380/1/5 379/1/5
f 381/1/5 379/1/5 378/1/5
f 382/1/5 380/1/5 381/1/5
f 383/1/5 380/1/5 382/1/5
f 384/1/5 380/1/5 383/1/5
f 385/1/5 383/1/5 382/1/5
f 386/1/5 383/1/5 385/1/5
f 387/1/5 383/1/5 386/1/5
f 388/1/5 383/1/5 387/1/5
f 389/1/5 387/1/5 386/1/5
f 390/1/5 387/1/5 389/1/5
f 397/2/5 392/2/5 391/2/5
f 398/1/5 393/1/5 392/1/5
f 398/2/5 392/2/5 397/2/5
f 399/2/5 394/2/5 393/2/5
f 399/1/5 393/1/5 398/1/5
f 400/2/5 394/2/5 399/2/5
f 403/1/5 396/1/5 395/1/5
f 404/1/5 396/1/5 403/1/5
f 405/1/5 402/1/5 401/1/5
f 406/1/5 402/1/5 405/1/5
f 407/1/5 405/1/5 404/1/5
f 408/1/5 405/1/5 407/1/5
f 411/1/5 410/1/5 409/1/5
f 412/1/5 410/1/5 411/1/5
f 415/1/5 414/1/5 413/1/5
f 416/1/5 414/1/5 415/1/5
f 417/2/6 418/2/6 421/2/6
f 419/2/6 420/2/6 421/2/6
f 418/2/6 419/2/6 421/2/6
f 421/2/6 420/2/6 422/2/6
f 421/2/6 422/2/6 423/2/6
f 423/2/6 422/2/6 424/2/6
f 421/2/6 423/2/6 425/2/6
f 424/2/6 422/2/6 426/2/6
f 421/2/6 425/2/6 427/2/6
f 425/2/6 426/2/6 427/2/6
f 426/2/6 422/2/6 428/2/6
f 427/2/6 426/2/6 428/2/6
f 421/2/6 427/2/6 429/2/6
f 428/2/6 422/2/6 430/2/6
f 421/2/6 429/2/6 431/2/6
f 429/2/6 430/2/6 431/2/6
f 431/2/6 430/2/6 432/2/6
f 421/2/6 431/2/6 433/2/6
f 432/2/6 430/2/6 434/2/6
f 421/2/6 433/2/6 435/2/6
f 433/2/6 434/2/6 435/2/6
f 430/2/6 422/2/6 436/2/6
f 435/2/6 434/2/6 436/2/6
f 434/2/6 430/2/6 436/2/6
f 421/2/6 435/2/6 437/2/6
f 436/2/6 422/2/6 438/2/6
f 421/2/6 437/2/6 439/2/6
f 437/2/6 438/2/6 439/2/6
f 438/2/6 422/2/6 440/2/6
f 439/2/6 438/2/6 440/2/6
f 439/2/6 440/2/6 441/2/6
f 441/2/6 440/2/6 442/2/6
f 442/2/6 440/2/6 443/2/6
f 443/2/6 440/2/6 444/2/6
f 445/1/6 446/1/6 449/1/6
f 449/1/6 446/1/6 450/1/6
f 447/1/6 448/1/6 453/1/6
f 453/1/6 448/1/6 454/1/6
f 451/1/6 452/1/6 455/1/6
f 455/1/6 452/1/6 456/1/6
f 454/1/6 455/1/6 457/1/6
f 457/1/6 455/1/6 458/1/6
f 459/1/6 460/1/6 463/1/6
f 461/1/6 462/1/6 463/1/6
f 460/1/6 461/1/6 463/1/6
f 463/1/6 462/1/6 464/1/6
f 465/1/6 466/1/6 467/1/6
f 467/1/6 466/1/6 468/1/6
f 469/2/6 470/2/6 473/2/6
f 470/1/6 471/1/6 474/1/6
f 473/2/6 470/2/6 474/2/6
f 471/2/6 472/2/6 475/2/6
f 474/1/6 471/1/6 475/1/6
f 475/2/6 472/2/6 476/2/6
