# MagicaVoxel @ Ephtracy

# group
o Wide scientific vessel

# material
mtllib SchoolPack-11-Wide scientific vessel.mtl
usemtl palette

# normals
vn -1 0 0
vn 1 0 0
vn 0 0 1
vn 0 0 -1
vn 0 -1 0
vn 0 1 0

# texcoords
vt 0.900391 0.5
vt 0.962891 0.5

# verts
v 14.6 6.7 -17
v 14.6 6.7 -17.5
v 14.6 6.8 -17
v 14.6 6.8 -17.5
v 14.7 6.1 -17
v 14.7 6.1 -17.5
v 14.7 6.6 -17
v 14.7 6.6 -17.5
v 14.7 6.7 -17
v 14.7 6.7 -17.5
v 14.8 6.1 -16.9
v 14.8 6.1 -17
v 14.8 6.1 -17.5
v 14.8 6.1 -17.6
v 14.8 6.6 -16.9
v 14.8 6.6 -17
v 14.8 6.6 -17.5
v 14.8 6.6 -17.6
v 14.8 6.7 -16.8
v 14.8 6.7 -16.9
v 14.8 6.7 -17.6
v 14.8 6.7 -17.7
v 14.8 6.8 -16.8
v 14.8 6.8 -17
v 14.8 6.8 -17.5
v 14.8 6.8 -17.7
v 15.3 6.6 -17
v 15.3 6.6 -17.5
v 15.3 6.8 -17
v 15.3 6.8 -17.5
v 14.8 6.6 -17
v 14.8 6.6 -17.5
v 14.8 6.8 -17
v 14.8 6.8 -17.5
v 15.3 6.1 -16.9
v 15.3 6.1 -17
v 15.3 6.1 -17.5
v 15.3 6.1 -17.6
v 15.3 6.6 -16.9
v 15.3 6.6 -17
v 15.3 6.6 -17.5
v 15.3 6.6 -17.6
v 15.3 6.7 -16.8
v 15.3 6.7 -16.9
v 15.3 6.7 -17.6
v 15.3 6.7 -17.7
v 15.3 6.8 -16.8
v 15.3 6.8 -17
v 15.3 6.8 -17.5
v 15.3 6.8 -17.7
v 15.4 6.1 -17
v 15.4 6.1 -17.5
v 15.4 6.6 -17
v 15.4 6.6 -17.5
v 15.4 6.7 -17
v 15.4 6.7 -17.5
v 15.5 6.7 -17
v 15.5 6.7 -17.5
v 15.5 6.8 -17
v 15.5 6.8 -17.5
v 14.8 6.7 -16.8
v 14.8 6.8 -16.8
v 15.3 6.7 -16.8
v 15.3 6.8 -16.8
v 14.8 6.1 -16.9
v 14.8 6.6 -16.9
v 14.8 6.7 -16.9
v 15.3 6.1 -16.9
v 15.3 6.6 -16.9
v 15.3 6.7 -16.9
v 14.6 6.7 -17
v 14.6 6.8 -17
v 14.7 6.1 -17
v 14.7 6.6 -17
v 14.7 6.7 -17
v 14.8 6.1 -17
v 14.8 6.6 -17
v 14.8 6.8 -17
v 15.3 6.1 -17
v 15.3 6.6 -17
v 15.3 6.8 -17
v 15.4 6.1 -17
v 15.4 6.6 -17
v 15.4 6.7 -17
v 15.5 6.7 -17
v 15.5 6.8 -17
v 14.8 6.6 -17.5
v 14.8 6.8 -17.5
v 15.3 6.6 -17.5
v 15.3 6.8 -17.5
v 14.8 6.6 -17
v 14.8 6.8 -17
v 15.3 6.6 -17
v 15.3 6.8 -17
v 14.6 6.7 -17.5
v 14.6 6.8 -17.5
v 14.7 6.1 -17.5
v 14.7 6.6 -17.5
v 14.7 6.7 -17.5
v 14.8 6.1 -17.5
v 14.8 6.6 -17.5
v 14.8 6.8 -17.5
v 15.3 6.1 -17.5
v 15.3 6.6 -17.5
v 15.3 6.8 -17.5
v 15.4 6.1 -17.5
v 15.4 6.6 -17.5
v 15.4 6.7 -17.5
v 15.5 6.7 -17.5
v 15.5 6.8 -17.5
v 14.8 6.1 -17.6
v 14.8 6.6 -17.6
v 14.8 6.7 -17.6
v 15.3 6.1 -17.6
v 15.3 6.6 -17.6
v 15.3 6.7 -17.6
v 14.8 6.7 -17.7
v 14.8 6.8 -17.7
v 15.3 6.7 -17.7
v 15.3 6.8 -17.7
v 14.8 6.1 -16.9
v 15.3 6.1 -16.9
v 14.7 6.1 -17
v 14.8 6.1 -17
v 15.3 6.1 -17
v 15.4 6.1 -17
v 14.7 6.1 -17.5
v 14.8 6.1 -17.5
v 15.3 6.1 -17.5
v 15.4 6.1 -17.5
v 14.8 6.1 -17.6
v 15.3 6.1 -17.6
v 14.8 6.7 -16.8
v 15.3 6.7 -16.8
v 14.8 6.7 -16.9
v 15.3 6.7 -16.9
v 14.6 6.7 -17
v 14.7 6.7 -17
v 15.4 6.7 -17
v 15.5 6.7 -17
v 14.6 6.7 -17.5
v 14.7 6.7 -17.5
v 15.4 6.7 -17.5
v 15.5 6.7 -17.5
v 14.8 6.7 -17.6
v 15.3 6.7 -17.6
v 14.8 6.7 -17.7
v 15.3 6.7 -17.7
v 14.8 6.6 -17
v 15.3 6.6 -17
v 14.8 6.6 -17.5
v 15.3 6.6 -17.5
v 14.8 6.8 -16.8
v 15.3 6.8 -16.8
v 14.6 6.8 -17
v 14.8 6.8 -17
v 15.3 6.8 -17
v 15.5 6.8 -17
v 14.6 6.8 -17.5
v 14.8 6.8 -17.5
v 15.3 6.8 -17.5
v 15.5 6.8 -17.5
v 14.8 6.8 -17.7
v 15.3 6.8 -17.7

# faces
f 3/2/1 2/2/1 1/2/1
f 4/2/1 2/2/1 3/2/1
f 7/1/1 6/1/1 5/1/1
f 8/1/1 6/1/1 7/1/1
f 9/2/1 8/2/1 7/2/1
f 10/2/1 8/2/1 9/2/1
f 15/1/1 12/1/1 11/1/1
f 16/1/1 12/1/1 15/1/1
f 17/1/1 14/1/1 13/1/1
f 18/1/1 14/1/1 17/1/1
f 20/2/1 16/2/1 15/2/1
f 21/2/1 18/2/1 17/2/1
f 23/2/1 20/2/1 19/2/1
f 24/2/1 16/2/1 20/2/1
f 24/2/1 20/2/1 23/2/1
f 25/2/1 21/2/1 17/2/1
f 25/2/1 22/2/1 21/2/1
f 26/2/1 22/2/1 25/2/1
f 29/2/1 28/2/1 27/2/1
f 30/2/1 28/2/1 29/2/1
f 31/2/2 32/2/2 33/2/2
f 33/2/2 32/2/2 34/2/2
f 35/1/2 36/1/2 39/1/2
f 39/1/2 36/1/2 40/1/2
f 37/1/2 38/1/2 41/1/2
f 41/1/2 38/1/2 42/1/2
f 39/2/2 40/2/2 44/2/2
f 41/2/2 42/2/2 45/2/2
f 43/2/2 44/2/2 47/2/2
f 44/2/2 40/2/2 48/2/2
f 47/2/2 44/2/2 48/2/2
f 41/2/2 45/2/2 49/2/2
f 45/2/2 46/2/2 49/2/2
f 49/2/2 46/2/2 50/2/2
f 51/1/2 52/1/2 53/1/2
f 53/1/2 52/1/2 54/1/2
f 53/2/2 54/2/2 55/2/2
f 55/2/2 54/2/2 56/2/2
f 57/2/2 58/2/2 59/2/2
f 59/2/2 58/2/2 60/2/2
f 63/2/3 62/2/3 61/2/3
f 64/2/3 62/2/3 63/2/3
f 68/1/3 66/1/3 65/1/3
f 69/2/3 67/2/3 66/2/3
f 69/1/3 66/1/3 68/1/3
f 70/2/3 67/2/3 69/2/3
f 75/2/3 72/2/3 71/2/3
f 76/1/3 74/1/3 73/1/3
f 77/2/3 75/2/3 74/2/3
f 77/1/3 74/1/3 76/1/3
f 78/2/3 72/2/3 75/2/3
f 78/2/3 75/2/3 77/2/3
f 82/1/3 80/1/3 79/1/3
f 83/2/3 81/2/3 80/2/3
f 83/1/3 80/1/3 82/1/3
f 84/2/3 81/2/3 83/2/3
f 85/2/3 81/2/3 84/2/3
f 86/2/3 81/2/3 85/2/3
f 89/2/3 88/2/3 87/2/3
f 90/2/3 88/2/3 89/2/3
f 91/2/4 92/2/4 93/2/4
f 93/2/4 92/2/4 94/2/4
f 95/2/4 96/2/4 99/2/4
f 97/1/4 98/1/4 100/1/4
f 98/2/4 99/2/4 101/2/4
f 100/1/4 98/1/4 101/1/4
f 99/2/4 96/2/4 102/2/4
f 101/2/4 99/2/4 102/2/4
f 103/1/4 104/1/4 106/1/4
f 104/2/4 105/2/4 107/2/4
f 106/1/4 104/1/4 107/1/4
f 107/2/4 105/2/4 108/2/4
f 108/2/4 105/2/4 109/2/4
f 109/2/4 105/2/4 110/2/4
f 111/1/4 112/1/4 114/1/4
f 112/2/4 113/2/4 115/2/4
f 114/1/4 112/1/4 115/1/4
f 115/2/4 113/2/4 116/2/4
f 117/2/4 118/2/4 119/2/4
f 119/2/4 118/2/4 120/2/4
f 124/1/5 122/1/5 121/1/5
f 125/1/5 122/1/5 124/1/5
f 127/1/5 124/1/5 123/1/5
f 127/1/5 126/1/5 125/1/5
f 127/1/5 125/1/5 124/1/5
f 128/1/5 126/1/5 127/1/5
f 129/1/5 126/1/5 128/1/5
f 130/1/5 126/1/5 129/1/5
f 131/1/5 129/1/5 128/1/5
f 132/1/5 129/1/5 131/1/5
f 135/2/5 134/2/5 133/2/5
f 136/2/5 134/2/5 135/2/5
f 141/2/5 138/2/5 137/2/5
f 142/2/5 138/2/5 141/2/5
f 143/2/5 140/2/5 139/2/5
f 144/2/5 140/2/5 143/2/5
f 147/2/5 146/2/5 145/2/5
f 148/2/5 146/2/5 147/2/5
f 149/1/6 150/1/6 151/1/6
f 151/1/6 150/1/6 152/1/6
f 153/2/6 154/2/6 156/2/6
f 156/2/6 154/2/6 157/2/6
f 155/2/6 156/2/6 159/2/6
f 159/2/6 156/2/6 160/2/6
f 157/2/6 158/2/6 161/2/6
f 161/2/6 158/2/6 162/2/6
f 160/2/6 161/2/6 163/2/6
f 163/2/6 161/2/6 164/2/6
