# MagicaVoxel @ Ephtracy

# group
o Urinator

# material
mtllib SchoolPack-8-Urinator.mtl
usemtl palette

# normals
vn -1 0 0
vn 1 0 0
vn 0 0 1
vn 0 0 -1
vn 0 -1 0
vn 0 1 0

# texcoords
vt 0.958984 0.5
vt 0.978516 0.5
vt 0.990234 0.5

# verts
v -6.7 0.1 -19.4
v -6.7 0.1 -20.4
v -6.7 2.9 -19.4
v -6.7 2.9 -20.4
v -6.6 0 -19.4
v -6.6 0 -20.4
v -6.6 0.1 -19.3
v -6.6 0.1 -19.4
v -6.6 0.1 -20.4
v -6.6 0.1 -20.5
v -6.6 2.9 -19.3
v -6.6 2.9 -19.4
v -6.6 2.9 -20.4
v -6.6 2.9 -20.5
v -6.6 3 -19.4
v -6.6 3 -20.4
v -5.9 3 -19.4
v -5.9 3 -19.7
v -5.9 3 -20
v -5.9 3 -20.3
v -5.9 3.1 -20
v -5.9 3.1 -20.3
v -5.9 3.5 -19.2
v -5.9 3.5 -19.4
v -5.9 3.6 -19.6
v -5.9 3.6 -19.7
v -5.9 3.8 -19.2
v -5.9 3.8 -19.6
v -5.8 0.2 -19.6
v -5.8 0.2 -19.7
v -5.8 0.2 -19.8
v -5.8 0.2 -19.9
v -5.8 0.3 -19.6
v -5.8 0.3 -19.7
v -5.8 0.3 -19.8
v -5.8 0.3 -19.9
v -5.7 3.6 -19.2
v -5.7 3.6 -19.5
v -5.7 3.7 -19.2
v -5.7 3.7 -19.5
v -5.5 0.1 -19.6
v -5.5 0.1 -19.9
v -5.5 0.2 -19.7
v -5.5 0.2 -19.8
v -5.5 0.3 -19.6
v -5.5 0.3 -19.7
v -5.5 0.3 -19.8
v -5.5 0.3 -19.9
v -5.1 0.3 -19.4
v -5.1 0.3 -20.3
v -5.1 0.7 -20.3
v -5.1 0.7 -20.5
v -5.1 2.7 -19.4
v -5.1 2.7 -20.5
v -6.5 0.3 -19.4
v -6.5 0.3 -20.3
v -6.5 0.7 -20.3
v -6.5 0.7 -20.5
v -6.5 2.7 -19.4
v -6.5 2.7 -20.5
v -6 0.1 -19.6
v -6 0.1 -19.9
v -6 0.2 -19.7
v -6 0.2 -19.8
v -6 0.3 -19.6
v -6 0.3 -19.7
v -6 0.3 -19.8
v -6 0.3 -19.9
v -5.8 3.6 -19.2
v -5.8 3.6 -19.5
v -5.8 3.7 -19.2
v -5.8 3.7 -19.5
v -5.7 0.2 -19.6
v -5.7 0.2 -19.7
v -5.7 0.2 -19.8
v -5.7 0.2 -19.9
v -5.7 0.3 -19.6
v -5.7 0.3 -19.7
v -5.7 0.3 -19.8
v -5.7 0.3 -19.9
v -5.6 3 -19.4
v -5.6 3 -19.7
v -5.6 3 -20
v -5.6 3 -20.3
v -5.6 3.1 -20
v -5.6 3.1 -20.3
v -5.6 3.5 -19.2
v -5.6 3.5 -19.4
v -5.6 3.6 -19.6
v -5.6 3.6 -19.7
v -5.6 3.8 -19.2
v -5.6 3.8 -19.6
v -5 0 -19.4
v -5 0 -20.4
v -5 0.1 -19.3
v -5 0.1 -19.4
v -5 0.1 -20.4
v -5 0.1 -20.5
v -5 2.9 -19.3
v -5 2.9 -19.4
v -5 2.9 -20.4
v -5 2.9 -20.5
v -5 3 -19.4
v -5 3 -20.4
v -4.9 0.1 -19.4
v -4.9 0.1 -20.4
v -4.9 2.9 -19.4
v -4.9 2.9 -20.4
v -5.9 3.5 -19.2
v -5.9 3.8 -19.2
v -5.8 3.6 -19.2
v -5.8 3.7 -19.2
v -5.7 3.6 -19.2
v -5.7 3.7 -19.2
v -5.6 3.5 -19.2
v -5.6 3.8 -19.2
v -6.6 0.1 -19.3
v -6.6 2.9 -19.3
v -5 0.1 -19.3
v -5 2.9 -19.3
v -6.7 0.1 -19.4
v -6.7 2.9 -19.4
v -6.6 0 -19.4
v -6.6 0.1 -19.4
v -6.6 2.9 -19.4
v -6.6 3 -19.4
v -5.9 3 -19.4
v -5.9 3.5 -19.4
v -5.6 3 -19.4
v -5.6 3.5 -19.4
v -5 0 -19.4
v -5 0.1 -19.4
v -5 2.9 -19.4
v -5 3 -19.4
v -4.9 0.1 -19.4
v -4.9 2.9 -19.4
v -5.8 3.6 -19.5
v -5.8 3.7 -19.5
v -5.7 3.6 -19.5
v -5.7 3.7 -19.5
v -6 0.2 -19.7
v -6 0.3 -19.7
v -5.8 0.2 -19.7
v -5.8 0.3 -19.7
v -5.7 0.2 -19.7
v -5.7 0.3 -19.7
v -5.5 0.2 -19.7
v -5.5 0.3 -19.7
v -6 0.1 -19.9
v -6 0.3 -19.9
v -5.8 0.2 -19.9
v -5.8 0.3 -19.9
v -5.7 0.2 -19.9
v -5.7 0.3 -19.9
v -5.5 0.1 -19.9
v -5.5 0.3 -19.9
v -5.9 3 -20
v -5.9 3.1 -20
v -5.6 3 -20
v -5.6 3.1 -20
v -6.5 0.3 -20.3
v -6.5 0.7 -20.3
v -5.1 0.3 -20.3
v -5.1 0.7 -20.3
v -6.5 0.3 -19.4
v -6.5 2.7 -19.4
v -5.1 0.3 -19.4
v -5.1 2.7 -19.4
v -6 0.1 -19.6
v -6 0.3 -19.6
v -5.9 3.6 -19.6
v -5.9 3.8 -19.6
v -5.8 0.2 -19.6
v -5.8 0.3 -19.6
v -5.7 0.2 -19.6
v -5.7 0.3 -19.6
v -5.6 3.6 -19.6
v -5.6 3.8 -19.6
v -5.5 0.1 -19.6
v -5.5 0.3 -19.6
v -5.9 3 -19.7
v -5.9 3.6 -19.7
v -5.6 3 -19.7
v -5.6 3.6 -19.7
v -6 0.2 -19.8
v -6 0.3 -19.8
v -5.8 0.2 -19.8
v -5.8 0.3 -19.8
v -5.7 0.2 -19.8
v -5.7 0.3 -19.8
v -5.5 0.2 -19.8
v -5.5 0.3 -19.8
v -5.9 3 -20.3
v -5.9 3.1 -20.3
v -5.6 3 -20.3
v -5.6 3.1 -20.3
v -6.7 0.1 -20.4
v -6.7 2.9 -20.4
v -6.6 0 -20.4
v -6.6 0.1 -20.4
v -6.6 2.9 -20.4
v -6.6 3 -20.4
v -5 0 -20.4
v -5 0.1 -20.4
v -5 2.9 -20.4
v -5 3 -20.4
v -4.9 0.1 -20.4
v -4.9 2.9 -20.4
v -6.6 0.1 -20.5
v -6.6 2.9 -20.5
v -6.5 0.7 -20.5
v -6.5 2.7 -20.5
v -5.1 0.7 -20.5
v -5.1 2.7 -20.5
v -5 0.1 -20.5
v -5 2.9 -20.5
v -6.6 0 -19.4
v -5 0 -19.4
v -6 0 -19.6
v -5.5 0 -19.6
v -6 0 -19.9
v -5.5 0 -19.9
v -6.6 0 -20.4
v -5 0 -20.4
v -6.6 0.1 -19.3
v -5 0.1 -19.3
v -6.7 0.1 -19.4
v -6.6 0.1 -19.4
v -5 0.1 -19.4
v -4.9 0.1 -19.4
v -6.7 0.1 -20.4
v -6.6 0.1 -20.4
v -5 0.1 -20.4
v -4.9 0.1 -20.4
v -6.6 0.1 -20.5
v -5 0.1 -20.5
v -5.8 0.2 -19.6
v -5.7 0.2 -19.6
v -6 0.2 -19.7
v -5.8 0.2 -19.7
v -5.7 0.2 -19.7
v -5.5 0.2 -19.7
v -6 0.2 -19.8
v -5.8 0.2 -19.8
v -5.7 0.2 -19.8
v -5.5 0.2 -19.8
v -5.8 0.2 -19.9
v -5.7 0.2 -19.9
v -6.5 2.7 -19.4
v -5.1 2.7 -19.4
v -6.5 2.7 -20.5
v -5.1 2.7 -20.5
v -5.9 3.5 -19.2
v -5.6 3.5 -19.2
v -5.9 3.5 -19.4
v -5.6 3.5 -19.4
v -5.8 3.7 -19.2
v -5.7 3.7 -19.2
v -5.8 3.7 -19.5
v -5.7 3.7 -19.5
v -6 0.1 -19.6
v -5.5 0.1 -19.6
v -6 0.1 -19.9
v -5.5 0.1 -19.9
v -6.5 0.3 -19.4
v -5.1 0.3 -19.4
v -6 0.3 -19.6
v -5.8 0.3 -19.6
v -5.7 0.3 -19.6
v -5.5 0.3 -19.6
v -6 0.3 -19.7
v -5.8 0.3 -19.7
v -5.7 0.3 -19.7
v -5.5 0.3 -19.7
v -6 0.3 -19.8
v -5.8 0.3 -19.8
v -5.7 0.3 -19.8
v -5.5 0.3 -19.8
v -6 0.3 -19.9
v -5.8 0.3 -19.9
v -5.7 0.3 -19.9
v -5.5 0.3 -19.9
v -6.5 0.3 -20.3
v -5.1 0.3 -20.3
v -6.5 0.7 -20.3
v -5.1 0.7 -20.3
v -6.5 0.7 -20.5
v -5.1 0.7 -20.5
v -6.6 2.9 -19.3
v -5 2.9 -19.3
v -6.7 2.9 -19.4
v -6.6 2.9 -19.4
v -5 2.9 -19.4
v -4.9 2.9 -19.4
v -6.7 2.9 -20.4
v -6.6 2.9 -20.4
v -5 2.9 -20.4
v -4.9 2.9 -20.4
v -6.6 2.9 -20.5
v -5 2.9 -20.5
v -6.6 3 -19.4
v -5.9 3 -19.4
v -5.6 3 -19.4
v -5 3 -19.4
v -5.9 3 -19.7
v -5.6 3 -19.7
v -5.9 3 -20
v -5.6 3 -20
v -5.9 3 -20.3
v -5.6 3 -20.3
v -6.6 3 -20.4
v -5 3 -20.4
v -5.9 3.1 -20
v -5.6 3.1 -20
v -5.9 3.1 -20.3
v -5.6 3.1 -20.3
v -5.8 3.6 -19.2
v -5.7 3.6 -19.2
v -5.8 3.6 -19.5
v -5.7 3.6 -19.5
v -5.9 3.6 -19.6
v -5.6 3.6 -19.6
v -5.9 3.6 -19.7
v -5.6 3.6 -19.7
v -5.9 3.8 -19.2
v -5.6 3.8 -19.2
v -5.9 3.8 -19.6
v -5.6 3.8 -19.6

# faces
f 3/1/1 2/1/1 1/1/1
f 4/1/1 2/1/1 3/1/1
f 8/1/1 6/1/1 5/1/1
f 9/1/1 6/1/1 8/1/1
f 11/1/1 8/1/1 7/1/1
f 12/1/1 8/1/1 11/1/1
f 13/1/1 10/1/1 9/1/1
f 14/1/1 10/1/1 13/1/1
f 15/1/1 13/1/1 12/1/1
f 16/1/1 13/1/1 15/1/1
f 21/2/1 20/2/1 19/2/1
f 22/2/1 20/2/1 21/2/1
f 24/2/1 18/2/1 17/2/1
f 25/2/1 18/2/1 24/2/1
f 25/2/1 24/2/1 23/2/1
f 26/2/1 18/2/1 25/2/1
f 27/2/1 25/2/1 23/2/1
f 28/2/1 25/2/1 27/2/1
f 33/2/1 30/2/1 29/2/1
f 34/2/1 30/2/1 33/2/1
f 35/2/1 32/2/1 31/2/1
f 36/2/1 32/2/1 35/2/1
f 39/2/1 38/2/1 37/2/1
f 40/2/1 38/2/1 39/2/1
f 43/1/1 42/1/1 41/1/1
f 44/1/1 42/1/1 43/1/1
f 45/1/1 43/1/1 41/1/1
f 46/1/1 43/1/1 45/1/1
f 47/1/1 42/1/1 44/1/1
f 48/1/1 42/1/1 47/1/1
f 51/1/1 50/1/1 49/1/1
f 53/1/1 51/1/1 49/1/1
f 53/1/1 52/1/1 51/1/1
f 54/1/1 52/1/1 53/1/1
f 55/1/2 56/1/2 57/1/2
f 55/1/2 57/1/2 59/1/2
f 57/1/2 58/1/2 59/1/2
f 59/1/2 58/1/2 60/1/2
f 61/1/2 62/1/2 63/1/2
f 63/1/2 62/1/2 64/1/2
f 61/1/2 63/1/2 65/1/2
f 65/1/2 63/1/2 66/1/2
f 64/1/2 62/1/2 67/1/2
f 67/1/2 62/1/2 68/1/2
f 69/2/2 70/2/2 71/2/2
f 71/2/2 70/2/2 72/2/2
f 73/2/2 74/2/2 77/2/2
f 77/2/2 74/2/2 78/2/2
f 75/2/2 76/2/2 79/2/2
f 79/2/2 76/2/2 80/2/2
f 83/2/2 84/2/2 85/2/2
f 85/2/2 84/2/2 86/2/2
f 81/2/2 82/2/2 88/2/2
f 88/2/2 82/2/2 89/2/2
f 87/2/2 88/2/2 89/2/2
f 89/2/2 82/2/2 90/2/2
f 87/2/2 89/2/2 91/2/2
f 91/2/2 89/2/2 92/2/2
f 93/1/2 94/1/2 96/1/2
f 96/1/2 94/1/2 97/1/2
f 95/1/2 96/1/2 99/1/2
f 99/1/2 96/1/2 100/1/2
f 97/1/2 98/1/2 101/1/2
f 101/1/2 98/1/2 102/1/2
f 100/1/2 101/1/2 103/1/2
f 103/1/2 101/1/2 104/1/2
f 105/1/2 106/1/2 107/1/2
f 107/1/2 106/1/2 108/1/2
f 111/2/3 110/2/3 109/2/3
f 112/2/3 110/2/3 111/2/3
f 113/2/3 111/2/3 109/2/3
f 114/2/3 110/2/3 112/2/3
f 115/2/3 113/2/3 109/2/3
f 115/2/3 114/2/3 113/2/3
f 116/2/3 110/2/3 114/2/3
f 116/2/3 114/2/3 115/2/3
f 119/1/3 118/1/3 117/1/3
f 120/1/3 118/1/3 119/1/3
f 124/1/3 122/1/3 121/1/3
f 125/1/3 122/1/3 124/1/3
f 127/1/3 126/1/3 125/1/3
f 129/1/3 127/1/3 125/1/3
f 129/2/3 128/2/3 127/2/3
f 130/2/3 128/2/3 129/2/3
f 131/1/3 124/1/3 123/1/3
f 132/1/3 124/1/3 131/1/3
f 133/1/3 129/1/3 125/1/3
f 134/1/3 129/1/3 133/1/3
f 135/1/3 133/1/3 132/1/3
f 136/1/3 133/1/3 135/1/3
f 139/2/3 138/2/3 137/2/3
f 140/2/3 138/2/3 139/2/3
f 143/2/3 142/2/3 141/2/3
f 144/2/3 142/2/3 143/2/3
f 147/2/3 146/2/3 145/2/3
f 148/2/3 146/2/3 147/2/3
f 151/1/3 150/1/3 149/1/3
f 152/1/3 150/1/3 151/1/3
f 153/1/3 151/1/3 149/1/3
f 155/1/3 153/1/3 149/1/3
f 155/1/3 154/1/3 153/1/3
f 156/1/3 154/1/3 155/1/3
f 159/2/3 158/2/3 157/2/3
f 160/2/3 158/2/3 159/2/3
f 163/1/3 162/1/3 161/1/3
f 164/1/3 162/1/3 163/1/3
f 165/1/4 166/1/4 167/1/4
f 167/1/4 166/1/4 168/1/4
f 169/1/4 170/1/4 173/1/4
f 173/1/4 170/1/4 174/1/4
f 169/1/4 173/1/4 175/1/4
f 171/2/4 172/2/4 177/2/4
f 177/2/4 172/2/4 178/2/4
f 175/1/4 176/1/4 179/1/4
f 169/1/4 175/1/4 179/1/4
f 179/1/4 176/1/4 180/1/4
f 181/2/4 182/2/4 183/2/4
f 183/2/4 182/2/4 184/2/4
f 185/2/4 186/2/4 187/2/4
f 187/2/4 186/2/4 188/2/4
f 189/2/4 190/2/4 191/2/4
f 191/2/4 190/2/4 192/2/4
f 193/2/4 194/2/4 195/2/4
f 195/2/4 194/2/4 196/2/4
f 197/1/4 198/1/4 200/1/4
f 200/1/4 198/1/4 201/1/4
f 199/1/4 200/1/4 203/1/4
f 203/1/4 200/1/4 204/1/4
f 201/1/4 202/1/4 205/1/4
f 205/1/4 202/1/4 206/1/4
f 204/1/4 205/1/4 207/1/4
f 207/1/4 205/1/4 208/1/4
f 209/1/4 210/1/4 211/1/4
f 211/1/4 210/1/4 212/1/4
f 209/1/4 211/1/4 213/1/4
f 212/1/4 210/1/4 214/1/4
f 209/1/4 213/1/4 215/1/4
f 213/1/4 214/1/4 215/1/4
f 214/1/4 210/1/4 216/1/4
f 215/1/4 214/1/4 216/1/4
f 219/1/5 218/1/5 217/1/5
f 220/1/5 218/1/5 219/1/5
f 221/1/5 219/1/5 217/1/5
f 221/3/5 220/3/5 219/3/5
f 222/1/5 218/1/5 220/1/5
f 222/3/5 220/3/5 221/3/5
f 223/1/5 221/1/5 217/1/5
f 223/1/5 222/1/5 221/1/5
f 224/1/5 218/1/5 222/1/5
f 224/1/5 222/1/5 223/1/5
f 228/1/5 226/1/5 225/1/5
f 229/1/5 226/1/5 228/1/5
f 231/1/5 228/1/5 227/1/5
f 232/1/5 228/1/5 231/1/5
f 233/1/5 230/1/5 229/1/5
f 234/1/5 230/1/5 233/1/5
f 235/1/5 233/1/5 232/1/5
f 236/1/5 233/1/5 235/1/5
f 240/2/5 238/2/5 237/2/5
f 241/2/5 238/2/5 240/2/5
f 243/2/5 240/2/5 239/2/5
f 243/2/5 242/2/5 241/2/5
f 243/2/5 241/2/5 240/2/5
f 244/2/5 242/2/5 243/2/5
f 245/2/5 242/2/5 244/2/5
f 246/2/5 242/2/5 245/2/5
f 247/2/5 245/2/5 244/2/5
f 248/2/5 245/2/5 247/2/5
f 251/1/5 250/1/5 249/1/5
f 252/1/5 250/1/5 251/1/5
f 255/2/5 254/2/5 253/2/5
f 256/2/5 254/2/5 255/2/5
f 259/2/5 258/2/5 257/2/5
f 260/2/5 258/2/5 259/2/5
f 261/3/6 262/3/6 263/3/6
f 263/3/6 262/3/6 264/3/6
f 265/1/6 266/1/6 267/1/6
f 267/1/6 266/1/6 268/1/6
f 268/1/6 266/1/6 269/1/6
f 269/1/6 266/1/6 270/1/6
f 265/1/6 267/1/6 271/1/6
f 268/2/6 269/2/6 272/2/6
f 272/2/6 269/2/6 273/2/6
f 270/1/6 266/1/6 274/1/6
f 272/2/6 273/2/6 275/2/6
f 273/2/6 274/2/6 275/2/6
f 265/1/6 271/1/6 275/1/6
f 271/2/6 272/2/6 275/2/6
f 275/2/6 274/2/6 276/2/6
f 276/2/6 274/2/6 277/2/6
f 274/1/6 266/1/6 278/1/6
f 277/2/6 274/2/6 278/2/6
f 265/1/6 275/1/6 279/1/6
f 276/2/6 277/2/6 280/2/6
f 280/2/6 277/2/6 281/2/6
f 278/1/6 266/1/6 282/1/6
f 265/1/6 279/1/6 283/1/6
f 281/1/6 282/1/6 283/1/6
f 280/1/6 281/1/6 283/1/6
f 279/1/6 280/1/6 283/1/6
f 282/1/6 266/1/6 284/1/6
f 283/1/6 282/1/6 284/1/6
f 285/1/6 286/1/6 287/1/6
f 287/1/6 286/1/6 288/1/6
f 289/1/6 290/1/6 292/1/6
f 292/1/6 290/1/6 293/1/6
f 291/1/6 292/1/6 295/1/6
f 295/1/6 292/1/6 296/1/6
f 293/1/6 294/1/6 297/1/6
f 297/1/6 294/1/6 298/1/6
f 296/1/6 297/1/6 299/1/6
f 299/1/6 297/1/6 300/1/6
f 301/1/6 302/1/6 305/1/6
f 303/1/6 304/1/6 306/1/6
f 301/1/6 305/1/6 307/1/6
f 305/1/6 306/1/6 307/1/6
f 306/1/6 304/1/6 308/1/6
f 307/1/6 306/1/6 308/1/6
f 301/1/6 307/1/6 309/1/6
f 308/1/6 304/1/6 310/1/6
f 301/1/6 309/1/6 311/1/6
f 309/1/6 310/1/6 311/1/6
f 310/1/6 304/1/6 312/1/6
f 311/1/6 310/1/6 312/1/6
f 313/2/6 314/2/6 315/2/6
f 315/2/6 314/2/6 316/2/6
f 317/2/6 318/2/6 319/2/6
f 319/2/6 318/2/6 320/2/6
f 321/2/6 322/2/6 323/2/6
f 323/2/6 322/2/6 324/2/6
f 325/2/6 326/2/6 327/2/6
f 327/2/6 326/2/6 328/2/6
