# MagicaVoxel @ Ephtracy

# group
o corner wall

# material
mtllib SchoolPack-5-corner wall.mtl
usemtl palette

# normals
vn -1 0 0
vn 1 0 0
vn 0 0 1
vn 0 0 -1
vn 0 -1 0
vn 0 1 0

# texcoords
vt 0.115234 0.5
vt 0.310547 0.5
vt 0.369141 0.5
vt 0.373047 0.5

# verts
v -12.9 0 50.6
v -12.9 0 50.3
v -12.9 0.1 50.6
v -12.9 0.1 50.3
v -12.9 5.2 50.6
v -12.9 5.2 50.3
v -12.9 5.8 50.6
v -12.9 5.8 50.3
v -12.9 12 50.6
v -12.9 12 50.3
v -9.2 0 55.3
v -9.2 0 50.6
v -9.2 0.1 55.3
v -9.2 0.1 50.6
v -9.2 5.2 55.3
v -9.2 5.2 50.6
v -9.2 5.8 55.3
v -9.2 5.8 50.6
v -9.2 12 55.3
v -9.2 12 50.6
v -8.9 0 55.3
v -8.9 0 50.3
v -8.9 0.1 55.3
v -8.9 0.1 50.3
v -8.9 5.2 55.3
v -8.9 5.2 50.3
v -8.9 5.8 55.3
v -8.9 5.8 50.3
v -8.9 12 55.3
v -8.9 12 50.3
v -9.2 0 55.3
v -9.2 0.1 55.3
v -9.2 5.2 55.3
v -9.2 5.8 55.3
v -9.2 12 55.3
v -8.9 0 55.3
v -8.9 0.1 55.3
v -8.9 5.2 55.3
v -8.9 5.8 55.3
v -8.9 12 55.3
v -12.9 0 50.6
v -12.9 0.1 50.6
v -12.9 5.2 50.6
v -12.9 5.8 50.6
v -12.9 12 50.6
v -9.2 0 50.6
v -9.2 0.1 50.6
v -9.2 5.2 50.6
v -9.2 5.8 50.6
v -9.2 12 50.6
v -12.9 0 50.3
v -12.9 0.1 50.3
v -12.9 5.2 50.3
v -12.9 5.8 50.3
v -12.9 12 50.3
v -8.9 0 50.3
v -8.9 0.1 50.3
v -8.9 5.2 50.3
v -8.9 5.8 50.3
v -8.9 12 50.3
v -9.2 0 55.3
v -8.9 0 55.3
v -12.9 0 50.6
v -9.2 0 50.6
v -12.9 0 50.3
v -8.9 0 50.3
v -9.2 12 55.3
v -8.9 12 55.3
v -12.9 12 50.6
v -9.2 12 50.6
v -12.9 12 50.3
v -8.9 12 50.3

# faces
f 3/2/1 2/2/1 1/2/1
f 4/2/1 2/2/1 3/2/1
f 5/1/1 4/1/1 3/1/1
f 6/1/1 4/1/1 5/1/1
f 7/4/1 6/4/1 5/4/1
f 8/4/1 6/4/1 7/4/1
f 9/3/1 8/3/1 7/3/1
f 10/3/1 8/3/1 9/3/1
f 13/2/1 12/2/1 11/2/1
f 14/2/1 12/2/1 13/2/1
f 15/1/1 14/1/1 13/1/1
f 16/1/1 14/1/1 15/1/1
f 17/4/1 16/4/1 15/4/1
f 18/4/1 16/4/1 17/4/1
f 19/3/1 18/3/1 17/3/1
f 20/3/1 18/3/1 19/3/1
f 21/2/2 22/2/2 23/2/2
f 23/2/2 22/2/2 24/2/2
f 23/1/2 24/1/2 25/1/2
f 25/1/2 24/1/2 26/1/2
f 25/4/2 26/4/2 27/4/2
f 27/4/2 26/4/2 28/4/2
f 27/3/2 28/3/2 29/3/2
f 29/3/2 28/3/2 30/3/2
f 36/2/3 32/2/3 31/2/3
f 37/1/3 33/1/3 32/1/3
f 37/2/3 32/2/3 36/2/3
f 38/4/3 34/4/3 33/4/3
f 38/1/3 33/1/3 37/1/3
f 39/3/3 35/3/3 34/3/3
f 39/4/3 34/4/3 38/4/3
f 40/3/3 35/3/3 39/3/3
f 46/2/3 42/2/3 41/2/3
f 47/1/3 43/1/3 42/1/3
f 47/2/3 42/2/3 46/2/3
f 48/4/3 44/4/3 43/4/3
f 48/1/3 43/1/3 47/1/3
f 49/3/3 45/3/3 44/3/3
f 49/4/3 44/4/3 48/4/3
f 50/3/3 45/3/3 49/3/3
f 51/2/4 52/2/4 56/2/4
f 52/1/4 53/1/4 57/1/4
f 56/2/4 52/2/4 57/2/4
f 53/4/4 54/4/4 58/4/4
f 57/1/4 53/1/4 58/1/4
f 54/3/4 55/3/4 59/3/4
f 58/4/4 54/4/4 59/4/4
f 59/3/4 55/3/4 60/3/4
f 64/2/5 62/2/5 61/2/5
f 65/2/5 64/2/5 63/2/5
f 66/2/5 62/2/5 64/2/5
f 66/2/5 64/2/5 65/2/5
f 67/3/6 68/3/6 70/3/6
f 69/3/6 70/3/6 71/3/6
f 70/3/6 68/3/6 72/3/6
f 71/3/6 70/3/6 72/3/6
