# MagicaVoxel @ Ephtracy

# group
o book

# material
mtllib SchoolPack-69-book.mtl
usemtl palette

# normals
vn -1 0 0
vn 1 0 0
vn 0 0 1
vn 0 0 -1
vn 0 -1 0
vn 0 1 0

# texcoords
vt 0.0175781 0.5
vt 0.255859 0.5
vt 0.869141 0.5
vt 0.876953 0.5
vt 0.958984 0.5

# verts
v 6.9 0.4 -6.3
v 6.9 0.4 -7.1
v 6.9 0.7 -6.3
v 6.9 0.7 -7.1
v 6.9 1.5 -6.3
v 6.9 1.5 -7.1
v 6.9 1.8 -6.3
v 6.9 1.8 -7.1
v 7 0.1 -6.4
v 7 0.1 -7
v 7 0.4 -6.4
v 7 0.4 -7
v 7 0.7 -6.4
v 7 0.7 -7
v 7 1.5 -6.4
v 7 1.5 -7
v 7 1.8 -6.4
v 7 1.8 -7
v 7 2.1 -6.4
v 7 2.1 -7
v 7.1 0.4 -6.3
v 7.1 0.4 -6.4
v 7.1 0.4 -7
v 7.1 0.4 -7.1
v 7.1 0.7 -6.3
v 7.1 0.7 -6.4
v 7.1 0.7 -7
v 7.1 0.7 -7.1
v 7.1 1.5 -6.3
v 7.1 1.5 -6.4
v 7.1 1.5 -7
v 7.1 1.5 -7.1
v 7.1 1.8 -6.3
v 7.1 1.8 -6.4
v 7.1 1.8 -7
v 7.1 1.8 -7.1
v 8.9 0.1 -6.4
v 8.9 0.1 -6.5
v 8.9 0.1 -6.9
v 8.9 0.1 -7
v 8.9 2.1 -6.4
v 8.9 2.1 -6.5
v 8.9 2.1 -6.9
v 8.9 2.1 -7
v 6.9 0.4 -6.3
v 6.9 0.7 -6.3
v 6.9 1.5 -6.3
v 6.9 1.8 -6.3
v 7.1 0.4 -6.3
v 7.1 0.7 -6.3
v 7.1 1.5 -6.3
v 7.1 1.8 -6.3
v 7 0.1 -6.4
v 7 0.4 -6.4
v 7 0.7 -6.4
v 7 1.5 -6.4
v 7 1.8 -6.4
v 7 2.1 -6.4
v 7.1 0.4 -6.4
v 7.1 0.7 -6.4
v 7.1 1.5 -6.4
v 7.1 1.8 -6.4
v 8.9 0.1 -6.4
v 8.9 2.1 -6.4
v 7 0.1 -7
v 7 0.4 -7
v 7 0.7 -7
v 7 1.5 -7
v 7 1.8 -7
v 7 2.1 -7
v 7.1 0.4 -7
v 7.1 0.7 -7
v 7.1 1.5 -7
v 7.1 1.8 -7
v 7.3 0.4 -7
v 7.3 1.1 -7
v 7.7 0.4 -7
v 7.7 1.1 -7
v 7.8 0.8 -7
v 7.8 1.5 -7
v 8.2 0.8 -7
v 8.2 1.5 -7
v 8.3 1.2 -7
v 8.3 1.9 -7
v 8.7 1.2 -7
v 8.7 1.9 -7
v 8.9 0.1 -7
v 8.9 2.1 -7
v 6.9 0.4 -7.1
v 6.9 0.7 -7.1
v 6.9 1.5 -7.1
v 6.9 1.8 -7.1
v 7.1 0.4 -7.1
v 7.1 0.7 -7.1
v 7.1 1.5 -7.1
v 7.1 1.8 -7.1
v 7 0.1 -6.4
v 8.9 0.1 -6.4
v 7.2 0.1 -6.5
v 8.9 0.1 -6.5
v 7.2 0.1 -6.9
v 8.9 0.1 -6.9
v 7 0.1 -7
v 8.9 0.1 -7
v 6.9 0.4 -6.3
v 7.1 0.4 -6.3
v 7 0.4 -6.4
v 7.1 0.4 -6.4
v 7 0.4 -7
v 7.1 0.4 -7
v 6.9 0.4 -7.1
v 7.1 0.4 -7.1
v 6.9 1.5 -6.3
v 7.1 1.5 -6.3
v 7 1.5 -6.4
v 7.1 1.5 -6.4
v 7 1.5 -7
v 7.1 1.5 -7
v 6.9 1.5 -7.1
v 7.1 1.5 -7.1
v 6.9 0.7 -6.3
v 7.1 0.7 -6.3
v 7 0.7 -6.4
v 7.1 0.7 -6.4
v 7 0.7 -7
v 7.1 0.7 -7
v 6.9 0.7 -7.1
v 7.1 0.7 -7.1
v 6.9 1.8 -6.3
v 7.1 1.8 -6.3
v 7 1.8 -6.4
v 7.1 1.8 -6.4
v 7 1.8 -7
v 7.1 1.8 -7
v 6.9 1.8 -7.1
v 7.1 1.8 -7.1
v 7 2.1 -6.4
v 8.9 2.1 -6.4
v 7.2 2.1 -6.5
v 8.9 2.1 -6.5
v 7.2 2.1 -6.9
v 8.9 2.1 -6.9
v 7 2.1 -7
v 8.9 2.1 -7

# faces
f 3/1/1 2/1/1 1/1/1
f 4/1/1 2/1/1 3/1/1
f 7/1/1 6/1/1 5/1/1
f 8/1/1 6/1/1 7/1/1
f 11/2/1 10/2/1 9/2/1
f 12/2/1 10/2/1 11/2/1
f 15/2/1 14/2/1 13/2/1
f 16/2/1 14/2/1 15/2/1
f 19/2/1 18/2/1 17/2/1
f 20/2/1 18/2/1 19/2/1
f 21/1/2 22/1/2 25/1/2
f 25/1/2 22/1/2 26/1/2
f 23/1/2 24/1/2 27/1/2
f 27/1/2 24/1/2 28/1/2
f 29/1/2 30/1/2 33/1/2
f 33/1/2 30/1/2 34/1/2
f 31/1/2 32/1/2 35/1/2
f 35/1/2 32/1/2 36/1/2
f 37/2/2 38/2/2 41/2/2
f 38/5/2 39/5/2 42/5/2
f 41/2/2 38/2/2 42/2/2
f 39/2/2 40/2/2 43/2/2
f 42/5/2 39/5/2 43/5/2
f 43/2/2 40/2/2 44/2/2
f 49/1/3 46/1/3 45/1/3
f 50/1/3 46/1/3 49/1/3
f 51/1/3 48/1/3 47/1/3
f 52/1/3 48/1/3 51/1/3
f 59/2/3 54/2/3 53/2/3
f 60/2/3 56/2/3 55/2/3
f 61/2/3 56/2/3 60/2/3
f 62/2/3 58/2/3 57/2/3
f 63/2/3 61/2/3 60/2/3
f 63/2/3 62/2/3 61/2/3
f 63/2/3 59/2/3 53/2/3
f 63/2/3 60/2/3 59/2/3
f 64/2/3 58/2/3 62/2/3
f 64/2/3 62/2/3 63/2/3
f 65/2/4 66/2/4 71/2/4
f 67/2/4 68/2/4 72/2/4
f 72/2/4 68/2/4 73/2/4
f 69/2/4 70/2/4 74/2/4
f 72/2/4 73/2/4 75/2/4
f 73/2/4 74/2/4 75/2/4
f 65/2/4 71/2/4 75/2/4
f 71/2/4 72/2/4 75/2/4
f 75/2/4 74/2/4 76/2/4
f 65/2/4 75/2/4 77/2/4
f 75/4/4 76/4/4 77/4/4
f 76/2/4 74/2/4 78/2/4
f 77/4/4 76/4/4 78/4/4
f 77/2/4 78/2/4 79/2/4
f 78/2/4 74/2/4 80/2/4
f 79/2/4 78/2/4 80/2/4
f 77/2/4 79/2/4 81/2/4
f 79/4/4 80/4/4 81/4/4
f 80/2/4 74/2/4 82/2/4
f 81/4/4 80/4/4 82/4/4
f 81/2/4 82/2/4 83/2/4
f 74/2/4 70/2/4 84/2/4
f 83/2/4 82/2/4 84/2/4
f 82/2/4 74/2/4 84/2/4
f 81/2/4 83/2/4 85/2/4
f 83/4/4 84/4/4 85/4/4
f 84/2/4 70/2/4 86/2/4
f 85/4/4 84/4/4 86/4/4
f 81/2/4 85/2/4 87/2/4
f 65/2/4 77/2/4 87/2/4
f 85/2/4 86/2/4 87/2/4
f 77/2/4 81/2/4 87/2/4
f 86/2/4 70/2/4 88/2/4
f 87/2/4 86/2/4 88/2/4
f 89/1/4 90/1/4 93/1/4
f 93/1/4 90/1/4 94/1/4
f 91/1/4 92/1/4 95/1/4
f 95/1/4 92/1/4 96/1/4
f 99/2/5 98/2/5 97/2/5
f 100/2/5 98/2/5 99/2/5
f 101/2/5 99/2/5 97/2/5
f 101/5/5 100/5/5 99/5/5
f 102/5/5 100/5/5 101/5/5
f 103/2/5 101/2/5 97/2/5
f 103/2/5 102/2/5 101/2/5
f 104/2/5 102/2/5 103/2/5
f 107/1/5 106/1/5 105/1/5
f 108/1/5 106/1/5 107/1/5
f 109/1/5 107/1/5 105/1/5
f 111/1/5 109/1/5 105/1/5
f 111/1/5 110/1/5 109/1/5
f 112/1/5 110/1/5 111/1/5
f 115/1/5 114/1/5 113/1/5
f 116/1/5 114/1/5 115/1/5
f 117/1/5 115/1/5 113/1/5
f 119/1/5 117/1/5 113/1/5
f 119/1/5 118/1/5 117/1/5
f 120/1/5 118/1/5 119/1/5
f 121/1/6 122/1/6 123/1/6
f 123/1/6 122/1/6 124/1/6
f 121/1/6 123/1/6 125/1/6
f 121/1/6 125/1/6 127/1/6
f 125/1/6 126/1/6 127/1/6
f 127/1/6 126/1/6 128/1/6
f 129/1/6 130/1/6 131/1/6
f 131/1/6 130/1/6 132/1/6
f 129/1/6 131/1/6 133/1/6
f 129/1/6 133/1/6 135/1/6
f 133/1/6 134/1/6 135/1/6
f 135/1/6 134/1/6 136/1/6
f 137/2/6 138/2/6 139/2/6
f 139/2/6 138/2/6 140/2/6
f 137/2/6 139/2/6 141/2/6
f 139/5/6 140/5/6 141/5/6
f 141/5/6 140/5/6 142/5/6
f 137/2/6 141/2/6 143/2/6
f 141/2/6 142/2/6 143/2/6
f 143/2/6 142/2/6 144/2/6
