# MagicaVoxel @ Ephtracy

# group
o corner wall

# material
mtllib SchoolPack-3-corner wall.mtl
usemtl palette

# normals
vn -1 0 0
vn 1 0 0
vn 0 0 1
vn 0 0 -1
vn 0 -1 0
vn 0 1 0

# texcoords
vt 0.310547 0.5
vt 0.587891 0.5
vt 0.716797 0.5
vt 0.958984 0.5

# verts
v -14.2 0 63.2
v -14.2 0 62.9
v -14.2 0.1 63.2
v -14.2 0.1 62.9
v -14.2 5.2 63.2
v -14.2 5.2 62.9
v -14.2 5.8 63.2
v -14.2 5.8 62.9
v -14.2 12 63.2
v -14.2 12 62.9
v -10.5 0 67.9
v -10.5 0 63.2
v -10.5 0.1 67.9
v -10.5 0.1 63.2
v -10.5 5.2 67.9
v -10.5 5.2 63.2
v -10.5 5.8 67.9
v -10.5 5.8 63.2
v -10.5 12 67.9
v -10.5 12 63.2
v -10.2 0 67.9
v -10.2 0 62.9
v -10.2 0.1 67.9
v -10.2 0.1 62.9
v -10.2 5.2 67.9
v -10.2 5.2 62.9
v -10.2 5.8 67.9
v -10.2 5.8 62.9
v -10.2 12 67.9
v -10.2 12 62.9
v -10.5 0 67.9
v -10.5 0.1 67.9
v -10.5 5.2 67.9
v -10.5 5.8 67.9
v -10.5 12 67.9
v -10.2 0 67.9
v -10.2 0.1 67.9
v -10.2 5.2 67.9
v -10.2 5.8 67.9
v -10.2 12 67.9
v -14.2 0 63.2
v -14.2 0.1 63.2
v -14.2 5.2 63.2
v -14.2 5.8 63.2
v -14.2 12 63.2
v -10.5 0 63.2
v -10.5 0.1 63.2
v -10.5 5.2 63.2
v -10.5 5.8 63.2
v -10.5 12 63.2
v -14.2 0 62.9
v -14.2 0.1 62.9
v -14.2 5.2 62.9
v -14.2 5.8 62.9
v -14.2 12 62.9
v -10.2 0 62.9
v -10.2 0.1 62.9
v -10.2 5.2 62.9
v -10.2 5.8 62.9
v -10.2 12 62.9
v -10.5 0 67.9
v -10.2 0 67.9
v -14.2 0 63.2
v -10.5 0 63.2
v -14.2 0 62.9
v -10.2 0 62.9
v -10.5 12 67.9
v -10.2 12 67.9
v -14.2 12 63.2
v -10.5 12 63.2
v -14.2 12 62.9
v -10.2 12 62.9

# faces
f 3/1/1 2/1/1 1/1/1
f 4/1/1 2/1/1 3/1/1
f 5/3/1 4/3/1 3/3/1
f 6/3/1 4/3/1 5/3/1
f 7/2/1 6/2/1 5/2/1
f 8/2/1 6/2/1 7/2/1
f 9/4/1 8/4/1 7/4/1
f 10/4/1 8/4/1 9/4/1
f 13/1/1 12/1/1 11/1/1
f 14/1/1 12/1/1 13/1/1
f 15/3/1 14/3/1 13/3/1
f 16/3/1 14/3/1 15/3/1
f 17/2/1 16/2/1 15/2/1
f 18/2/1 16/2/1 17/2/1
f 19/4/1 18/4/1 17/4/1
f 20/4/1 18/4/1 19/4/1
f 21/1/2 22/1/2 23/1/2
f 23/1/2 22/1/2 24/1/2
f 23/3/2 24/3/2 25/3/2
f 25/3/2 24/3/2 26/3/2
f 25/2/2 26/2/2 27/2/2
f 27/2/2 26/2/2 28/2/2
f 27/4/2 28/4/2 29/4/2
f 29/4/2 28/4/2 30/4/2
f 36/1/3 32/1/3 31/1/3
f 37/3/3 33/3/3 32/3/3
f 37/1/3 32/1/3 36/1/3
f 38/2/3 34/2/3 33/2/3
f 38/3/3 33/3/3 37/3/3
f 39/4/3 35/4/3 34/4/3
f 39/2/3 34/2/3 38/2/3
f 40/4/3 35/4/3 39/4/3
f 46/1/3 42/1/3 41/1/3
f 47/3/3 43/3/3 42/3/3
f 47/1/3 42/1/3 46/1/3
f 48/2/3 44/2/3 43/2/3
f 48/3/3 43/3/3 47/3/3
f 49/4/3 45/4/3 44/4/3
f 49/2/3 44/2/3 48/2/3
f 50/4/3 45/4/3 49/4/3
f 51/1/4 52/1/4 56/1/4
f 52/3/4 53/3/4 57/3/4
f 56/1/4 52/1/4 57/1/4
f 53/2/4 54/2/4 58/2/4
f 57/3/4 53/3/4 58/3/4
f 54/4/4 55/4/4 59/4/4
f 58/2/4 54/2/4 59/2/4
f 59/4/4 55/4/4 60/4/4
f 64/1/5 62/1/5 61/1/5
f 65/1/5 64/1/5 63/1/5
f 66/1/5 62/1/5 64/1/5
f 66/1/5 64/1/5 65/1/5
f 67/4/6 68/4/6 70/4/6
f 69/4/6 70/4/6 71/4/6
f 70/4/6 68/4/6 72/4/6
f 71/4/6 70/4/6 72/4/6
