# MagicaVoxel @ Ephtracy

# group
o door

# material
mtllib SchoolPack-24-door.mtl
usemtl palette

# normals
vn -1 0 0
vn 1 0 0
vn 0 0 1
vn 0 0 -1
vn 0 -1 0
vn 0 1 0

# texcoords
vt 0.255859 0.5
vt 0.373047 0.5
vt 0.927734 0.5
vt 0.931641 0.5
vt 0.978516 0.5

# verts
v 0.1 4.5 11.3
v 0.1 4.5 10.9
v 0.1 4.9 11.3
v 0.1 4.9 10.9
v 0.4 0 15.5
v 0.4 0 10.5
v 0.4 0.2 15.3
v 0.4 0.2 10.7
v 0.4 0.9 15.1
v 0.4 0.9 15
v 0.4 1 15.1
v 0.4 1 15
v 0.4 1 13.9
v 0.4 1.1 14.9
v 0.4 1.1 14
v 0.4 4.6 11.2
v 0.4 4.6 11
v 0.4 4.8 11.2
v 0.4 4.8 11
v 0.4 7.9 14.9
v 0.4 7.9 14
v 0.4 8 15
v 0.4 8 13.9
v 0.4 8 13.8
v 0.4 8.1 13.9
v 0.4 8.1 13.8
v 0.4 8.8 15.3
v 0.4 8.8 10.7
v 0.4 9 15.5
v 0.4 9 10.5
v 0.9 4.5 11.3
v 0.9 4.5 10.9
v 0.9 4.6 11.2
v 0.9 4.6 11
v 0.9 4.8 11.2
v 0.9 4.8 11
v 0.9 4.9 11.3
v 0.9 4.9 10.9
v 0.2 4.5 11.3
v 0.2 4.5 10.9
v 0.2 4.6 11.2
v 0.2 4.6 11
v 0.2 4.8 11.2
v 0.2 4.8 11
v 0.2 4.9 11.3
v 0.2 4.9 10.9
v 0.7 0 15.5
v 0.7 0 10.5
v 0.7 0.2 15.3
v 0.7 0.2 10.7
v 0.7 0.9 15.1
v 0.7 0.9 15
v 0.7 1 15.1
v 0.7 1 15
v 0.7 1 13.9
v 0.7 1.1 14.9
v 0.7 1.1 14
v 0.7 4.6 11.2
v 0.7 4.6 11
v 0.7 4.8 11.2
v 0.7 4.8 11
v 0.7 7.9 14.9
v 0.7 7.9 14
v 0.7 8 15
v 0.7 8 13.9
v 0.7 8 13.8
v 0.7 8.1 13.9
v 0.7 8.1 13.8
v 0.7 8.8 15.3
v 0.7 8.8 10.7
v 0.7 9 15.5
v 0.7 9 10.5
v 1 4.5 11.3
v 1 4.5 10.9
v 1 4.9 11.3
v 1 4.9 10.9
v 0.4 0 15.5
v 0.4 9 15.5
v 0.7 0 15.5
v 0.7 9 15.5
v 0.4 0.9 15
v 0.4 1 15
v 0.7 0.9 15
v 0.7 1 15
v 0.4 8 13.8
v 0.4 8.1 13.8
v 0.7 8 13.8
v 0.7 8.1 13.8
v 0.1 4.5 11.3
v 0.1 4.9 11.3
v 0.2 4.5 11.3
v 0.2 4.9 11.3
v 0.9 4.5 11.3
v 0.9 4.9 11.3
v 1 4.5 11.3
v 1 4.9 11.3
v 0.2 4.6 11.2
v 0.2 4.8 11.2
v 0.4 4.6 11.2
v 0.4 4.8 11.2
v 0.7 4.6 11.2
v 0.7 4.8 11.2
v 0.9 4.6 11.2
v 0.9 4.8 11.2
v 0.4 0.9 15.1
v 0.4 1 15.1
v 0.7 0.9 15.1
v 0.7 1 15.1
v 0.4 8 13.9
v 0.4 8.1 13.9
v 0.7 8 13.9
v 0.7 8.1 13.9
v 0.2 4.6 11
v 0.2 4.8 11
v 0.4 4.6 11
v 0.4 4.8 11
v 0.7 4.6 11
v 0.7 4.8 11
v 0.9 4.6 11
v 0.9 4.8 11
v 0.1 4.5 10.9
v 0.1 4.9 10.9
v 0.2 4.5 10.9
v 0.2 4.9 10.9
v 0.9 4.5 10.9
v 0.9 4.9 10.9
v 1 4.5 10.9
v 1 4.9 10.9
v 0.4 0 10.5
v 0.4 9 10.5
v 0.7 0 10.5
v 0.7 9 10.5
v 0.4 0 15.5
v 0.7 0 15.5
v 0.4 0 10.5
v 0.7 0 10.5
v 0.4 1 15.1
v 0.7 1 15.1
v 0.4 1 15
v 0.7 1 15
v 0.1 4.5 11.3
v 0.2 4.5 11.3
v 0.9 4.5 11.3
v 1 4.5 11.3
v 0.1 4.5 10.9
v 0.2 4.5 10.9
v 0.9 4.5 10.9
v 1 4.5 10.9
v 0.2 4.6 11.2
v 0.4 4.6 11.2
v 0.7 4.6 11.2
v 0.9 4.6 11.2
v 0.2 4.6 11
v 0.4 4.6 11
v 0.7 4.6 11
v 0.9 4.6 11
v 0.4 8.1 13.9
v 0.7 8.1 13.9
v 0.4 8.1 13.8
v 0.7 8.1 13.8
v 0.4 0.9 15.1
v 0.7 0.9 15.1
v 0.4 0.9 15
v 0.7 0.9 15
v 0.2 4.8 11.2
v 0.4 4.8 11.2
v 0.7 4.8 11.2
v 0.9 4.8 11.2
v 0.2 4.8 11
v 0.4 4.8 11
v 0.7 4.8 11
v 0.9 4.8 11
v 0.1 4.9 11.3
v 0.2 4.9 11.3
v 0.9 4.9 11.3
v 1 4.9 11.3
v 0.1 4.9 10.9
v 0.2 4.9 10.9
v 0.9 4.9 10.9
v 1 4.9 10.9
v 0.4 8 13.9
v 0.7 8 13.9
v 0.4 8 13.8
v 0.7 8 13.8
v 0.4 9 15.5
v 0.7 9 15.5
v 0.4 9 10.5
v 0.7 9 10.5

# faces
f 3/5/1 2/5/1 1/5/1
f 4/5/1 2/5/1 3/5/1
f 7/2/1 6/2/1 5/2/1
f 8/2/1 6/2/1 7/2/1
f 9/1/1 8/1/1 7/1/1
f 10/1/1 8/1/1 9/1/1
f 11/1/1 9/1/1 7/1/1
f 12/1/1 8/1/1 10/1/1
f 13/1/1 8/1/1 12/1/1
f 14/4/1 13/4/1 12/4/1
f 15/4/1 13/4/1 14/4/1
f 16/1/1 8/1/1 13/1/1
f 17/1/1 8/1/1 16/1/1
f 18/1/1 16/1/1 13/1/1
f 19/1/1 8/1/1 17/1/1
f 20/4/1 14/4/1 12/4/1
f 20/3/1 15/3/1 14/3/1
f 21/4/1 13/4/1 15/4/1
f 21/3/1 15/3/1 20/3/1
f 22/1/1 12/1/1 11/1/1
f 22/4/1 20/4/1 12/4/1
f 22/4/1 21/4/1 20/4/1
f 23/4/1 13/4/1 21/4/1
f 23/4/1 21/4/1 22/4/1
f 23/1/1 19/1/1 18/1/1
f 23/1/1 18/1/1 13/1/1
f 24/1/1 19/1/1 23/1/1
f 25/1/1 23/1/1 22/1/1
f 26/1/1 19/1/1 24/1/1
f 27/2/1 7/2/1 5/2/1
f 27/1/1 26/1/1 25/1/1
f 27/1/1 11/1/1 7/1/1
f 27/1/1 22/1/1 11/1/1
f 27/1/1 25/1/1 22/1/1
f 28/1/1 19/1/1 26/1/1
f 28/1/1 26/1/1 27/1/1
f 28/2/1 6/2/1 8/2/1
f 28/1/1 8/1/1 19/1/1
f 29/2/1 27/2/1 5/2/1
f 29/2/1 28/2/1 27/2/1
f 30/2/1 6/2/1 28/2/1
f 30/2/1 28/2/1 29/2/1
f 33/5/1 32/5/1 31/5/1
f 34/5/1 32/5/1 33/5/1
f 35/5/1 33/5/1 31/5/1
f 36/5/1 32/5/1 34/5/1
f 37/5/1 35/5/1 31/5/1
f 37/5/1 36/5/1 35/5/1
f 38/5/1 32/5/1 36/5/1
f 38/5/1 36/5/1 37/5/1
f 39/5/2 40/5/2 41/5/2
f 41/5/2 40/5/2 42/5/2
f 39/5/2 41/5/2 43/5/2
f 42/5/2 40/5/2 44/5/2
f 39/5/2 43/5/2 45/5/2
f 43/5/2 44/5/2 45/5/2
f 44/5/2 40/5/2 46/5/2
f 45/5/2 44/5/2 46/5/2
f 47/2/2 48/2/2 49/2/2
f 49/2/2 48/2/2 50/2/2
f 49/1/2 50/1/2 51/1/2
f 51/1/2 50/1/2 52/1/2
f 49/1/2 51/1/2 53/1/2
f 52/1/2 50/1/2 54/1/2
f 54/1/2 50/1/2 55/1/2
f 54/4/2 55/4/2 56/4/2
f 56/4/2 55/4/2 57/4/2
f 55/1/2 50/1/2 58/1/2
f 58/1/2 50/1/2 59/1/2
f 55/1/2 58/1/2 60/1/2
f 59/1/2 50/1/2 61/1/2
f 54/4/2 56/4/2 62/4/2
f 56/3/2 57/3/2 62/3/2
f 57/4/2 55/4/2 63/4/2
f 62/3/2 57/3/2 63/3/2
f 53/1/2 54/1/2 64/1/2
f 54/4/2 62/4/2 64/4/2
f 62/4/2 63/4/2 64/4/2
f 63/4/2 55/4/2 65/4/2
f 64/4/2 63/4/2 65/4/2
f 60/1/2 61/1/2 65/1/2
f 55/1/2 60/1/2 65/1/2
f 65/1/2 61/1/2 66/1/2
f 64/1/2 65/1/2 67/1/2
f 66/1/2 61/1/2 68/1/2
f 47/2/2 49/2/2 69/2/2
f 67/1/2 68/1/2 69/1/2
f 49/1/2 53/1/2 69/1/2
f 53/1/2 64/1/2 69/1/2
f 64/1/2 67/1/2 69/1/2
f 68/1/2 61/1/2 70/1/2
f 69/1/2 68/1/2 70/1/2
f 50/2/2 48/2/2 70/2/2
f 61/1/2 50/1/2 70/1/2
f 47/2/2 69/2/2 71/2/2
f 69/2/2 70/2/2 71/2/2
f 70/2/2 48/2/2 72/2/2
f 71/2/2 70/2/2 72/2/2
f 73/5/2 74/5/2 75/5/2
f 75/5/2 74/5/2 76/5/2
f 79/2/3 78/2/3 77/2/3
f 80/2/3 78/2/3 79/2/3
f 83/1/3 82/1/3 81/1/3
f 84/1/3 82/1/3 83/1/3
f 87/1/3 86/1/3 85/1/3
f 88/1/3 86/1/3 87/1/3
f 91/5/3 90/5/3 89/5/3
f 92/5/3 90/5/3 91/5/3
f 95/5/3 94/5/3 93/5/3
f 96/5/3 94/5/3 95/5/3
f 99/5/3 98/5/3 97/5/3
f 100/5/3 98/5/3 99/5/3
f 103/5/3 102/5/3 101/5/3
f 104/5/3 102/5/3 103/5/3
f 105/1/4 106/1/4 107/1/4
f 107/1/4 106/1/4 108/1/4
f 109/1/4 110/1/4 111/1/4
f 111/1/4 110/1/4 112/1/4
f 113/5/4 114/5/4 115/5/4
f 115/5/4 114/5/4 116/5/4
f 117/5/4 118/5/4 119/5/4
f 119/5/4 118/5/4 120/5/4
f 121/5/4 122/5/4 123/5/4
f 123/5/4 122/5/4 124/5/4
f 125/5/4 126/5/4 127/5/4
f 127/5/4 126/5/4 128/5/4
f 129/2/4 130/2/4 131/2/4
f 131/2/4 130/2/4 132/2/4
f 135/2/5 134/2/5 133/2/5
f 136/2/5 134/2/5 135/2/5
f 139/1/5 138/1/5 137/1/5
f 140/1/5 138/1/5 139/1/5
f 145/5/5 142/5/5 141/5/5
f 146/5/5 142/5/5 145/5/5
f 147/5/5 144/5/5 143/5/5
f 148/5/5 144/5/5 147/5/5
f 153/5/5 150/5/5 149/5/5
f 154/5/5 150/5/5 153/5/5
f 155/5/5 152/5/5 151/5/5
f 156/5/5 152/5/5 155/5/5
f 159/1/5 158/1/5 157/1/5
f 160/1/5 158/1/5 159/1/5
f 161/1/6 162/1/6 163/1/6
f 163/1/6 162/1/6 164/1/6
f 165/5/6 166/5/6 169/5/6
f 169/5/6 166/5/6 170/5/6
f 167/5/6 168/5/6 171/5/6
f 171/5/6 168/5/6 172/5/6
f 173/5/6 174/5/6 177/5/6
f 177/5/6 174/5/6 178/5/6
f 175/5/6 176/5/6 179/5/6
f 179/5/6 176/5/6 180/5/6
f 181/1/6 182/1/6 183/1/6
f 183/1/6 182/1/6 184/1/6
f 185/2/6 186/2/6 187/2/6
f 187/2/6 186/2/6 188/2/6
