# MagicaVoxel @ Ephtracy

# group
o rose

# material
mtllib SchoolPack-18-rose.mtl
usemtl palette

# normals
vn -1 0 0
vn 1 0 0
vn 0 0 1
vn 0 0 -1
vn 0 -1 0
vn 0 1 0

# texcoords
vt 0.255859 0.5
vt 0.373047 0.5
vt 0.853516 0.5
vt 0.900391 0.5

# verts
v -8 2.2 -1.6
v -8 2.2 -1.9
v -8 2.4 -1.6
v -8 2.4 -1.9
v -7.8 0.8 -0.9
v -7.8 0.8 -2.5
v -7.8 1.1 -0.9
v -7.8 1.1 -2.5
v -7.7 2 -1.6
v -7.7 2 -1.9
v -7.7 2.2 -1.6
v -7.7 2.2 -1.9
v -7.6 0 -1.1
v -7.6 0 -2.3
v -7.6 0.8 -1.1
v -7.6 0.8 -2.3
v -7.5 1.8 -1.6
v -7.5 1.8 -1.9
v -7.5 2 -1.6
v -7.5 2 -1.9
v -7.4 2.7 -1.4
v -7.4 2.7 -2.1
v -7.4 3.3 -1.4
v -7.4 3.3 -2.1
v -7.2 1.1 -1.6
v -7.2 1.1 -1.9
v -7.2 1.8 -1.6
v -7.2 1.8 -1.9
v -7.2 2 -1.6
v -7.2 2 -1.9
v -7.2 2.7 -1.6
v -7.2 2.7 -1.9
v -6.8 2 -1.6
v -6.8 2 -1.9
v -6.8 2.2 -1.6
v -6.8 2.2 -1.9
v -6.8 3 -1.5
v -6.8 3 -2
v -6.8 3.3 -1.5
v -6.8 3.3 -2
v -6.5 2.2 -1.6
v -6.5 2.2 -1.9
v -6.5 2.4 -1.6
v -6.5 2.4 -1.9
v -7.6 2.2 -1.6
v -7.6 2.2 -1.9
v -7.6 2.4 -1.6
v -7.6 2.4 -1.9
v -7.3 2 -1.6
v -7.3 2 -1.9
v -7.3 2.2 -1.6
v -7.3 2.2 -1.9
v -7.3 3 -1.5
v -7.3 3 -2
v -7.3 3.3 -1.5
v -7.3 3.3 -2
v -6.9 1.1 -1.6
v -6.9 1.1 -1.9
v -6.9 1.8 -1.6
v -6.9 1.8 -1.9
v -6.9 2 -1.6
v -6.9 2 -1.9
v -6.9 2.7 -1.6
v -6.9 2.7 -1.9
v -6.7 2.7 -1.4
v -6.7 2.7 -2.1
v -6.7 3.3 -1.4
v -6.7 3.3 -2.1
v -6.6 1.8 -1.6
v -6.6 1.8 -1.9
v -6.6 2 -1.6
v -6.6 2 -1.9
v -6.5 0 -1.1
v -6.5 0 -2.3
v -6.5 0.8 -1.1
v -6.5 0.8 -1.2
v -6.5 0.8 -2.3
v -6.4 2 -1.6
v -6.4 2 -1.9
v -6.4 2.2 -1.6
v -6.4 2.2 -1.9
v -6.3 0.8 -0.9
v -6.3 0.8 -2.5
v -6.3 1.1 -0.9
v -6.3 1.1 -2.5
v -6.2 2.2 -1.6
v -6.2 2.2 -1.9
v -6.2 2.4 -1.6
v -6.2 2.4 -1.9
v -7.8 0.8 -0.9
v -7.8 1.1 -0.9
v -6.3 0.8 -0.9
v -6.3 1.1 -0.9
v -7.6 0 -1.1
v -7.6 0.8 -1.1
v -6.5 0 -1.1
v -6.5 0.8 -1.1
v -7.4 2.7 -1.4
v -7.4 3.3 -1.4
v -6.7 2.7 -1.4
v -6.7 3.3 -1.4
v -8 2.2 -1.6
v -8 2.4 -1.6
v -7.7 2 -1.6
v -7.7 2.2 -1.6
v -7.6 2.2 -1.6
v -7.6 2.4 -1.6
v -7.5 1.8 -1.6
v -7.5 2 -1.6
v -7.3 2 -1.6
v -7.3 2.2 -1.6
v -7.2 1.1 -1.6
v -7.2 1.8 -1.6
v -7.2 2 -1.6
v -7.2 2.7 -1.6
v -6.9 1.1 -1.6
v -6.9 1.8 -1.6
v -6.9 2 -1.6
v -6.9 2.7 -1.6
v -6.8 2 -1.6
v -6.8 2.2 -1.6
v -6.6 1.8 -1.6
v -6.6 2 -1.6
v -6.5 2.2 -1.6
v -6.5 2.4 -1.6
v -6.4 2 -1.6
v -6.4 2.2 -1.6
v -6.2 2.2 -1.6
v -6.2 2.4 -1.6
v -7.3 3 -2
v -7.3 3.3 -2
v -6.8 3 -2
v -6.8 3.3 -2
v -7.3 3 -1.5
v -7.3 3.3 -1.5
v -6.8 3 -1.5
v -6.8 3.3 -1.5
v -8 2.2 -1.9
v -8 2.4 -1.9
v -7.7 2 -1.9
v -7.7 2.2 -1.9
v -7.6 2.2 -1.9
v -7.6 2.4 -1.9
v -7.5 1.8 -1.9
v -7.5 2 -1.9
v -7.3 2 -1.9
v -7.3 2.2 -1.9
v -7.2 1.1 -1.9
v -7.2 1.8 -1.9
v -7.2 2 -1.9
v -7.2 2.7 -1.9
v -6.9 1.1 -1.9
v -6.9 1.8 -1.9
v -6.9 2 -1.9
v -6.9 2.7 -1.9
v -6.8 2 -1.9
v -6.8 2.2 -1.9
v -6.6 1.8 -1.9
v -6.6 2 -1.9
v -6.5 2.2 -1.9
v -6.5 2.4 -1.9
v -6.4 2 -1.9
v -6.4 2.2 -1.9
v -6.2 2.2 -1.9
v -6.2 2.4 -1.9
v -7.4 2.7 -2.1
v -7.4 3.3 -2.1
v -6.7 2.7 -2.1
v -6.7 3.3 -2.1
v -7.6 0 -2.3
v -7.6 0.8 -2.3
v -6.5 0 -2.3
v -6.5 0.8 -2.3
v -7.8 0.8 -2.5
v -7.8 1.1 -2.5
v -6.3 0.8 -2.5
v -6.3 1.1 -2.5
v -7.6 0 -1.1
v -6.5 0 -1.1
v -7.5 0 -1.2
v -6.6 0 -1.2
v -7.5 0 -2.2
v -6.6 0 -2.2
v -7.6 0 -2.3
v -6.5 0 -2.3
v -7.8 0.8 -0.9
v -6.3 0.8 -0.9
v -7.6 0.8 -1.1
v -6.5 0.8 -1.1
v -6.4 0.8 -1.1
v -6.5 0.8 -1.2
v -6.4 0.8 -1.2
v -7.6 0.8 -2.3
v -6.5 0.8 -2.3
v -7.8 0.8 -2.5
v -6.3 0.8 -2.5
v -7.5 1.8 -1.6
v -7.2 1.8 -1.6
v -6.9 1.8 -1.6
v -6.6 1.8 -1.6
v -7.5 1.8 -1.9
v -7.2 1.8 -1.9
v -6.9 1.8 -1.9
v -6.6 1.8 -1.9
v -7.7 2 -1.6
v -7.5 2 -1.6
v -6.6 2 -1.6
v -6.4 2 -1.6
v -7.7 2 -1.9
v -7.5 2 -1.9
v -6.6 2 -1.9
v -6.4 2 -1.9
v -8 2.2 -1.6
v -7.7 2.2 -1.6
v -6.4 2.2 -1.6
v -6.2 2.2 -1.6
v -8 2.2 -1.9
v -7.7 2.2 -1.9
v -6.4 2.2 -1.9
v -6.2 2.2 -1.9
v -7.4 2.7 -1.4
v -6.7 2.7 -1.4
v -7.2 2.7 -1.6
v -6.9 2.7 -1.6
v -7.2 2.7 -1.9
v -6.9 2.7 -1.9
v -7.4 2.7 -2.1
v -6.7 2.7 -2.1
v -7.8 1.1 -0.9
v -6.3 1.1 -0.9
v -7.6 1.1 -1.1
v -6.5 1.1 -1.1
v -7.2 1.1 -1.6
v -6.9 1.1 -1.6
v -7.2 1.1 -1.9
v -6.9 1.1 -1.9
v -7.6 1.1 -2.3
v -6.5 1.1 -2.3
v -7.8 1.1 -2.5
v -6.3 1.1 -2.5
v -7.3 2 -1.6
v -7.2 2 -1.6
v -6.9 2 -1.6
v -6.8 2 -1.6
v -7.3 2 -1.9
v -7.2 2 -1.9
v -6.9 2 -1.9
v -6.8 2 -1.9
v -7.6 2.2 -1.6
v -7.3 2.2 -1.6
v -6.8 2.2 -1.6
v -6.5 2.2 -1.6
v -7.6 2.2 -1.9
v -7.3 2.2 -1.9
v -6.8 2.2 -1.9
v -6.5 2.2 -1.9
v -8 2.4 -1.6
v -7.6 2.4 -1.6
v -6.5 2.4 -1.6
v -6.2 2.4 -1.6
v -8 2.4 -1.9
v -7.6 2.4 -1.9
v -6.5 2.4 -1.9
v -6.2 2.4 -1.9
v -7.3 3 -1.5
v -6.8 3 -1.5
v -7.3 3 -2
v -6.8 3 -2
v -7.4 3.3 -1.4
v -6.7 3.3 -1.4
v -7.3 3.3 -1.5
v -6.8 3.3 -1.5
v -7.3 3.3 -2
v -6.8 3.3 -2
v -7.4 3.3 -2.1
v -6.7 3.3 -2.1

# faces
f 3/4/1 2/4/1 1/4/1
f 4/4/1 2/4/1 3/4/1
f 7/1/1 6/1/1 5/1/1
f 8/1/1 6/1/1 7/1/1
f 11/4/1 10/4/1 9/4/1
f 12/4/1 10/4/1 11/4/1
f 15/1/1 14/1/1 13/1/1
f 16/1/1 14/1/1 15/1/1
f 19/4/1 18/4/1 17/4/1
f 20/4/1 18/4/1 19/4/1
f 23/3/1 22/3/1 21/3/1
f 24/3/1 22/3/1 23/3/1
f 27/4/1 26/4/1 25/4/1
f 28/4/1 26/4/1 27/4/1
f 31/4/1 30/4/1 29/4/1
f 32/4/1 30/4/1 31/4/1
f 35/4/1 34/4/1 33/4/1
f 36/4/1 34/4/1 35/4/1
f 39/3/1 38/3/1 37/3/1
f 40/3/1 38/3/1 39/3/1
f 43/4/1 42/4/1 41/4/1
f 44/4/1 42/4/1 43/4/1
f 45/4/2 46/4/2 47/4/2
f 47/4/2 46/4/2 48/4/2
f 49/4/2 50/4/2 51/4/2
f 51/4/2 50/4/2 52/4/2
f 53/3/2 54/3/2 55/3/2
f 55/3/2 54/3/2 56/3/2
f 57/4/2 58/4/2 59/4/2
f 59/4/2 58/4/2 60/4/2
f 61/4/2 62/4/2 63/4/2
f 63/4/2 62/4/2 64/4/2
f 65/3/2 66/3/2 67/3/2
f 67/3/2 66/3/2 68/3/2
f 69/4/2 70/4/2 71/4/2
f 71/4/2 70/4/2 72/4/2
f 73/1/2 74/1/2 75/1/2
f 75/1/2 74/1/2 76/1/2
f 76/1/2 74/1/2 77/1/2
f 78/4/2 79/4/2 80/4/2
f 80/4/2 79/4/2 81/4/2
f 82/1/2 83/1/2 84/1/2
f 84/1/2 83/1/2 85/1/2
f 86/4/2 87/4/2 88/4/2
f 88/4/2 87/4/2 89/4/2
f 92/1/3 91/1/3 90/1/3
f 93/1/3 91/1/3 92/1/3
f 96/1/3 95/1/3 94/1/3
f 97/1/3 95/1/3 96/1/3
f 100/3/3 99/3/3 98/3/3
f 101/3/3 99/3/3 100/3/3
f 105/4/3 103/4/3 102/4/3
f 106/4/3 103/4/3 105/4/3
f 106/4/3 105/4/3 104/4/3
f 107/4/3 103/4/3 106/4/3
f 109/4/3 106/4/3 104/4/3
f 110/4/3 106/4/3 109/4/3
f 110/4/3 109/4/3 108/4/3
f 111/4/3 106/4/3 110/4/3
f 113/4/3 110/4/3 108/4/3
f 114/4/3 110/4/3 113/4/3
f 116/4/3 114/4/3 113/4/3
f 116/4/3 115/4/3 114/4/3
f 116/4/3 113/4/3 112/4/3
f 117/4/3 115/4/3 116/4/3
f 118/4/3 115/4/3 117/4/3
f 119/4/3 115/4/3 118/4/3
f 120/4/3 118/4/3 117/4/3
f 122/4/3 120/4/3 117/4/3
f 122/4/3 121/4/3 120/4/3
f 123/4/3 121/4/3 122/4/3
f 124/4/3 121/4/3 123/4/3
f 126/4/3 124/4/3 123/4/3
f 126/4/3 125/4/3 124/4/3
f 127/4/3 125/4/3 126/4/3
f 128/4/3 125/4/3 127/4/3
f 129/4/3 125/4/3 128/4/3
f 132/3/3 131/3/3 130/3/3
f 133/3/3 131/3/3 132/3/3
f 134/3/4 135/3/4 136/3/4
f 136/3/4 135/3/4 137/3/4
f 138/4/4 139/4/4 141/4/4
f 141/4/4 139/4/4 142/4/4
f 140/4/4 141/4/4 142/4/4
f 142/4/4 139/4/4 143/4/4
f 140/4/4 142/4/4 145/4/4
f 145/4/4 142/4/4 146/4/4
f 144/4/4 145/4/4 146/4/4
f 146/4/4 142/4/4 147/4/4
f 144/4/4 146/4/4 149/4/4
f 149/4/4 146/4/4 150/4/4
f 149/4/4 150/4/4 152/4/4
f 150/4/4 151/4/4 152/4/4
f 148/4/4 149/4/4 152/4/4
f 152/4/4 151/4/4 153/4/4
f 153/4/4 151/4/4 154/4/4
f 154/4/4 151/4/4 155/4/4
f 153/4/4 154/4/4 156/4/4
f 153/4/4 156/4/4 158/4/4
f 156/4/4 157/4/4 158/4/4
f 158/4/4 157/4/4 159/4/4
f 159/4/4 157/4/4 160/4/4
f 159/4/4 160/4/4 162/4/4
f 160/4/4 161/4/4 162/4/4
f 162/4/4 161/4/4 163/4/4
f 163/4/4 161/4/4 164/4/4
f 164/4/4 161/4/4 165/4/4
f 166/3/4 167/3/4 168/3/4
f 168/3/4 167/3/4 169/3/4
f 170/1/4 171/1/4 172/1/4
f 172/1/4 171/1/4 173/1/4
f 174/1/4 175/1/4 176/1/4
f 176/1/4 175/1/4 177/1/4
f 180/1/5 179/1/5 178/1/5
f 181/1/5 179/1/5 180/1/5
f 182/1/5 180/1/5 178/1/5
f 182/2/5 181/2/5 180/2/5
f 183/1/5 179/1/5 181/1/5
f 183/2/5 181/2/5 182/2/5
f 184/1/5 182/1/5 178/1/5
f 184/1/5 183/1/5 182/1/5
f 185/1/5 179/1/5 183/1/5
f 185/1/5 183/1/5 184/1/5
f 188/1/5 187/1/5 186/1/5
f 189/1/5 187/1/5 188/1/5
f 190/1/5 187/1/5 189/1/5
f 191/2/5 190/2/5 189/2/5
f 192/1/5 187/1/5 190/1/5
f 192/2/5 190/2/5 191/2/5
f 193/1/5 188/1/5 186/1/5
f 194/1/5 192/1/5 191/1/5
f 195/1/5 193/1/5 186/1/5
f 195/1/5 194/1/5 193/1/5
f 196/1/5 187/1/5 192/1/5
f 196/1/5 194/1/5 195/1/5
f 196/1/5 192/1/5 194/1/5
f 201/4/5 198/4/5 197/4/5
f 202/4/5 198/4/5 201/4/5
f 203/4/5 200/4/5 199/4/5
f 204/4/5 200/4/5 203/4/5
f 209/4/5 206/4/5 205/4/5
f 210/4/5 206/4/5 209/4/5
f 211/4/5 208/4/5 207/4/5
f 212/4/5 208/4/5 211/4/5
f 217/4/5 214/4/5 213/4/5
f 218/4/5 214/4/5 217/4/5
f 219/4/5 216/4/5 215/4/5
f 220/4/5 216/4/5 219/4/5
f 223/3/5 222/3/5 221/3/5
f 224/3/5 222/3/5 223/3/5
f 225/3/5 223/3/5 221/3/5
f 226/3/5 222/3/5 224/3/5
f 227/3/5 225/3/5 221/3/5
f 227/3/5 226/3/5 225/3/5
f 228/3/5 222/3/5 226/3/5
f 228/3/5 226/3/5 227/3/5
f 229/1/6 230/1/6 231/1/6
f 231/1/6 230/1/6 232/1/6
f 231/2/6 232/2/6 233/2/6
f 233/2/6 232/2/6 234/2/6
f 231/2/6 233/2/6 235/2/6
f 234/2/6 232/2/6 236/2/6
f 229/1/6 231/1/6 237/1/6
f 235/2/6 236/2/6 237/2/6
f 231/2/6 235/2/6 237/2/6
f 236/2/6 232/2/6 238/2/6
f 237/2/6 236/2/6 238/2/6
f 232/1/6 230/1/6 238/1/6
f 229/1/6 237/1/6 239/1/6
f 237/1/6 238/1/6 239/1/6
f 238/1/6 230/1/6 240/1/6
f 239/1/6 238/1/6 240/1/6
f 241/4/6 242/4/6 245/4/6
f 245/4/6 242/4/6 246/4/6
f 243/4/6 244/4/6 247/4/6
f 247/4/6 244/4/6 248/4/6
f 249/4/6 250/4/6 253/4/6
f 253/4/6 250/4/6 254/4/6
f 251/4/6 252/4/6 255/4/6
f 255/4/6 252/4/6 256/4/6
f 257/4/6 258/4/6 261/4/6
f 261/4/6 258/4/6 262/4/6
f 259/4/6 260/4/6 263/4/6
f 263/4/6 260/4/6 264/4/6
f 265/3/6 266/3/6 267/3/6
f 267/3/6 266/3/6 268/3/6
f 269/3/6 270/3/6 271/3/6
f 271/3/6 270/3/6 272/3/6
f 269/3/6 271/3/6 273/3/6
f 272/3/6 270/3/6 274/3/6
f 269/3/6 273/3/6 275/3/6
f 273/3/6 274/3/6 275/3/6
f 274/3/6 270/3/6 276/3/6
f 275/3/6 274/3/6 276/3/6
