# MagicaVoxel @ Ephtracy

# group
o door

# material
mtllib SchoolPack-53-door.mtl
usemtl palette

# normals
vn -1 0 0
vn 1 0 0
vn 0 0 1
vn 0 0 -1
vn 0 -1 0
vn 0 1 0

# texcoords
vt 0.255859 0.5
vt 0.373047 0.5
vt 0.927734 0.5
vt 0.931641 0.5
vt 0.978516 0.5

# verts
v 0 4.5 17.4
v 0 4.5 17
v 0 4.9 17.4
v 0 4.9 17
v 0.3 0 21.6
v 0.3 0 16.6
v 0.3 0.2 21.4
v 0.3 0.2 16.8
v 0.3 4.6 17.3
v 0.3 4.6 17.1
v 0.3 4.8 17.3
v 0.3 4.8 17.1
v 0.3 6.3 19.9
v 0.3 6.3 18.2
v 0.3 6.4 19.8
v 0.3 6.4 18.3
v 0.3 7.8 19.8
v 0.3 7.8 18.3
v 0.3 7.9 19.9
v 0.3 7.9 18.2
v 0.3 8.8 21.4
v 0.3 8.8 16.8
v 0.3 9 21.6
v 0.3 9 16.6
v 0.7 4.5 17.4
v 0.7 4.5 17
v 0.7 4.6 17.3
v 0.7 4.6 17.1
v 0.7 4.8 17.3
v 0.7 4.8 17.1
v 0.7 4.9 17.4
v 0.7 4.9 17
v 0.1 4.5 17.4
v 0.1 4.5 17
v 0.1 4.6 17.3
v 0.1 4.6 17.1
v 0.1 4.8 17.3
v 0.1 4.8 17.1
v 0.1 4.9 17.4
v 0.1 4.9 17
v 0.5 0 21.6
v 0.5 0 16.6
v 0.5 0.2 21.4
v 0.5 0.2 16.8
v 0.5 4.6 17.3
v 0.5 4.6 17.1
v 0.5 4.8 17.3
v 0.5 4.8 17.1
v 0.5 6.3 19.9
v 0.5 6.3 18.2
v 0.5 6.4 19.8
v 0.5 6.4 18.3
v 0.5 7.8 19.8
v 0.5 7.8 18.3
v 0.5 7.9 19.9
v 0.5 7.9 18.2
v 0.5 8.8 21.4
v 0.5 8.8 16.8
v 0.5 9 21.6
v 0.5 9 16.6
v 0.8 4.5 17.4
v 0.8 4.5 17
v 0.8 4.9 17.4
v 0.8 4.9 17
v 0.3 0 21.6
v 0.3 9 21.6
v 0.5 0 21.6
v 0.5 9 21.6
v 0 4.5 17.4
v 0 4.9 17.4
v 0.1 4.5 17.4
v 0.1 4.9 17.4
v 0.7 4.5 17.4
v 0.7 4.9 17.4
v 0.8 4.5 17.4
v 0.8 4.9 17.4
v 0.1 4.6 17.3
v 0.1 4.8 17.3
v 0.3 4.6 17.3
v 0.3 4.8 17.3
v 0.5 4.6 17.3
v 0.5 4.8 17.3
v 0.7 4.6 17.3
v 0.7 4.8 17.3
v 0.1 4.6 17.1
v 0.1 4.8 17.1
v 0.3 4.6 17.1
v 0.3 4.8 17.1
v 0.5 4.6 17.1
v 0.5 4.8 17.1
v 0.7 4.6 17.1
v 0.7 4.8 17.1
v 0 4.5 17
v 0 4.9 17
v 0.1 4.5 17
v 0.1 4.9 17
v 0.7 4.5 17
v 0.7 4.9 17
v 0.8 4.5 17
v 0.8 4.9 17
v 0.3 0 16.6
v 0.3 9 16.6
v 0.5 0 16.6
v 0.5 9 16.6
v 0.3 0 21.6
v 0.5 0 21.6
v 0.3 0 16.6
v 0.5 0 16.6
v 0 4.5 17.4
v 0.1 4.5 17.4
v 0.7 4.5 17.4
v 0.8 4.5 17.4
v 0 4.5 17
v 0.1 4.5 17
v 0.7 4.5 17
v 0.8 4.5 17
v 0.1 4.6 17.3
v 0.3 4.6 17.3
v 0.5 4.6 17.3
v 0.7 4.6 17.3
v 0.1 4.6 17.1
v 0.3 4.6 17.1
v 0.5 4.6 17.1
v 0.7 4.6 17.1
v 0.1 4.8 17.3
v 0.3 4.8 17.3
v 0.5 4.8 17.3
v 0.7 4.8 17.3
v 0.1 4.8 17.1
v 0.3 4.8 17.1
v 0.5 4.8 17.1
v 0.7 4.8 17.1
v 0 4.9 17.4
v 0.1 4.9 17.4
v 0.7 4.9 17.4
v 0.8 4.9 17.4
v 0 4.9 17
v 0.1 4.9 17
v 0.7 4.9 17
v 0.8 4.9 17
v 0.3 9 21.6
v 0.5 9 21.6
v 0.3 9 16.6
v 0.5 9 16.6

# faces
f 3/5/1 2/5/1 1/5/1
f 4/5/1 2/5/1 3/5/1
f 7/2/1 6/2/1 5/2/1
f 8/2/1 6/2/1 7/2/1
f 9/1/1 8/1/1 7/1/1
f 10/1/1 8/1/1 9/1/1
f 11/1/1 9/1/1 7/1/1
f 12/1/1 8/1/1 10/1/1
f 13/1/1 11/1/1 7/1/1
f 13/1/1 12/1/1 11/1/1
f 14/1/1 12/1/1 13/1/1
f 15/4/1 14/4/1 13/4/1
f 16/4/1 14/4/1 15/4/1
f 17/4/1 15/4/1 13/4/1
f 17/3/1 16/3/1 15/3/1
f 18/4/1 14/4/1 16/4/1
f 18/3/1 16/3/1 17/3/1
f 19/1/1 13/1/1 7/1/1
f 19/4/1 17/4/1 13/4/1
f 19/4/1 18/4/1 17/4/1
f 20/4/1 14/4/1 18/4/1
f 20/4/1 18/4/1 19/4/1
f 20/1/1 12/1/1 14/1/1
f 21/2/1 7/2/1 5/2/1
f 21/1/1 19/1/1 7/1/1
f 21/1/1 20/1/1 19/1/1
f 22/1/1 12/1/1 20/1/1
f 22/1/1 20/1/1 21/1/1
f 22/2/1 6/2/1 8/2/1
f 22/1/1 8/1/1 12/1/1
f 23/2/1 21/2/1 5/2/1
f 23/2/1 22/2/1 21/2/1
f 24/2/1 6/2/1 22/2/1
f 24/2/1 22/2/1 23/2/1
f 27/5/1 26/5/1 25/5/1
f 28/5/1 26/5/1 27/5/1
f 29/5/1 27/5/1 25/5/1
f 30/5/1 26/5/1 28/5/1
f 31/5/1 29/5/1 25/5/1
f 31/5/1 30/5/1 29/5/1
f 32/5/1 26/5/1 30/5/1
f 32/5/1 30/5/1 31/5/1
f 33/5/2 34/5/2 35/5/2
f 35/5/2 34/5/2 36/5/2
f 33/5/2 35/5/2 37/5/2
f 36/5/2 34/5/2 38/5/2
f 33/5/2 37/5/2 39/5/2
f 37/5/2 38/5/2 39/5/2
f 38/5/2 34/5/2 40/5/2
f 39/5/2 38/5/2 40/5/2
f 41/2/2 42/2/2 43/2/2
f 43/2/2 42/2/2 44/2/2
f 43/1/2 44/1/2 45/1/2
f 45/1/2 44/1/2 46/1/2
f 43/1/2 45/1/2 47/1/2
f 46/1/2 44/1/2 48/1/2
f 43/1/2 47/1/2 49/1/2
f 47/1/2 48/1/2 49/1/2
f 49/1/2 48/1/2 50/1/2
f 49/4/2 50/4/2 51/4/2
f 51/4/2 50/4/2 52/4/2
f 49/4/2 51/4/2 53/4/2
f 51/3/2 52/3/2 53/3/2
f 52/4/2 50/4/2 54/4/2
f 53/3/2 52/3/2 54/3/2
f 43/1/2 49/1/2 55/1/2
f 49/4/2 53/4/2 55/4/2
f 53/4/2 54/4/2 55/4/2
f 54/4/2 50/4/2 56/4/2
f 55/4/2 54/4/2 56/4/2
f 50/1/2 48/1/2 56/1/2
f 41/2/2 43/2/2 57/2/2
f 43/1/2 55/1/2 57/1/2
f 55/1/2 56/1/2 57/1/2
f 56/1/2 48/1/2 58/1/2
f 57/1/2 56/1/2 58/1/2
f 44/2/2 42/2/2 58/2/2
f 48/1/2 44/1/2 58/1/2
f 41/2/2 57/2/2 59/2/2
f 57/2/2 58/2/2 59/2/2
f 58/2/2 42/2/2 60/2/2
f 59/2/2 58/2/2 60/2/2
f 61/5/2 62/5/2 63/5/2
f 63/5/2 62/5/2 64/5/2
f 67/2/3 66/2/3 65/2/3
f 68/2/3 66/2/3 67/2/3
f 71/5/3 70/5/3 69/5/3
f 72/5/3 70/5/3 71/5/3
f 75/5/3 74/5/3 73/5/3
f 76/5/3 74/5/3 75/5/3
f 79/5/3 78/5/3 77/5/3
f 80/5/3 78/5/3 79/5/3
f 83/5/3 82/5/3 81/5/3
f 84/5/3 82/5/3 83/5/3
f 85/5/4 86/5/4 87/5/4
f 87/5/4 86/5/4 88/5/4
f 89/5/4 90/5/4 91/5/4
f 91/5/4 90/5/4 92/5/4
f 93/5/4 94/5/4 95/5/4
f 95/5/4 94/5/4 96/5/4
f 97/5/4 98/5/4 99/5/4
f 99/5/4 98/5/4 100/5/4
f 101/2/4 102/2/4 103/2/4
f 103/2/4 102/2/4 104/2/4
f 107/2/5 106/2/5 105/2/5
f 108/2/5 106/2/5 107/2/5
f 113/5/5 110/5/5 109/5/5
f 114/5/5 110/5/5 113/5/5
f 115/5/5 112/5/5 111/5/5
f 116/5/5 112/5/5 115/5/5
f 121/5/5 118/5/5 117/5/5
f 122/5/5 118/5/5 121/5/5
f 123/5/5 120/5/5 119/5/5
f 124/5/5 120/5/5 123/5/5
f 125/5/6 126/5/6 129/5/6
f 129/5/6 126/5/6 130/5/6
f 127/5/6 128/5/6 131/5/6
f 131/5/6 128/5/6 132/5/6
f 133/5/6 134/5/6 137/5/6
f 137/5/6 134/5/6 138/5/6
f 135/5/6 136/5/6 139/5/6
f 139/5/6 136/5/6 140/5/6
f 141/2/6 142/2/6 143/2/6
f 143/2/6 142/2/6 144/2/6
