# MagicaVoxel @ Ephtracy

# group
o stapler

# material
mtllib SchoolPack-7-stapler.mtl
usemtl palette

# normals
vn -1 0 0
vn 1 0 0
vn 0 0 1
vn 0 0 -1
vn 0 -1 0
vn 0 1 0

# texcoords
vt 0.978516 0.5
vt 0.990234 0.5

# verts
v -8.6 0 6.5
v -8.6 0 6.1
v -8.6 0.4 6.5
v -8.6 0.4 6.1
v -8.5 0.4 6.5
v -8.5 0.4 6.1
v -8.5 0.5 6.5
v -8.5 0.5 6.1
v -8.3 0.1 6.5
v -8.3 0.1 6.4
v -8.3 0.1 6.2
v -8.3 0.1 6.1
v -8.3 0.2 6.4
v -8.3 0.2 6.2
v -8.3 0.3 6.5
v -8.3 0.3 6.4
v -8.3 0.3 6.2
v -8.3 0.3 6.1
v -7.3 0 6.5
v -7.3 0 6.1
v -7.3 0.1 6.5
v -7.3 0.1 6.4
v -7.3 0.1 6.2
v -7.3 0.1 6.1
v -7.3 0.2 6.4
v -7.3 0.2 6.2
v -7.3 0.3 6.5
v -7.3 0.3 6.4
v -7.3 0.3 6.2
v -7.3 0.3 6.1
v -7.3 0.4 6.4
v -7.3 0.4 6.2
v -7.3 0.5 6.5
v -7.3 0.5 6.1
v -8.6 0 6.5
v -8.6 0.4 6.5
v -8.5 0.4 6.5
v -8.5 0.5 6.5
v -8.3 0.1 6.5
v -8.3 0.3 6.5
v -7.3 0 6.5
v -7.3 0.1 6.5
v -7.3 0.3 6.5
v -7.3 0.5 6.5
v -8.3 0.1 6.4
v -8.3 0.2 6.4
v -7.3 0.1 6.4
v -7.3 0.2 6.4
v -8.3 0.1 6.2
v -8.3 0.2 6.2
v -7.3 0.1 6.2
v -7.3 0.2 6.2
v -8.6 0 6.1
v -8.6 0.4 6.1
v -8.5 0.4 6.1
v -8.5 0.5 6.1
v -8.3 0.1 6.1
v -8.3 0.3 6.1
v -7.3 0 6.1
v -7.3 0.1 6.1
v -7.3 0.3 6.1
v -7.3 0.5 6.1
v -8.6 0 6.5
v -7.3 0 6.5
v -8.6 0 6.1
v -7.3 0 6.1
v -8.3 0.3 6.5
v -7.3 0.3 6.5
v -8.3 0.3 6.4
v -7.3 0.3 6.4
v -8.3 0.3 6.2
v -7.3 0.3 6.2
v -8.3 0.3 6.1
v -7.3 0.3 6.1
v -8.3 0.1 6.5
v -7.3 0.1 6.5
v -8.3 0.1 6.4
v -7.3 0.1 6.4
v -8.3 0.1 6.2
v -7.3 0.1 6.2
v -8.3 0.1 6.1
v -7.3 0.1 6.1
v -8.3 0.2 6.4
v -7.3 0.2 6.4
v -8.3 0.2 6.2
v -7.3 0.2 6.2
v -8.6 0.4 6.5
v -8.5 0.4 6.5
v -8.6 0.4 6.1
v -8.5 0.4 6.1
v -8.5 0.5 6.5
v -7.3 0.5 6.5
v -8.5 0.5 6.1
v -7.3 0.5 6.1

# faces
f 3/2/1 2/2/1 1/2/1
f 4/2/1 2/2/1 3/2/1
f 7/2/1 6/2/1 5/2/1
f 8/2/1 6/2/1 7/2/1
f 9/2/2 10/2/2 13/2/2
f 11/2/2 12/2/2 14/2/2
f 9/2/2 13/2/2 15/2/2
f 13/1/2 14/1/2 16/1/2
f 15/2/2 13/2/2 16/2/2
f 14/2/2 12/2/2 17/2/2
f 16/1/2 14/1/2 17/1/2
f 17/2/2 12/2/2 18/2/2
f 19/2/2 20/2/2 21/2/2
f 21/2/2 20/2/2 22/2/2
f 22/2/2 20/2/2 23/2/2
f 23/2/2 20/2/2 24/2/2
f 22/1/2 23/1/2 25/1/2
f 25/1/2 23/1/2 26/1/2
f 28/1/2 29/1/2 31/1/2
f 27/2/2 28/2/2 31/2/2
f 29/2/2 30/2/2 32/2/2
f 31/1/2 29/1/2 32/1/2
f 27/2/2 31/2/2 33/2/2
f 31/2/2 32/2/2 33/2/2
f 32/2/2 30/2/2 34/2/2
f 33/2/2 32/2/2 34/2/2
f 37/2/3 36/2/3 35/2/3
f 39/2/3 37/2/3 35/2/3
f 39/2/3 38/2/3 37/2/3
f 40/2/3 38/2/3 39/2/3
f 41/2/3 39/2/3 35/2/3
f 42/2/3 39/2/3 41/2/3
f 43/2/3 38/2/3 40/2/3
f 44/2/3 38/2/3 43/2/3
f 47/1/3 46/1/3 45/1/3
f 48/1/3 46/1/3 47/1/3
f 49/1/4 50/1/4 51/1/4
f 51/1/4 50/1/4 52/1/4
f 53/2/4 54/2/4 55/2/4
f 53/2/4 55/2/4 57/2/4
f 55/2/4 56/2/4 57/2/4
f 57/2/4 56/2/4 58/2/4
f 53/2/4 57/2/4 59/2/4
f 59/2/4 57/2/4 60/2/4
f 58/2/4 56/2/4 61/2/4
f 61/2/4 56/2/4 62/2/4
f 65/2/5 64/2/5 63/2/5
f 66/2/5 64/2/5 65/2/5
f 69/2/5 68/2/5 67/2/5
f 70/2/5 68/2/5 69/2/5
f 71/1/5 70/1/5 69/1/5
f 72/1/5 70/1/5 71/1/5
f 73/2/5 72/2/5 71/2/5
f 74/2/5 72/2/5 73/2/5
f 75/2/6 76/2/6 77/2/6
f 77/2/6 76/2/6 78/2/6
f 79/2/6 80/2/6 81/2/6
f 81/2/6 80/2/6 82/2/6
f 83/1/6 84/1/6 85/1/6
f 85/1/6 84/1/6 86/1/6
f 87/2/6 88/2/6 89/2/6
f 89/2/6 88/2/6 90/2/6
f 91/2/6 92/2/6 93/2/6
f 93/2/6 92/2/6 94/2/6
