# MagicaVoxel @ Ephtracy

# group
o living room fan

# material
mtllib SchoolPack-46-living room fan.mtl
usemtl palette

# normals
vn -1 0 0
vn 1 0 0
vn 0 0 1
vn 0 0 -1
vn 0 -1 0
vn 0 1 0

# texcoords
vt 0.0175781 0.5
vt 0.958984 0.5
vt 0.978516 0.5

# verts
v -10.3 10.5 11.1
v -10.3 10.5 10.5
v -10.3 10.6 11.1
v -10.3 10.6 10.5
v -8.6 10.5 12.8
v -8.6 10.5 11.3
v -8.6 10.5 10.3
v -8.6 10.5 8.8
v -8.6 10.6 12.8
v -8.6 10.6 11.3
v -8.6 10.6 10.3
v -8.6 10.6 8.8
v -8.5 10.5 11.3
v -8.5 10.5 11
v -8.5 10.5 10.6
v -8.5 10.5 10.3
v -8.5 10.6 11.3
v -8.5 10.6 11
v -8.5 10.6 10.6
v -8.5 10.6 10.3
v -8.5 10.7 11
v -8.5 10.7 10.6
v -8.4 10.7 10.9
v -8.4 10.7 10.7
v -8.4 12.2 10.9
v -8.4 12.2 10.7
v -7.8 10.5 11.1
v -7.8 10.5 11
v -7.8 10.5 10.6
v -7.8 10.5 10.5
v -7.8 10.6 11.1
v -7.8 10.6 11
v -7.8 10.6 10.6
v -7.8 10.6 10.5
v -8.8 10.5 11.1
v -8.8 10.5 11
v -8.8 10.5 10.6
v -8.8 10.5 10.5
v -8.8 10.6 11.1
v -8.8 10.6 11
v -8.8 10.6 10.6
v -8.8 10.6 10.5
v -8.2 10.7 10.9
v -8.2 10.7 10.7
v -8.2 12.2 10.9
v -8.2 12.2 10.7
v -8.1 10.5 11.3
v -8.1 10.5 11
v -8.1 10.5 10.6
v -8.1 10.5 10.3
v -8.1 10.6 11.3
v -8.1 10.6 11
v -8.1 10.6 10.6
v -8.1 10.6 10.3
v -8.1 10.7 11
v -8.1 10.7 10.6
v -8 10.5 12.8
v -8 10.5 11.3
v -8 10.5 10.3
v -8 10.5 8.8
v -8 10.6 12.8
v -8 10.6 11.3
v -8 10.6 10.3
v -8 10.6 8.8
v -6.3 10.5 11.1
v -6.3 10.5 10.5
v -6.3 10.6 11.1
v -6.3 10.6 10.5
v -8.6 10.5 12.8
v -8.6 10.6 12.8
v -8 10.5 12.8
v -8 10.6 12.8
v -10.3 10.5 11.1
v -10.3 10.6 11.1
v -8.8 10.5 11.1
v -8.8 10.6 11.1
v -7.8 10.5 11.1
v -7.8 10.6 11.1
v -6.3 10.5 11.1
v -6.3 10.6 11.1
v -8.8 10.5 11
v -8.8 10.6 11
v -8.5 10.5 11
v -8.5 10.6 11
v -8.5 10.7 11
v -8.1 10.5 11
v -8.1 10.6 11
v -8.1 10.7 11
v -7.8 10.5 11
v -7.8 10.6 11
v -8.4 10.7 10.9
v -8.4 12.2 10.9
v -8.2 10.7 10.9
v -8.2 12.2 10.9
v -8.6 10.5 10.3
v -8.6 10.6 10.3
v -8.5 10.5 10.3
v -8.5 10.6 10.3
v -8.1 10.5 10.3
v -8.1 10.6 10.3
v -8 10.5 10.3
v -8 10.6 10.3
v -8.6 10.5 11.3
v -8.6 10.6 11.3
v -8.5 10.5 11.3
v -8.5 10.6 11.3
v -8.1 10.5 11.3
v -8.1 10.6 11.3
v -8 10.5 11.3
v -8 10.6 11.3
v -8.4 10.7 10.7
v -8.4 12.2 10.7
v -8.2 10.7 10.7
v -8.2 12.2 10.7
v -8.8 10.5 10.6
v -8.8 10.6 10.6
v -8.5 10.5 10.6
v -8.5 10.6 10.6
v -8.5 10.7 10.6
v -8.1 10.5 10.6
v -8.1 10.6 10.6
v -8.1 10.7 10.6
v -7.8 10.5 10.6
v -7.8 10.6 10.6
v -10.3 10.5 10.5
v -10.3 10.6 10.5
v -8.8 10.5 10.5
v -8.8 10.6 10.5
v -7.8 10.5 10.5
v -7.8 10.6 10.5
v -6.3 10.5 10.5
v -6.3 10.6 10.5
v -8.6 10.5 8.8
v -8.6 10.6 8.8
v -8 10.5 8.8
v -8 10.6 8.8
v -8.6 10.5 12.8
v -8 10.5 12.8
v -8.6 10.5 11.3
v -8.5 10.5 11.3
v -8.1 10.5 11.3
v -8 10.5 11.3
v -10.3 10.5 11.1
v -8.8 10.5 11.1
v -7.8 10.5 11.1
v -6.3 10.5 11.1
v -8.8 10.5 11
v -8.5 10.5 11
v -8.1 10.5 11
v -7.8 10.5 11
v -8.8 10.5 10.6
v -8.5 10.5 10.6
v -8.1 10.5 10.6
v -7.8 10.5 10.6
v -10.3 10.5 10.5
v -8.8 10.5 10.5
v -7.8 10.5 10.5
v -6.3 10.5 10.5
v -8.6 10.5 10.3
v -8.5 10.5 10.3
v -8.1 10.5 10.3
v -8 10.5 10.3
v -8.6 10.5 8.8
v -8 10.5 8.8
v -8.6 10.6 12.8
v -8 10.6 12.8
v -8.6 10.6 11.3
v -8.5 10.6 11.3
v -8.1 10.6 11.3
v -8 10.6 11.3
v -10.3 10.6 11.1
v -8.8 10.6 11.1
v -7.8 10.6 11.1
v -6.3 10.6 11.1
v -8.8 10.6 11
v -8.5 10.6 11
v -8.1 10.6 11
v -7.8 10.6 11
v -8.8 10.6 10.6
v -8.5 10.6 10.6
v -8.1 10.6 10.6
v -7.8 10.6 10.6
v -10.3 10.6 10.5
v -8.8 10.6 10.5
v -7.8 10.6 10.5
v -6.3 10.6 10.5
v -8.6 10.6 10.3
v -8.5 10.6 10.3
v -8.1 10.6 10.3
v -8 10.6 10.3
v -8.6 10.6 8.8
v -8 10.6 8.8
v -8.5 10.7 11
v -8.1 10.7 11
v -8.4 10.7 10.9
v -8.2 10.7 10.9
v -8.4 10.7 10.7
v -8.2 10.7 10.7
v -8.5 10.7 10.6
v -8.1 10.7 10.6
v -8.4 12.2 10.9
v -8.2 12.2 10.9
v -8.4 12.2 10.7
v -8.2 12.2 10.7

# faces
f 3/3/1 2/3/1 1/3/1
f 4/3/1 2/3/1 3/3/1
f 9/3/1 6/3/1 5/3/1
f 10/3/1 6/3/1 9/3/1
f 11/3/1 8/3/1 7/3/1
f 12/3/1 8/3/1 11/3/1
f 17/3/1 14/3/1 13/3/1
f 18/3/1 14/3/1 17/3/1
f 19/3/1 16/3/1 15/3/1
f 20/3/1 16/3/1 19/3/1
f 21/1/1 19/1/1 18/1/1
f 22/1/1 19/1/1 21/1/1
f 25/3/1 24/3/1 23/3/1
f 26/3/1 24/3/1 25/3/1
f 31/3/1 28/3/1 27/3/1
f 32/3/1 28/3/1 31/3/1
f 33/3/1 30/3/1 29/3/1
f 34/3/1 30/3/1 33/3/1
f 35/3/2 36/3/2 39/3/2
f 39/3/2 36/3/2 40/3/2
f 37/3/2 38/3/2 41/3/2
f 41/3/2 38/3/2 42/3/2
f 43/3/2 44/3/2 45/3/2
f 45/3/2 44/3/2 46/3/2
f 47/3/2 48/3/2 51/3/2
f 51/3/2 48/3/2 52/3/2
f 49/3/2 50/3/2 53/3/2
f 53/3/2 50/3/2 54/3/2
f 52/1/2 53/1/2 55/1/2
f 55/1/2 53/1/2 56/1/2
f 57/3/2 58/3/2 61/3/2
f 61/3/2 58/3/2 62/3/2
f 59/3/2 60/3/2 63/3/2
f 63/3/2 60/3/2 64/3/2
f 65/3/2 66/3/2 67/3/2
f 67/3/2 66/3/2 68/3/2
f 71/3/3 70/3/3 69/3/3
f 72/3/3 70/3/3 71/3/3
f 75/3/3 74/3/3 73/3/3
f 76/3/3 74/3/3 75/3/3
f 79/3/3 78/3/3 77/3/3
f 80/3/3 78/3/3 79/3/3
f 83/3/3 82/3/3 81/3/3
f 84/3/3 82/3/3 83/3/3
f 87/1/3 85/1/3 84/1/3
f 88/1/3 85/1/3 87/1/3
f 89/3/3 87/3/3 86/3/3
f 90/3/3 87/3/3 89/3/3
f 93/3/3 92/3/3 91/3/3
f 94/3/3 92/3/3 93/3/3
f 97/3/3 96/3/3 95/3/3
f 98/3/3 96/3/3 97/3/3
f 101/3/3 100/3/3 99/3/3
f 102/3/3 100/3/3 101/3/3
f 103/3/4 104/3/4 105/3/4
f 105/3/4 104/3/4 106/3/4
f 107/3/4 108/3/4 109/3/4
f 109/3/4 108/3/4 110/3/4
f 111/3/4 112/3/4 113/3/4
f 113/3/4 112/3/4 114/3/4
f 115/3/4 116/3/4 117/3/4
f 117/3/4 116/3/4 118/3/4
f 118/1/4 119/1/4 121/1/4
f 121/1/4 119/1/4 122/1/4
f 120/3/4 121/3/4 123/3/4
f 123/3/4 121/3/4 124/3/4
f 125/3/4 126/3/4 127/3/4
f 127/3/4 126/3/4 128/3/4
f 129/3/4 130/3/4 131/3/4
f 131/3/4 130/3/4 132/3/4
f 133/3/4 134/3/4 135/3/4
f 135/3/4 134/3/4 136/3/4
f 139/3/5 138/3/5 137/3/5
f 140/3/5 138/3/5 139/3/5
f 141/3/5 138/3/5 140/3/5
f 142/3/5 138/3/5 141/3/5
f 147/3/5 144/3/5 143/3/5
f 148/3/5 141/3/5 140/3/5
f 149/3/5 141/3/5 148/3/5
f 150/3/5 146/3/5 145/3/5
f 151/3/5 147/3/5 143/3/5
f 151/3/5 148/3/5 147/3/5
f 152/2/5 149/2/5 148/2/5
f 152/3/5 148/3/5 151/3/5
f 153/3/5 150/3/5 149/3/5
f 153/2/5 149/2/5 152/2/5
f 154/3/5 146/3/5 150/3/5
f 154/3/5 150/3/5 153/3/5
f 155/3/5 151/3/5 143/3/5
f 156/3/5 151/3/5 155/3/5
f 157/3/5 146/3/5 154/3/5
f 158/3/5 146/3/5 157/3/5
f 160/3/5 153/3/5 152/3/5
f 161/3/5 153/3/5 160/3/5
f 163/3/5 160/3/5 159/3/5
f 163/3/5 162/3/5 161/3/5
f 163/3/5 161/3/5 160/3/5
f 164/3/5 162/3/5 163/3/5
f 165/3/6 166/3/6 167/3/6
f 167/3/6 166/3/6 168/3/6
f 168/3/6 166/3/6 169/3/6
f 169/3/6 166/3/6 170/3/6
f 171/3/6 172/3/6 175/3/6
f 168/3/6 169/3/6 176/3/6
f 176/3/6 169/3/6 177/3/6
f 173/3/6 174/3/6 178/3/6
f 171/3/6 175/3/6 179/3/6
f 175/3/6 176/3/6 179/3/6
f 179/3/6 176/3/6 180/3/6
f 177/3/6 178/3/6 181/3/6
f 178/3/6 174/3/6 182/3/6
f 181/3/6 178/3/6 182/3/6
f 171/3/6 179/3/6 183/3/6
f 183/3/6 179/3/6 184/3/6
f 182/3/6 174/3/6 185/3/6
f 185/3/6 174/3/6 186/3/6
f 180/3/6 181/3/6 188/3/6
f 188/3/6 181/3/6 189/3/6
f 187/3/6 188/3/6 191/3/6
f 189/3/6 190/3/6 191/3/6
f 188/3/6 189/3/6 191/3/6
f 191/3/6 190/3/6 192/3/6
f 193/1/6 194/1/6 195/1/6
f 195/1/6 194/1/6 196/1/6
f 193/1/6 195/1/6 197/1/6
f 196/1/6 194/1/6 198/1/6
f 193/1/6 197/1/6 199/1/6
f 197/1/6 198/1/6 199/1/6
f 198/1/6 194/1/6 200/1/6
f 199/1/6 198/1/6 200/1/6
f 201/3/6 202/3/6 203/3/6
f 203/3/6 202/3/6 204/3/6
