# MagicaVoxel @ Ephtracy

# group
o sunflower

# material
mtllib SchoolPack-19-sunflower.mtl
usemtl palette

# normals
vn -1 0 0
vn 1 0 0
vn 0 0 1
vn 0 0 -1
vn 0 -1 0
vn 0 1 0

# texcoords
vt 0.0175781 0.5
vt 0.255859 0.5
vt 0.369141 0.5
vt 0.373047 0.5
vt 0.900391 0.5

# verts
v -7.5 0.8 -4.3
v -7.5 0.8 -5.9
v -7.5 1.1 -4.3
v -7.5 1.1 -5.9
v -7.3 0 -4.5
v -7.3 0 -5.7
v -7.3 0.8 -4.5
v -7.3 0.8 -5.7
v -7.3 2 -5
v -7.3 2 -5.3
v -7.3 2.2 -5
v -7.3 2.2 -5.3
v -7.3 2.6 -5
v -7.3 2.6 -5.3
v -7.3 3.3 -5
v -7.3 3.3 -5.3
v -7.1 1.8 -5
v -7.1 1.8 -5.3
v -7.1 2 -5
v -7.1 2 -5.3
v -6.9 1.1 -5
v -6.9 1.1 -5.3
v -6.9 1.8 -5
v -6.9 1.8 -5.3
v -6.9 2 -5
v -6.9 2 -5.3
v -6.9 2.6 -5
v -6.9 2.6 -5.3
v -6.5 2 -5
v -6.5 2 -5.3
v -6.5 2.2 -5
v -6.5 2.2 -5.3
v -7 2 -5
v -7 2 -5.3
v -7 2.2 -5
v -7 2.2 -5.3
v -6.6 1.1 -5
v -6.6 1.1 -5.3
v -6.6 1.8 -5
v -6.6 1.8 -5.3
v -6.6 2 -5
v -6.6 2 -5.3
v -6.6 2.6 -5
v -6.6 2.6 -5.3
v -6.3 1.8 -5
v -6.3 1.8 -5.3
v -6.3 2 -5
v -6.3 2 -5.3
v -6.2 0 -4.5
v -6.2 0 -5.7
v -6.2 0.8 -4.5
v -6.2 0.8 -4.6
v -6.2 0.8 -5.7
v -6.2 2.6 -5
v -6.2 2.6 -5.3
v -6.2 3.3 -5
v -6.2 3.3 -5.3
v -6.1 2 -5
v -6.1 2 -5.3
v -6.1 2.2 -5
v -6.1 2.2 -5.3
v -6 0.8 -4.3
v -6 0.8 -5.9
v -6 1.1 -4.3
v -6 1.1 -5.9
v -7.5 0.8 -4.3
v -7.5 1.1 -4.3
v -6 0.8 -4.3
v -6 1.1 -4.3
v -7.3 0 -4.5
v -7.3 0.8 -4.5
v -6.2 0 -4.5
v -6.2 0.8 -4.5
v -7.3 2 -5
v -7.3 2.2 -5
v -7.3 2.6 -5
v -7.3 3.3 -5
v -7.2 2.7 -5
v -7.2 3.2 -5
v -7.1 1.8 -5
v -7.1 2 -5
v -7 2 -5
v -7 2.2 -5
v -6.9 1.1 -5
v -6.9 1.8 -5
v -6.9 2 -5
v -6.9 2.6 -5
v -6.6 1.1 -5
v -6.6 1.8 -5
v -6.6 2 -5
v -6.6 2.6 -5
v -6.5 2 -5
v -6.5 2.2 -5
v -6.3 1.8 -5
v -6.3 2 -5
v -6.3 2.7 -5
v -6.3 3.2 -5
v -6.2 2.6 -5
v -6.2 3.3 -5
v -6.1 2 -5
v -6.1 2.2 -5
v -7.3 2 -5.3
v -7.3 2.2 -5.3
v -7.3 2.6 -5.3
v -7.3 3.3 -5.3
v -7.1 1.8 -5.3
v -7.1 2 -5.3
v -7 2 -5.3
v -7 2.2 -5.3
v -6.9 1.1 -5.3
v -6.9 1.8 -5.3
v -6.9 2 -5.3
v -6.9 2.6 -5.3
v -6.6 1.1 -5.3
v -6.6 1.8 -5.3
v -6.6 2 -5.3
v -6.6 2.6 -5.3
v -6.5 2 -5.3
v -6.5 2.2 -5.3
v -6.3 1.8 -5.3
v -6.3 2 -5.3
v -6.2 2.6 -5.3
v -6.2 3.3 -5.3
v -6.1 2 -5.3
v -6.1 2.2 -5.3
v -7.3 0 -5.7
v -7.3 0.8 -5.7
v -6.2 0 -5.7
v -6.2 0.8 -5.7
v -7.5 0.8 -5.9
v -7.5 1.1 -5.9
v -6 0.8 -5.9
v -6 1.1 -5.9
v -7.3 0 -4.5
v -6.2 0 -4.5
v -7.2 0 -4.6
v -6.3 0 -4.6
v -7.2 0 -5.6
v -6.3 0 -5.6
v -7.3 0 -5.7
v -6.2 0 -5.7
v -7.5 0.8 -4.3
v -6 0.8 -4.3
v -7.3 0.8 -4.5
v -6.2 0.8 -4.5
v -6.1 0.8 -4.5
v -6.2 0.8 -4.6
v -6.1 0.8 -4.6
v -7.3 0.8 -5.7
v -6.2 0.8 -5.7
v -7.5 0.8 -5.9
v -6 0.8 -5.9
v -7.1 1.8 -5
v -6.9 1.8 -5
v -6.6 1.8 -5
v -6.3 1.8 -5
v -7.1 1.8 -5.3
v -6.9 1.8 -5.3
v -6.6 1.8 -5.3
v -6.3 1.8 -5.3
v -7.3 2 -5
v -7.1 2 -5
v -6.3 2 -5
v -6.1 2 -5
v -7.3 2 -5.3
v -7.1 2 -5.3
v -6.3 2 -5.3
v -6.1 2 -5.3
v -7.3 2.6 -5
v -6.9 2.6 -5
v -6.6 2.6 -5
v -6.2 2.6 -5
v -7.3 2.6 -5.3
v -6.9 2.6 -5.3
v -6.6 2.6 -5.3
v -6.2 2.6 -5.3
v -7.5 1.1 -4.3
v -6 1.1 -4.3
v -7.3 1.1 -4.5
v -6.2 1.1 -4.5
v -6.9 1.1 -5
v -6.6 1.1 -5
v -6.9 1.1 -5.3
v -6.6 1.1 -5.3
v -7.3 1.1 -5.7
v -6.2 1.1 -5.7
v -7.5 1.1 -5.9
v -6 1.1 -5.9
v -7 2 -5
v -6.9 2 -5
v -6.6 2 -5
v -6.5 2 -5
v -7 2 -5.3
v -6.9 2 -5.3
v -6.6 2 -5.3
v -6.5 2 -5.3
v -7.3 2.2 -5
v -7 2.2 -5
v -6.5 2.2 -5
v -6.1 2.2 -5
v -7.3 2.2 -5.3
v -7 2.2 -5.3
v -6.5 2.2 -5.3
v -6.1 2.2 -5.3
v -7.3 3.3 -5
v -6.2 3.3 -5
v -7.3 3.3 -5.3
v -6.2 3.3 -5.3

# faces
f 3/2/1 2/2/1 1/2/1
f 4/2/1 2/2/1 3/2/1
f 7/2/1 6/2/1 5/2/1
f 8/2/1 6/2/1 7/2/1
f 11/5/1 10/5/1 9/5/1
f 12/5/1 10/5/1 11/5/1
f 15/1/1 14/1/1 13/1/1
f 16/1/1 14/1/1 15/1/1
f 19/5/1 18/5/1 17/5/1
f 20/5/1 18/5/1 19/5/1
f 23/5/1 22/5/1 21/5/1
f 24/5/1 22/5/1 23/5/1
f 27/5/1 26/5/1 25/5/1
f 28/5/1 26/5/1 27/5/1
f 31/5/1 30/5/1 29/5/1
f 32/5/1 30/5/1 31/5/1
f 33/5/2 34/5/2 35/5/2
f 35/5/2 34/5/2 36/5/2
f 37/5/2 38/5/2 39/5/2
f 39/5/2 38/5/2 40/5/2
f 41/5/2 42/5/2 43/5/2
f 43/5/2 42/5/2 44/5/2
f 45/5/2 46/5/2 47/5/2
f 47/5/2 46/5/2 48/5/2
f 49/2/2 50/2/2 51/2/2
f 51/2/2 50/2/2 52/2/2
f 52/2/2 50/2/2 53/2/2
f 54/1/2 55/1/2 56/1/2
f 56/1/2 55/1/2 57/1/2
f 58/5/2 59/5/2 60/5/2
f 60/5/2 59/5/2 61/5/2
f 62/2/2 63/2/2 64/2/2
f 64/2/2 63/2/2 65/2/2
f 68/2/3 67/2/3 66/2/3
f 69/2/3 67/2/3 68/2/3
f 72/2/3 71/2/3 70/2/3
f 73/2/3 71/2/3 72/2/3
f 78/1/3 77/1/3 76/1/3
f 79/1/3 77/1/3 78/1/3
f 81/5/3 75/5/3 74/5/3
f 82/5/3 75/5/3 81/5/3
f 82/5/3 81/5/3 80/5/3
f 83/5/3 75/5/3 82/5/3
f 85/5/3 82/5/3 80/5/3
f 86/5/3 82/5/3 85/5/3
f 87/1/3 78/1/3 76/1/3
f 88/5/3 86/5/3 85/5/3
f 88/5/3 87/5/3 86/5/3
f 88/5/3 85/5/3 84/5/3
f 89/5/3 87/5/3 88/5/3
f 90/5/3 87/5/3 89/5/3
f 91/1/3 78/1/3 87/1/3
f 91/5/3 87/5/3 90/5/3
f 92/5/3 90/5/3 89/5/3
f 94/5/3 92/5/3 89/5/3
f 94/5/3 93/5/3 92/5/3
f 95/5/3 93/5/3 94/5/3
f 96/1/3 78/1/3 91/1/3
f 96/3/3 79/3/3 78/3/3
f 97/1/3 77/1/3 79/1/3
f 97/3/3 79/3/3 96/3/3
f 98/1/3 96/1/3 91/1/3
f 98/1/3 97/1/3 96/1/3
f 99/1/3 77/1/3 97/1/3
f 99/1/3 97/1/3 98/1/3
f 100/5/3 93/5/3 95/5/3
f 101/5/3 93/5/3 100/5/3
f 102/5/4 103/5/4 107/5/4
f 107/5/4 103/5/4 108/5/4
f 106/5/4 107/5/4 108/5/4
f 108/5/4 103/5/4 109/5/4
f 106/5/4 108/5/4 111/5/4
f 111/5/4 108/5/4 112/5/4
f 104/1/4 105/1/4 113/1/4
f 111/5/4 112/5/4 114/5/4
f 112/5/4 113/5/4 114/5/4
f 110/5/4 111/5/4 114/5/4
f 114/5/4 113/5/4 115/5/4
f 115/5/4 113/5/4 116/5/4
f 113/1/4 105/1/4 117/1/4
f 116/5/4 113/5/4 117/5/4
f 115/5/4 116/5/4 118/5/4
f 115/5/4 118/5/4 120/5/4
f 118/5/4 119/5/4 120/5/4
f 120/5/4 119/5/4 121/5/4
f 117/1/4 105/1/4 122/1/4
f 122/1/4 105/1/4 123/1/4
f 121/5/4 119/5/4 124/5/4
f 124/5/4 119/5/4 125/5/4
f 126/2/4 127/2/4 128/2/4
f 128/2/4 127/2/4 129/2/4
f 130/2/4 131/2/4 132/2/4
f 132/2/4 131/2/4 133/2/4
f 136/2/5 135/2/5 134/2/5
f 137/2/5 135/2/5 136/2/5
f 138/2/5 136/2/5 134/2/5
f 138/4/5 137/4/5 136/4/5
f 139/2/5 135/2/5 137/2/5
f 139/4/5 137/4/5 138/4/5
f 140/2/5 138/2/5 134/2/5
f 140/2/5 139/2/5 138/2/5
f 141/2/5 135/2/5 139/2/5
f 141/2/5 139/2/5 140/2/5
f 144/2/5 143/2/5 142/2/5
f 145/2/5 143/2/5 144/2/5
f 146/2/5 143/2/5 145/2/5
f 147/4/5 146/4/5 145/4/5
f 148/2/5 143/2/5 146/2/5
f 148/4/5 146/4/5 147/4/5
f 149/2/5 144/2/5 142/2/5
f 150/2/5 148/2/5 147/2/5
f 151/2/5 149/2/5 142/2/5
f 151/2/5 150/2/5 149/2/5
f 152/2/5 143/2/5 148/2/5
f 152/2/5 150/2/5 151/2/5
f 152/2/5 148/2/5 150/2/5
f 157/5/5 154/5/5 153/5/5
f 158/5/5 154/5/5 157/5/5
f 159/5/5 156/5/5 155/5/5
f 160/5/5 156/5/5 159/5/5
f 165/5/5 162/5/5 161/5/5
f 166/5/5 162/5/5 165/5/5
f 167/5/5 164/5/5 163/5/5
f 168/5/5 164/5/5 167/5/5
f 173/1/5 170/1/5 169/1/5
f 174/1/5 170/1/5 173/1/5
f 175/1/5 172/1/5 171/1/5
f 176/1/5 172/1/5 175/1/5
f 177/2/6 178/2/6 179/2/6
f 179/2/6 178/2/6 180/2/6
f 179/4/6 180/4/6 181/4/6
f 181/4/6 180/4/6 182/4/6
f 179/4/6 181/4/6 183/4/6
f 182/4/6 180/4/6 184/4/6
f 177/2/6 179/2/6 185/2/6
f 183/4/6 184/4/6 185/4/6
f 179/4/6 183/4/6 185/4/6
f 184/4/6 180/4/6 186/4/6
f 185/4/6 184/4/6 186/4/6
f 180/2/6 178/2/6 186/2/6
f 177/2/6 185/2/6 187/2/6
f 185/2/6 186/2/6 187/2/6
f 186/2/6 178/2/6 188/2/6
f 187/2/6 186/2/6 188/2/6
f 189/5/6 190/5/6 193/5/6
f 193/5/6 190/5/6 194/5/6
f 191/5/6 192/5/6 195/5/6
f 195/5/6 192/5/6 196/5/6
f 197/5/6 198/5/6 201/5/6
f 201/5/6 198/5/6 202/5/6
f 199/5/6 200/5/6 203/5/6
f 203/5/6 200/5/6 204/5/6
f 205/1/6 206/1/6 207/1/6
f 207/1/6 206/1/6 208/1/6
