# MagicaVoxel @ Ephtracy

# group
o clock

# material
mtllib SchoolPack-43-clock.mtl
usemtl palette

# normals
vn -1 0 0
vn 1 0 0
vn 0 0 1
vn 0 0 -1
vn 0 -1 0
vn 0 1 0

# texcoords
vt 0.958984 0.5
vt 0.974609 0.5
vt 0.994141 0.5

# verts
v -0.8 0 -3.6
v -0.8 0 -4.9
v -0.8 0.1 -3.5
v -0.8 0.1 -3.6
v -0.8 0.1 -4.9
v -0.8 0.1 -5
v -0.8 1.4 -3.5
v -0.8 1.4 -3.6
v -0.8 1.4 -4.9
v -0.8 1.4 -5
v -0.8 1.5 -3.6
v -0.8 1.5 -4.9
v -0.5 0 -3.6
v -0.5 0 -4.9
v -0.5 0.1 -3.5
v -0.5 0.1 -3.6
v -0.5 0.1 -3.7
v -0.5 0.1 -4.2
v -0.5 0.1 -4.3
v -0.5 0.1 -4.8
v -0.5 0.1 -4.9
v -0.5 0.1 -5
v -0.5 0.2 -3.6
v -0.5 0.2 -3.7
v -0.5 0.2 -3.8
v -0.5 0.2 -4.2
v -0.5 0.2 -4.3
v -0.5 0.2 -4.7
v -0.5 0.2 -4.8
v -0.5 0.2 -4.9
v -0.5 0.3 -3.7
v -0.5 0.3 -3.8
v -0.5 0.3 -4.7
v -0.5 0.3 -4.8
v -0.5 0.7 -3.6
v -0.5 0.7 -3.7
v -0.5 0.7 -4.2
v -0.5 0.7 -4.5
v -0.5 0.7 -4.8
v -0.5 0.7 -4.9
v -0.5 0.8 -3.6
v -0.5 0.8 -3.7
v -0.5 0.8 -4.3
v -0.5 0.8 -4.5
v -0.5 0.8 -4.8
v -0.5 0.8 -4.9
v -0.5 1.2 -3.7
v -0.5 1.2 -3.8
v -0.5 1.2 -4.2
v -0.5 1.2 -4.3
v -0.5 1.2 -4.7
v -0.5 1.2 -4.8
v -0.5 1.3 -3.6
v -0.5 1.3 -3.7
v -0.5 1.3 -3.8
v -0.5 1.3 -4.1
v -0.5 1.3 -4.4
v -0.5 1.3 -4.7
v -0.5 1.3 -4.8
v -0.5 1.3 -4.9
v -0.5 1.4 -3.5
v -0.5 1.4 -3.6
v -0.5 1.4 -3.7
v -0.5 1.4 -4.1
v -0.5 1.4 -4.4
v -0.5 1.4 -4.8
v -0.5 1.4 -4.9
v -0.5 1.4 -5
v -0.5 1.5 -3.6
v -0.5 1.5 -4.9
v -0.8 0.1 -3.5
v -0.8 1.4 -3.5
v -0.5 0.1 -3.5
v -0.5 1.4 -3.5
v -0.8 0 -3.6
v -0.8 0.1 -3.6
v -0.8 1.4 -3.6
v -0.8 1.5 -3.6
v -0.5 0 -3.6
v -0.5 0.1 -3.6
v -0.5 1.4 -3.6
v -0.5 1.5 -3.6
v -0.8 0 -4.9
v -0.8 0.1 -4.9
v -0.8 1.4 -4.9
v -0.8 1.5 -4.9
v -0.5 0 -4.9
v -0.5 0.1 -4.9
v -0.5 1.4 -4.9
v -0.5 1.5 -4.9
v -0.8 0.1 -5
v -0.8 1.4 -5
v -0.5 0.1 -5
v -0.5 1.4 -5
v -0.8 0 -3.6
v -0.5 0 -3.6
v -0.8 0 -4.9
v -0.5 0 -4.9
v -0.8 0.1 -3.5
v -0.5 0.1 -3.5
v -0.8 0.1 -3.6
v -0.5 0.1 -3.6
v -0.8 0.1 -4.9
v -0.5 0.1 -4.9
v -0.8 0.1 -5
v -0.5 0.1 -5
v -0.8 1.4 -3.5
v -0.5 1.4 -3.5
v -0.8 1.4 -3.6
v -0.5 1.4 -3.6
v -0.8 1.4 -4.9
v -0.5 1.4 -4.9
v -0.8 1.4 -5
v -0.5 1.4 -5
v -0.8 1.5 -3.6
v -0.5 1.5 -3.6
v -0.8 1.5 -4.9
v -0.5 1.5 -4.9

# faces
f 4/2/1 2/2/1 1/2/1
f 5/2/1 2/2/1 4/2/1
f 7/2/1 4/2/1 3/2/1
f 7/2/1 6/2/1 5/2/1
f 7/2/1 5/2/1 4/2/1
f 8/2/1 6/2/1 7/2/1
f 9/2/1 6/2/1 8/2/1
f 10/2/1 6/2/1 9/2/1
f 11/2/1 9/2/1 8/2/1
f 12/2/1 9/2/1 11/2/1
f 13/2/2 14/2/2 16/2/2
f 16/2/2 14/2/2 17/2/2
f 17/2/2 14/2/2 18/2/2
f 18/2/2 14/2/2 19/2/2
f 19/2/2 14/2/2 20/2/2
f 20/2/2 14/2/2 21/2/2
f 15/2/2 16/2/2 23/2/2
f 16/2/2 17/2/2 23/2/2
f 17/1/2 18/1/2 24/1/2
f 23/2/2 17/2/2 24/2/2
f 24/1/2 18/1/2 25/1/2
f 18/3/2 19/3/2 26/3/2
f 25/1/2 18/1/2 26/1/2
f 19/1/2 20/1/2 27/1/2
f 26/3/2 19/3/2 27/3/2
f 27/1/2 20/1/2 28/1/2
f 21/2/2 22/2/2 29/2/2
f 28/1/2 20/1/2 29/1/2
f 20/2/2 21/2/2 29/2/2
f 29/2/2 22/2/2 30/2/2
f 24/3/2 25/3/2 31/3/2
f 23/1/2 24/1/2 31/1/2
f 27/1/2 28/1/2 32/1/2
f 31/3/2 25/3/2 32/3/2
f 26/1/2 27/1/2 32/1/2
f 25/1/2 26/1/2 32/1/2
f 28/3/2 29/3/2 33/3/2
f 32/1/2 28/1/2 33/1/2
f 29/1/2 30/1/2 34/1/2
f 33/3/2 29/3/2 34/3/2
f 23/1/2 31/1/2 35/1/2
f 31/1/2 32/1/2 35/1/2
f 33/1/2 34/1/2 35/1/2
f 32/1/2 33/1/2 35/1/2
f 15/2/2 23/2/2 35/2/2
f 35/1/2 34/1/2 36/1/2
f 36/1/2 34/1/2 37/1/2
f 37/1/2 34/1/2 38/1/2
f 34/1/2 30/1/2 39/1/2
f 38/1/2 34/1/2 39/1/2
f 30/2/2 22/2/2 40/2/2
f 39/1/2 30/1/2 40/1/2
f 15/2/2 35/2/2 41/2/2
f 35/3/2 36/3/2 41/3/2
f 36/1/2 37/1/2 42/1/2
f 41/3/2 36/3/2 42/3/2
f 37/3/2 38/3/2 43/3/2
f 38/1/2 39/1/2 44/1/2
f 43/3/2 38/3/2 44/3/2
f 39/3/2 40/3/2 45/3/2
f 44/1/2 39/1/2 45/1/2
f 40/2/2 22/2/2 46/2/2
f 45/3/2 40/3/2 46/3/2
f 42/1/2 37/1/2 47/1/2
f 41/1/2 42/1/2 47/1/2
f 47/1/2 37/1/2 48/1/2
f 37/3/2 43/3/2 49/3/2
f 48/1/2 37/1/2 49/1/2
f 44/1/2 45/1/2 50/1/2
f 49/3/2 43/3/2 50/3/2
f 43/1/2 44/1/2 50/1/2
f 45/1/2 46/1/2 50/1/2
f 50/1/2 46/1/2 51/1/2
f 51/1/2 46/1/2 52/1/2
f 41/1/2 47/1/2 53/1/2
f 15/2/2 41/2/2 53/2/2
f 47/3/2 48/3/2 54/3/2
f 53/1/2 47/1/2 54/1/2
f 48/1/2 49/1/2 55/1/2
f 54/3/2 48/3/2 55/3/2
f 49/1/2 50/1/2 55/1/2
f 50/1/2 51/1/2 55/1/2
f 55/1/2 51/1/2 56/1/2
f 56/1/2 51/1/2 57/1/2
f 51/3/2 52/3/2 58/3/2
f 57/1/2 51/1/2 58/1/2
f 52/1/2 46/1/2 59/1/2
f 58/3/2 52/3/2 59/3/2
f 46/2/2 22/2/2 60/2/2
f 59/1/2 46/1/2 60/1/2
f 15/2/2 53/2/2 61/2/2
f 53/2/2 54/2/2 61/2/2
f 61/2/2 54/2/2 62/2/2
f 54/1/2 55/1/2 63/1/2
f 62/2/2 54/2/2 63/2/2
f 55/1/2 56/1/2 63/1/2
f 56/3/2 57/3/2 64/3/2
f 63/1/2 56/1/2 64/1/2
f 58/1/2 59/1/2 65/1/2
f 64/3/2 57/3/2 65/3/2
f 57/1/2 58/1/2 65/1/2
f 59/2/2 60/2/2 66/2/2
f 65/1/2 59/1/2 66/1/2
f 60/2/2 22/2/2 67/2/2
f 66/2/2 60/2/2 67/2/2
f 67/2/2 22/2/2 68/2/2
f 63/2/2 64/2/2 69/2/2
f 65/2/2 66/2/2 69/2/2
f 66/2/2 67/2/2 69/2/2
f 62/2/2 63/2/2 69/2/2
f 64/2/2 65/2/2 69/2/2
f 69/2/2 67/2/2 70/2/2
f 73/2/3 72/2/3 71/2/3
f 74/2/3 72/2/3 73/2/3
f 79/2/3 76/2/3 75/2/3
f 80/2/3 76/2/3 79/2/3
f 81/2/3 78/2/3 77/2/3
f 82/2/3 78/2/3 81/2/3
f 83/2/4 84/2/4 87/2/4
f 87/2/4 84/2/4 88/2/4
f 85/2/4 86/2/4 89/2/4
f 89/2/4 86/2/4 90/2/4
f 91/2/4 92/2/4 93/2/4
f 93/2/4 92/2/4 94/2/4
f 97/2/5 96/2/5 95/2/5
f 98/2/5 96/2/5 97/2/5
f 101/2/5 100/2/5 99/2/5
f 102/2/5 100/2/5 101/2/5
f 105/2/5 104/2/5 103/2/5
f 106/2/5 104/2/5 105/2/5
f 107/2/6 108/2/6 109/2/6
f 109/2/6 108/2/6 110/2/6
f 111/2/6 112/2/6 113/2/6
f 113/2/6 112/2/6 114/2/6
f 115/2/6 116/2/6 117/2/6
f 117/2/6 116/2/6 118/2/6
