# MagicaVoxel @ Ephtracy

# group
o book

# material
mtllib SchoolPack-70-book.mtl
usemtl palette

# normals
vn -1 0 0
vn 1 0 0
vn 0 0 1
vn 0 0 -1
vn 0 -1 0
vn 0 1 0

# texcoords
vt 0.0175781 0.5
vt 0.869141 0.5
vt 0.876953 0.5
vt 0.958984 0.5

# verts
v 6.8 0.3 -8.2
v 6.8 0.3 -9
v 6.8 0.6 -8.2
v 6.8 0.6 -9
v 6.8 1.4 -8.2
v 6.8 1.4 -9
v 6.8 1.7 -8.2
v 6.8 1.7 -9
v 6.9 0 -8.3
v 6.9 0 -8.9
v 6.9 0.3 -8.3
v 6.9 0.3 -8.9
v 6.9 0.6 -8.3
v 6.9 0.6 -8.9
v 6.9 1.4 -8.3
v 6.9 1.4 -8.9
v 6.9 1.7 -8.3
v 6.9 1.7 -8.9
v 6.9 2 -8.3
v 6.9 2 -8.9
v 7 0.3 -8.2
v 7 0.3 -8.3
v 7 0.3 -8.9
v 7 0.3 -9
v 7 0.6 -8.2
v 7 0.6 -8.3
v 7 0.6 -8.9
v 7 0.6 -9
v 7 1.4 -8.2
v 7 1.4 -8.3
v 7 1.4 -8.9
v 7 1.4 -9
v 7 1.7 -8.2
v 7 1.7 -8.3
v 7 1.7 -8.9
v 7 1.7 -9
v 8.8 0 -8.3
v 8.8 0 -8.4
v 8.8 0 -8.8
v 8.8 0 -8.9
v 8.8 2 -8.3
v 8.8 2 -8.4
v 8.8 2 -8.8
v 8.8 2 -8.9
v 6.8 0.3 -8.2
v 6.8 0.6 -8.2
v 6.8 1.4 -8.2
v 6.8 1.7 -8.2
v 7 0.3 -8.2
v 7 0.6 -8.2
v 7 1.4 -8.2
v 7 1.7 -8.2
v 6.9 0 -8.3
v 6.9 0.3 -8.3
v 6.9 0.6 -8.3
v 6.9 1.4 -8.3
v 6.9 1.7 -8.3
v 6.9 2 -8.3
v 7 0.3 -8.3
v 7 0.6 -8.3
v 7 1.4 -8.3
v 7 1.7 -8.3
v 8.8 0 -8.3
v 8.8 2 -8.3
v 6.9 0 -8.9
v 6.9 0.3 -8.9
v 6.9 0.6 -8.9
v 6.9 1.4 -8.9
v 6.9 1.7 -8.9
v 6.9 2 -8.9
v 7 0.3 -8.9
v 7 0.6 -8.9
v 7 1.4 -8.9
v 7 1.7 -8.9
v 7.2 0.7 -8.9
v 7.2 1.3 -8.9
v 7.3 0.6 -8.9
v 7.3 0.7 -8.9
v 7.3 1.3 -8.9
v 7.3 1.4 -8.9
v 7.6 0.6 -8.9
v 7.6 0.7 -8.9
v 7.6 1.3 -8.9
v 7.6 1.4 -8.9
v 7.7 0.7 -8.9
v 7.7 1.3 -8.9
v 7.8 0.6 -8.9
v 7.8 0.7 -8.9
v 7.8 0.9 -8.9
v 7.8 1.1 -8.9
v 7.9 0.8 -8.9
v 7.9 0.9 -8.9
v 7.9 1.1 -8.9
v 7.9 1.2 -8.9
v 8.1 0.7 -8.9
v 8.1 0.8 -8.9
v 8.1 0.9 -8.9
v 8.2 0.6 -8.9
v 8.2 0.8 -8.9
v 8.2 1.1 -8.9
v 8.2 1.2 -8.9
v 8.3 0.6 -8.9
v 8.3 1.4 -8.9
v 8.4 0.6 -8.9
v 8.4 0.9 -8.9
v 8.4 1 -8.9
v 8.4 1.4 -8.9
v 8.5 0.6 -8.9
v 8.5 0.9 -8.9
v 8.5 1 -8.9
v 8.5 1.4 -8.9
v 8.6 0.6 -8.9
v 8.6 1.4 -8.9
v 8.8 0 -8.9
v 8.8 2 -8.9
v 6.8 0.3 -9
v 6.8 0.6 -9
v 6.8 1.4 -9
v 6.8 1.7 -9
v 7 0.3 -9
v 7 0.6 -9
v 7 1.4 -9
v 7 1.7 -9
v 6.9 0 -8.3
v 8.8 0 -8.3
v 7.1 0 -8.4
v 8.8 0 -8.4
v 7.1 0 -8.8
v 8.8 0 -8.8
v 6.9 0 -8.9
v 8.8 0 -8.9
v 6.8 0.3 -8.2
v 7 0.3 -8.2
v 6.9 0.3 -8.3
v 7 0.3 -8.3
v 6.9 0.3 -8.9
v 7 0.3 -8.9
v 6.8 0.3 -9
v 7 0.3 -9
v 6.8 1.4 -8.2
v 7 1.4 -8.2
v 6.9 1.4 -8.3
v 7 1.4 -8.3
v 6.9 1.4 -8.9
v 7 1.4 -8.9
v 6.8 1.4 -9
v 7 1.4 -9
v 6.8 0.6 -8.2
v 7 0.6 -8.2
v 6.9 0.6 -8.3
v 7 0.6 -8.3
v 6.9 0.6 -8.9
v 7 0.6 -8.9
v 6.8 0.6 -9
v 7 0.6 -9
v 6.8 1.7 -8.2
v 7 1.7 -8.2
v 6.9 1.7 -8.3
v 7 1.7 -8.3
v 6.9 1.7 -8.9
v 7 1.7 -8.9
v 6.8 1.7 -9
v 7 1.7 -9
v 6.9 2 -8.3
v 8.8 2 -8.3
v 7.1 2 -8.4
v 8.8 2 -8.4
v 7.1 2 -8.8
v 8.8 2 -8.8
v 6.9 2 -8.9
v 8.8 2 -8.9

# faces
f 3/1/1 2/1/1 1/1/1
f 4/1/1 2/1/1 3/1/1
f 7/1/1 6/1/1 5/1/1
f 8/1/1 6/1/1 7/1/1
f 11/2/1 10/2/1 9/2/1
f 12/2/1 10/2/1 11/2/1
f 15/2/1 14/2/1 13/2/1
f 16/2/1 14/2/1 15/2/1
f 19/2/1 18/2/1 17/2/1
f 20/2/1 18/2/1 19/2/1
f 21/1/2 22/1/2 25/1/2
f 25/1/2 22/1/2 26/1/2
f 23/1/2 24/1/2 27/1/2
f 27/1/2 24/1/2 28/1/2
f 29/1/2 30/1/2 33/1/2
f 33/1/2 30/1/2 34/1/2
f 31/1/2 32/1/2 35/1/2
f 35/1/2 32/1/2 36/1/2
f 37/2/2 38/2/2 41/2/2
f 38/4/2 39/4/2 42/4/2
f 41/2/2 38/2/2 42/2/2
f 39/2/2 40/2/2 43/2/2
f 42/4/2 39/4/2 43/4/2
f 43/2/2 40/2/2 44/2/2
f 49/1/3 46/1/3 45/1/3
f 50/1/3 46/1/3 49/1/3
f 51/1/3 48/1/3 47/1/3
f 52/1/3 48/1/3 51/1/3
f 59/2/3 54/2/3 53/2/3
f 60/2/3 56/2/3 55/2/3
f 61/2/3 56/2/3 60/2/3
f 62/2/3 58/2/3 57/2/3
f 63/2/3 61/2/3 60/2/3
f 63/2/3 62/2/3 61/2/3
f 63/2/3 59/2/3 53/2/3
f 63/2/3 60/2/3 59/2/3
f 64/2/3 58/2/3 62/2/3
f 64/2/3 62/2/3 63/2/3
f 65/2/4 66/2/4 71/2/4
f 67/2/4 68/2/4 72/2/4
f 72/2/4 68/2/4 73/2/4
f 69/2/4 70/2/4 74/2/4
f 72/2/4 73/2/4 75/2/4
f 73/2/4 74/2/4 75/2/4
f 71/2/4 72/2/4 75/2/4
f 75/2/4 74/2/4 76/2/4
f 71/2/4 75/2/4 77/2/4
f 75/3/4 76/3/4 78/3/4
f 77/2/4 75/2/4 78/2/4
f 76/2/4 74/2/4 79/2/4
f 78/3/4 76/3/4 79/3/4
f 79/2/4 74/2/4 80/2/4
f 77/3/4 78/3/4 81/3/4
f 71/2/4 77/2/4 81/2/4
f 78/2/4 79/2/4 82/2/4
f 81/3/4 78/3/4 82/3/4
f 79/3/4 80/3/4 83/3/4
f 82/2/4 79/2/4 83/2/4
f 80/2/4 74/2/4 84/2/4
f 83/3/4 80/3/4 84/3/4
f 82/3/4 83/3/4 85/3/4
f 81/2/4 82/2/4 85/2/4
f 83/2/4 84/2/4 86/2/4
f 85/3/4 83/3/4 86/3/4
f 81/2/4 85/2/4 87/2/4
f 71/2/4 81/2/4 87/2/4
f 85/2/4 86/2/4 87/2/4
f 87/2/4 86/2/4 88/2/4
f 88/2/4 86/2/4 89/2/4
f 89/2/4 86/2/4 90/2/4
f 88/2/4 89/2/4 91/2/4
f 89/3/4 90/3/4 92/3/4
f 91/2/4 89/2/4 92/2/4
f 90/2/4 86/2/4 93/2/4
f 92/3/4 90/3/4 93/3/4
f 93/2/4 86/2/4 94/2/4
f 87/3/4 88/3/4 95/3/4
f 88/2/4 91/2/4 95/2/4
f 91/3/4 92/3/4 96/3/4
f 95/2/4 91/2/4 96/2/4
f 92/2/4 93/2/4 97/2/4
f 96/3/4 92/3/4 97/3/4
f 71/2/4 87/2/4 98/2/4
f 87/3/4 95/3/4 98/3/4
f 95/3/4 96/3/4 98/3/4
f 96/2/4 97/2/4 99/2/4
f 98/3/4 96/3/4 99/3/4
f 97/2/4 93/2/4 100/2/4
f 99/2/4 97/2/4 100/2/4
f 93/3/4 94/3/4 100/3/4
f 94/2/4 86/2/4 101/2/4
f 100/3/4 94/3/4 101/3/4
f 98/2/4 99/2/4 102/2/4
f 99/2/4 100/2/4 102/2/4
f 100/2/4 101/2/4 102/2/4
f 71/2/4 98/2/4 102/2/4
f 84/2/4 74/2/4 103/2/4
f 102/2/4 101/2/4 103/2/4
f 86/2/4 84/2/4 103/2/4
f 101/2/4 86/2/4 103/2/4
f 71/2/4 102/2/4 104/2/4
f 102/3/4 103/3/4 104/3/4
f 104/3/4 103/3/4 105/3/4
f 105/3/4 103/3/4 106/3/4
f 103/2/4 74/2/4 107/2/4
f 106/3/4 103/3/4 107/3/4
f 71/2/4 104/2/4 108/2/4
f 104/2/4 105/2/4 108/2/4
f 105/3/4 106/3/4 109/3/4
f 108/2/4 105/2/4 109/2/4
f 106/2/4 107/2/4 110/2/4
f 109/3/4 106/3/4 110/3/4
f 107/2/4 74/2/4 111/2/4
f 110/2/4 107/2/4 111/2/4
f 71/2/4 108/2/4 112/2/4
f 109/3/4 110/3/4 112/3/4
f 110/3/4 111/3/4 112/3/4
f 108/3/4 109/3/4 112/3/4
f 111/2/4 74/2/4 113/2/4
f 112/3/4 111/3/4 113/3/4
f 65/2/4 71/2/4 114/2/4
f 71/2/4 112/2/4 114/2/4
f 112/2/4 113/2/4 114/2/4
f 74/2/4 70/2/4 115/2/4
f 114/2/4 113/2/4 115/2/4
f 113/2/4 74/2/4 115/2/4
f 116/1/4 117/1/4 120/1/4
f 120/1/4 117/1/4 121/1/4
f 118/1/4 119/1/4 122/1/4
f 122/1/4 119/1/4 123/1/4
f 126/2/5 125/2/5 124/2/5
f 127/2/5 125/2/5 126/2/5
f 128/2/5 126/2/5 124/2/5
f 128/4/5 127/4/5 126/4/5
f 129/4/5 127/4/5 128/4/5
f 130/2/5 128/2/5 124/2/5
f 130/2/5 129/2/5 128/2/5
f 131/2/5 129/2/5 130/2/5
f 134/1/5 133/1/5 132/1/5
f 135/1/5 133/1/5 134/1/5
f 136/1/5 134/1/5 132/1/5
f 138/1/5 136/1/5 132/1/5
f 138/1/5 137/1/5 136/1/5
f 139/1/5 137/1/5 138/1/5
f 142/1/5 141/1/5 140/1/5
f 143/1/5 141/1/5 142/1/5
f 144/1/5 142/1/5 140/1/5
f 146/1/5 144/1/5 140/1/5
f 146/1/5 145/1/5 144/1/5
f 147/1/5 145/1/5 146/1/5
f 148/1/6 149/1/6 150/1/6
f 150/1/6 149/1/6 151/1/6
f 148/1/6 150/1/6 152/1/6
f 148/1/6 152/1/6 154/1/6
f 152/1/6 153/1/6 154/1/6
f 154/1/6 153/1/6 155/1/6
f 156/1/6 157/1/6 158/1/6
f 158/1/6 157/1/6 159/1/6
f 156/1/6 158/1/6 160/1/6
f 156/1/6 160/1/6 162/1/6
f 160/1/6 161/1/6 162/1/6
f 162/1/6 161/1/6 163/1/6
f 164/2/6 165/2/6 166/2/6
f 166/2/6 165/2/6 167/2/6
f 164/2/6 166/2/6 168/2/6
f 166/4/6 167/4/6 168/4/6
f 168/4/6 167/4/6 169/4/6
f 164/2/6 168/2/6 170/2/6
f 168/2/6 169/2/6 170/2/6
f 170/2/6 169/2/6 171/2/6
